*
*
G04 PADS 9.5 Build Number: 522968 generated Gerber (RS-274-X) file*
G04 PC Version=2.1*
*
%IN "NUTINY-SDK-NUC029FAE_05"*%
*
%MOIN*%
*
%FSLAX35Y35*%
*
*
*
*
G04 PC Standard Apertures*
*
*
G04 Thermal Relief Aperture macro.*
%AMTER*
1,1,$1,0,0*
1,0,$1-$2,0,0*
21,0,$3,$4,0,0,45*
21,0,$3,$4,0,0,135*
%
*
*
G04 Annular Aperture macro.*
%AMANN*
1,1,$1,0,0*
1,0,$2,0,0*
%
*
*
G04 Odd Aperture macro.*
%AMODD*
1,1,$1,0,0*
1,0,$1-0.005,0,0*
%
*
*
G04 PC Custom Aperture Macros*
*
*
*
*
*
*
G04 PC Aperture Table*
*
%ADD016C,0.01*%
%ADD032C,0.06*%
%ADD033R,0.06X0.06*%
%ADD036C,0.02*%
%ADD037C,0.015*%
%ADD049C,0.001*%
%ADD068C,0.032*%
%ADD074C,0.028*%
*
*
*
*
G04 PC Circuitry*
G04 Layer Name NUTINY-SDK-NUC029FAE_05 - circuitry*
%LPD*%
*
*
G04 PC Custom Flashes*
G04 Layer Name NUTINY-SDK-NUC029FAE_05 - flashes*
%LPD*%
*
*
G04 PC Circuitry*
G04 Layer Name NUTINY-SDK-NUC029FAE_05 - circuitry*
%LPD*%
*
G54D16*
G01X220000Y110000D02*
Y117883D01*
X188167Y149715*
Y152333*
X188000Y152500*
X210000Y145000D02*
X255500D01*
X265500Y155000*
X285000*
X290000Y160000*
X252890Y154085D02*
X226437D01*
X218184Y162338*
Y164909*
X215815Y167278*
X212360*
X252890Y154085D02*
X273806Y175000D01*
X285000*
X290000Y180000*
X255000Y151000D02*
X225000D01*
X215500Y160500*
Y163202*
X214948Y163754*
X255000Y151000D02*
X269000Y165000D01*
X285000*
X290000Y170000*
X332500Y147500D02*
X342500D01*
X359026Y151047D02*
X365812D01*
X368082Y153317*
Y165582*
X405000Y202500*
X359026Y151047D02*
X334965Y175107D01*
X316855*
Y175145*
X312000Y180000*
X357857Y148192D02*
X367236D01*
X370844Y151799*
Y160465*
X375379Y165000*
X395000*
X357857Y148192D02*
X340840Y165208D01*
X316792*
X312000Y170000*
X356364Y145655D02*
X369000D01*
X373858Y150514*
Y156357*
X377534Y160033*
X356364Y145655D02*
X347087Y154932D01*
X317068*
X312000Y160000*
X362500Y154000D02*
Y165000D01*
X385000Y160000D02*
X384967Y160033D01*
X377534*
X441789Y149830D02*
Y181889D01*
X472900Y213000*
X362500Y165000D02*
Y165344D01*
X369500Y172344*
Y207500*
X387000Y225000*
X437500Y162500D02*
X437983Y162983D01*
Y188083*
X472900Y223000*
X135500Y212569D02*
X232569D01*
X250000Y230000*
X375000Y202500D02*
X397000Y224500D01*
Y225000*
X382500Y202500D02*
X384500D01*
X407000Y225000*
X465716Y146358D02*
G75*
G03X465716I-2700J0D01*
G01Y163681D02*
G03X465716I-2700J0D01*
G01X133858Y142189D02*
G03X133858I-4500J0D01*
G01Y165811D02*
G03X133858I-4500J0D01*
G01X116142Y142189D02*
G03X116142I-4500J0D01*
G01Y165811D02*
G03X116142I-4500J0D01*
G01X478000Y224960D02*
Y231040D01*
G03X477040Y231236I-500J0*
G01X472913Y228500D02*
G03X477040Y231236I-13J4500D01*
G01X472913Y228500D02*
G03X472900I1J-500D01*
X472887I-14J-500*
G01X470789Y236974D02*
G03X472887Y228500I2111J-3974D01*
G01X470789Y236974D02*
G03X470554Y237916I-235J442D01*
G01X307000*
G03X306500Y237416I0J-500*
G01Y193009*
G03X307500Y193007I500J0*
G01X309000Y194500D02*
G03X307500Y193007I0J-1500D01*
G01X309000Y194500D02*
X315000D01*
X316500Y193000D02*
G03X315000Y194500I-1500J0D01*
G01X316500Y193000D02*
Y190020D01*
G03Y190000I500J0*
Y189980I500J-20*
G01Y187000*
X315000Y185500D02*
G03X316500Y187000I0J1500D01*
G01X315000Y185500D02*
X312020D01*
G03X312000I0J-500*
X311980I-20J-500*
G01X309000*
X307500Y186993D02*
G03X309000Y185500I1500J7D01*
G01X307500Y186993D02*
G03X306500Y186991I-500J-2D01*
G01Y180014*
G03Y180000I500J0*
Y179986I500J-14*
G01Y170014*
G03Y170000I500J0*
Y169986I500J-14*
G01Y160014*
G03Y160000I500J0*
Y159986I500J-14*
G01Y150014*
G03Y150000I500J0*
Y149986I500J-14*
G01Y103000*
G03X307000Y102500I500J0*
G01X477500*
G03X478000Y103000I0J500*
G01Y198800*
G03X477100Y199100I-500J-0*
G01X475900Y198500D02*
G03X477100Y199100I0J1500D01*
G01X475900Y198500D02*
X472143D01*
G03X471789Y198354I-0J-500*
G01X464083Y190648*
G03X464152Y189883I354J-354*
G01X465274Y188344D02*
G03X464152Y189883I-2774J-844D01*
G01X465274Y188344D02*
G03X465399Y188136I479J146D01*
G01X474335Y179200*
X475068Y177432D02*
G03X474335Y179200I-2500J0D01*
G01X475068Y177432D02*
Y128966D01*
G03X475117Y128751I500J0*
G01X469999Y128968D02*
G03X475117Y128751I2501J-1468D01*
G01X469999Y128968D02*
G03X470068Y129221I-431J253D01*
G01Y176190*
G03X469921Y176543I-500J-0*
G01X461864Y184601*
G03X461656Y184726I-354J-354*
G01X460117Y185848D02*
G03X461656Y184726I2383J1652D01*
G01X460117Y185848D02*
G03X459352Y185917I-411J-285D01*
G01X449836Y176401*
G03X449690Y176047I354J-354*
G01Y146130*
X448958Y144362D02*
G03X449690Y146130I-1768J1768D01*
G01X448958Y144362D02*
X447081Y142486D01*
G03X446956Y142278I354J-354*
G01X445026Y140348D02*
G03X446956Y142278I-844J2774D01*
G01X445026Y140348D02*
G03X444818Y140223I146J-479D01*
G01X434779Y130183*
G03X434654Y129975I353J-353*
G01X431035Y133594D02*
G03X434654Y129975I845J-2774D01*
G01X431035Y133594D02*
G03X431243Y133719I-145J479D01*
G01X441283Y143759*
G03X441407Y143966I-354J353*
G01X443337Y145896D02*
G03X441407Y143966I845J-2774D01*
G01X443337Y145896D02*
G03X443545Y146021I-145J479D01*
G01X444543Y147019*
G03X444690Y147373I-353J354*
G01Y147423*
G03X443837Y147777I-500J-0*
G01X439657Y151796D02*
G03X443837Y147777I2132J-1966D01*
G01X439657Y151796D02*
G03X439789Y152135I-368J339D01*
G01Y159609*
G03X439026Y160034I-500J-0*
G01X435780Y164835D02*
G03X439026Y160034I1720J-2335D01*
G01X435780Y164835D02*
G03X435983Y165237I-297J402D01*
G01Y188083*
X436569Y189497D02*
G03X435983Y188083I1414J-1414D01*
G01X436569Y189497D02*
X468424Y221352D01*
G03X468553Y221835I-354J354*
G01X472887Y227500D02*
G03X468553Y221835I13J-4500D01*
G01X472887Y227500D02*
G03X472900I-1J500D01*
X472913I14J500*
G01X477040Y224764D02*
G03X472913Y227500I-4140J-1764D01*
G01X477040Y224764D02*
G03X478000Y224960I460J196D01*
G01X390224Y220552D02*
G03X389583Y221315I-354J354D01*
G01X385835Y220653D02*
G03X389583Y221315I1165J4347D01*
G01X385835Y220653D02*
G03X385352Y220524I-129J-483D01*
G01X371646Y206818*
G03X371500Y206464I354J-354*
G01Y204100*
G03X372441Y203865I500J0*
G01X374882Y205398D02*
G03X372441Y203865I118J-2898D01*
G01X374882Y205398D02*
G03X375215Y205544I-20J499D01*
G01X390224Y220552*
X478000Y234960D02*
Y237416D01*
G03X477500Y237916I-500J-0*
G01X475246*
G03X475011Y236974I-0J-500*
G01X477040Y234764D02*
G03X475011Y236974I-4140J-1764D01*
G01X477040Y234764D02*
G03X478000Y234960I460J196D01*
G01X299500Y102584D02*
Y237000D01*
G03X299000Y237500I-500J0*
G01X102500*
G03X102000Y237000I0J-500*
G01Y102584*
G03X102500Y102084I500J0*
G01X299000*
G03X299500Y102584I0J500*
G01X425059Y192914D02*
G03X419941I-2559J1364D01*
G01X425059D02*
G03X425000Y192678I441J-236D01*
G01Y114100*
G03X425059Y113865I500J0*
G01X419941D02*
G03X425059I2559J-1365D01*
G01X419941D02*
G03X420000Y114100I-441J235D01*
G01Y192678*
G03X419941Y192914I-500J0*
G01X421500Y228000D02*
Y222000D01*
X420000Y220500D02*
G03X421500Y222000I0J1500D01*
G01X420000Y220500D02*
X414000D01*
X412500Y222000D02*
G03X414000Y220500I1500J0D01*
G01X412500Y222000D02*
Y224980D01*
G03Y225000I-500J-0*
Y225020I-500J20*
G01Y228000*
X414000Y229500D02*
G03X412500Y228000I0J-1500D01*
G01X414000Y229500D02*
X420000D01*
X421500Y228000D02*
G03X420000Y229500I-1500J0D01*
G01X340535Y145368D02*
G03Y149632I1965J2132D01*
G01Y145368D02*
G03X340196Y145500I-339J-368D01*
G01X334804*
G03X334465Y145368I0J-500*
G01Y149632D02*
G03Y145368I-1965J-2132D01*
G01Y149632D02*
G03X334804Y149500I339J368D01*
G01X340196*
G03X340535Y149632I-0J500*
G01X411500Y225000D02*
G03Y224982I500J-20D01*
G01X405835Y220653D02*
G03X411500Y224982I1165J4347D01*
G01X405835Y220653D02*
G03X405352Y220524I-129J-483D01*
G01X385914Y201086*
X384762Y200517D02*
G03X385914Y201086I-262J1983D01*
G01X384762Y200517D02*
G03X384485Y200386I66J-495D01*
G01X379649Y203030D02*
G03X384485Y200386I2851J-530D01*
G01X379649Y203030D02*
G03X378804Y203475I-492J92D01*
G01X378044Y202715*
G03X377898Y202382I353J-353*
G01X372441Y201135D02*
G03X377898Y202382I2559J1365D01*
G01X372441Y201135D02*
G03X371500Y200900I-441J-235D01*
G01Y173036*
G03X372354Y172682I500J-0*
G01X401956Y202285*
G03X402102Y202618I-353J353*
G01X405118Y199602D02*
G03X402102Y202618I-118J2898D01*
G01X405118Y199602D02*
G03X404785Y199456I20J-499D01*
G01X370229Y164900*
G03X370082Y164547I353J-353*
G01Y163739*
G03X370936Y163385I500J-0*
G01X373965Y166414*
X375379Y167000D02*
G03X373965Y166414I0J-2000D01*
G01X375379Y167000D02*
X392696D01*
G03X393035Y167132I-0J500*
G01Y162868D02*
G03Y167132I1965J2132D01*
G01Y162868D02*
G03X392696Y163000I-339J-368D01*
G01X387304*
G03X386966Y162132I0J-500*
G01X383004Y157896D02*
G03X386966Y162132I1996J2104D01*
G01X383004Y157896D02*
G03X382660Y158033I-344J-363D01*
G01X378570*
G03X378216Y157887I-0J-500*
G01X376004Y155675*
G03X375858Y155321I354J-354*
G01Y150514*
X375272Y149099D02*
G03X375858Y150514I-1414J1415D01*
G01X375272Y149099D02*
X370414Y144241D01*
X369000Y143655D02*
G03X370414Y144241I-0J2000D01*
G01X369000Y143655D02*
X356364D01*
X354950Y144241D02*
G03X356364Y143655I1414J1414D01*
G01X354950Y144241D02*
X346405Y152786D01*
G03X346052Y152932I-353J-354*
G01X326369*
G03X325932Y152189I-0J-500*
G01X317500Y149987D02*
G03X325932Y152189I4500J13D01*
G01X317500Y149987D02*
G03Y150000I-500J-1D01*
Y150013I-500J14*
G01X318068Y152189D02*
G03X317500Y150013I3932J-2189D01*
G01X318068Y152189D02*
G03X317631Y152932I-437J243D01*
G01X317068*
X316453Y153029D02*
G03X317068Y152932I615J1903D01*
G01X316453Y153029D02*
G03X315869Y152298I-154J-476D01*
G01X316500Y150013D02*
G03X315869Y152298I-4500J-13D01*
G01X316500Y150013D02*
G03Y150000I500J1D01*
Y149987I500J-14*
G01X307500D02*
G03X316500I4500J13D01*
G01X307500D02*
G03Y150000I-500J-1D01*
Y150013I-500J14*
G01X311987Y154500D02*
G03X307500Y150013I13J-4500D01*
G01X311987Y154500D02*
G03X312000I-1J500D01*
X312013I14J500*
G01X313619Y154199D02*
G03X312013Y154500I-1619J-4199D01*
G01X313619Y154199D02*
G03X314153Y155019I180J466D01*
G01X313648Y155524*
G03X313165Y155653I-354J-354*
G01X312013Y155500D02*
G03X313165Y155653I-13J4500D01*
G01X312013Y155500D02*
G03X312000I1J-500D01*
X311987I-14J-500*
G01X307500Y159987D02*
G03X311987Y155500I4500J13D01*
G01X307500Y159987D02*
G03Y160000I-500J-1D01*
Y160013I-500J14*
G01X311987Y164500D02*
G03X307500Y160013I13J-4500D01*
G01X311987Y164500D02*
G03X312000I-1J500D01*
X312013I14J500*
G01X313619Y164199D02*
G03X312013Y164500I-1619J-4199D01*
G01X313619Y164199D02*
G03X314153Y165019I180J466D01*
G01X313648Y165524*
G03X313165Y165653I-354J-354*
G01X312013Y165500D02*
G03X313165Y165653I-13J4500D01*
G01X312013Y165500D02*
G03X312000I1J-500D01*
X311987I-14J-500*
G01X307500Y169987D02*
G03X311987Y165500I4500J13D01*
G01X307500Y169987D02*
G03Y170000I-500J-1D01*
Y170013I-500J14*
G01X311987Y174500D02*
G03X307500Y170013I13J-4500D01*
G01X311987Y174500D02*
G03X312000I-1J500D01*
X312013I14J500*
G01X313619Y174199D02*
G03X312013Y174500I-1619J-4199D01*
G01X313619Y174199D02*
G03X314153Y175019I180J466D01*
G01X313648Y175524*
G03X313165Y175653I-354J-354*
G01X312013Y175500D02*
G03X313165Y175653I-13J4500D01*
G01X312013Y175500D02*
G03X312000I1J-500D01*
X311987I-14J-500*
G01X307500Y179987D02*
G03X311987Y175500I4500J13D01*
G01X307500Y179987D02*
G03Y180000I-500J-1D01*
Y180013I-500J14*
G01X311982Y184500D02*
G03X307500Y180013I18J-4500D01*
G01X311982Y184500D02*
G03X312000I-2J500D01*
X312018I20J500*
G01X316500Y180013D02*
G03X312018Y184500I-4500J-13D01*
G01X316500Y180013D02*
G03Y180000I500J1D01*
Y179987I500J-14*
G01X316347Y178835D02*
G03X316500Y179987I-4347J1165D01*
G01X316347Y178835D02*
G03X316476Y178352I483J-129D01*
G01X316981Y177847*
G03X317801Y178381I354J354*
G01X317500Y179987D02*
G03X317801Y178381I4500J13D01*
G01X317500Y179987D02*
G03Y180000I-500J-1D01*
Y180013I-500J14*
G01X321987Y184500D02*
G03X317500Y180013I13J-4500D01*
G01X321987Y184500D02*
G03X322000I-1J500D01*
X322013I14J500*
G01X325951Y177847D02*
G03X322013Y184500I-3951J2153D01*
G01X325951Y177847D02*
G03X326390Y177107I439J-240D01*
G01X334965*
X336379Y176522D02*
G03X334965Y177107I-1414J-1415D01*
G01X336379Y176522D02*
X358780Y154121D01*
G03X359628Y154405I353J354*
G01X360368Y155965D02*
G03X359628Y154405I2132J-1965D01*
G01X360368Y155965D02*
G03X360500Y156304I-368J339D01*
G01Y162696*
G03X360368Y163035I-500J-0*
G01X362057Y167866D02*
G03X360368Y163035I443J-2866D01*
G01X362057Y167866D02*
G03X362334Y168007I-76J494D01*
G01X367354Y173026*
G03X367500Y173379I-354J353*
G01Y207500*
X368086Y208914D02*
G03X367500Y207500I1414J-1414D01*
G01X368086Y208914D02*
X379153Y219981D01*
G03X378619Y220801I-354J354*
G01X381500Y225013D02*
G03X378619Y220801I-4500J-13D01*
G01X381500Y225013D02*
G03Y225000I500J1D01*
Y224987I500J-14*
G01X381199Y223381D02*
G03X381500Y224987I-4199J1619D01*
G01X381199Y223381D02*
G03X382019Y222847I466J-180D01*
G01X382524Y223352*
G03X382653Y223835I-354J354*
G01X382500Y224987D02*
G03X382653Y223835I4500J13D01*
G01X382500Y224987D02*
G03Y225000I-500J-1D01*
Y225013I-500J14*
G01X391500D02*
G03X382500I-4500J-13D01*
G01X391500D02*
G03Y225000I500J1D01*
Y224987I500J-14*
G01X390685Y222417D02*
G03X391500Y224987I-3685J2583D01*
G01X390685Y222417D02*
G03X391448Y221776I409J-287D01*
G01X392643Y222971*
G03X392760Y223492I-354J354*
G01X392500Y224987D02*
G03X392760Y223492I4500J13D01*
G01X392500Y224987D02*
G03Y225000I-500J-1D01*
Y225013I-500J14*
G01X401500D02*
G03X392500I-4500J-13D01*
G01X401500D02*
G03Y225000I500J1D01*
Y224987I500J-14*
G01X401199Y223381D02*
G03X401500Y224987I-4199J1619D01*
G01X401199Y223381D02*
G03X402019Y222847I466J-180D01*
G01X402524Y223352*
G03X402653Y223835I-354J354*
G01X402500Y224987D02*
G03X402653Y223835I4500J13D01*
G01X402500Y224987D02*
G03Y225000I-500J-1D01*
Y225013I-500J14*
G01X411500Y225018D02*
G03X402500Y225013I-4500J-18D01*
G01X411500Y225018D02*
G03Y225000I500J2D01*
G01X322013Y185500D02*
G03X317500Y190018I-13J4500D01*
G01X322013Y185500D02*
G03X322000I1J-500D01*
X321987I-14J-500*
G01X317500Y189982D02*
G03X321987Y185500I4500J18D01*
G01X317500Y189982D02*
G03Y190000I-500J-2D01*
Y190018I-500J20*
G01X465716Y146358D02*
G03X465716I-2700J0D01*
G01Y163681D02*
G03X465716I-2700J0D01*
G01X285500Y109982D02*
G03Y110018I4500J18D01*
G01Y109982D02*
G03Y110000I-500J-2D01*
Y110018I-500J20*
G01X290013Y175500D02*
G03Y184500I-13J4500D01*
G01Y175500D02*
G03X290000I1J-500D01*
X289987I-14J-500*
G01X288835Y175653D02*
G03X289987Y175500I1165J4347D01*
G01X288835Y175653D02*
G03X288352Y175524I-129J-483D01*
G01X287847Y175019*
G03X288381Y174199I354J-354*
G01X289987Y174500D02*
G03X288381Y174199I13J-4500D01*
G01X289987Y174500D02*
G03X290000I-1J500D01*
X290013I14J500*
G01Y165500D02*
G03Y174500I-13J4500D01*
G01Y165500D02*
G03X290000I1J-500D01*
X289987I-14J-500*
G01X288835Y165653D02*
G03X289987Y165500I1165J4347D01*
G01X288835Y165653D02*
G03X288352Y165524I-129J-483D01*
G01X287847Y165019*
G03X288381Y164199I354J-354*
G01X289987Y164500D02*
G03X288381Y164199I13J-4500D01*
G01X289987Y164500D02*
G03X290000I-1J500D01*
X290013I14J500*
G01Y155500D02*
G03Y164500I-13J4500D01*
G01Y155500D02*
G03X290000I1J-500D01*
X289987I-14J-500*
G01X288835Y155653D02*
G03X289987Y155500I1165J4347D01*
G01X288835Y155653D02*
G03X288352Y155524I-129J-483D01*
G01X287847Y155019*
G03X288381Y154199I354J-354*
G01X289987Y154500D02*
G03X288381Y154199I13J-4500D01*
G01X289987Y154500D02*
G03X290000I-1J500D01*
X290013I14J500*
G01X285500Y149987D02*
G03X290013Y154500I4500J13D01*
G01X285500Y149987D02*
G03Y150000I-500J-1D01*
Y150013I-500J14*
G01X286162Y152350D02*
G03X285500Y150013I3838J-2350D01*
G01X286162Y152350D02*
G03X285589Y153089I-426J261D01*
G01X285000Y153000D02*
G03X285589Y153089I0J2000D01*
G01X285000Y153000D02*
X284330D01*
G03X283897Y152250I0J-500*
G01X284500Y150013D02*
G03X283897Y152250I-4500J-13D01*
G01X284500Y150013D02*
G03Y150000I500J1D01*
Y149987I500J-14*
G01X276103Y152250D02*
G03X284500Y149987I3897J-2250D01*
G01X276103Y152250D02*
G03X275670Y153000I-433J250D01*
G01X266536*
G03X266182Y152854I-0J-500*
G01X256914Y143586*
X255500Y143000D02*
G03X256914Y143586I0J2000D01*
G01X255500Y143000D02*
X212304D01*
G03X211965Y142868I0J-500*
G01Y147132D02*
G03Y142868I-1965J-2132D01*
G01Y147132D02*
G03X212304Y147000I339J368D01*
G01X254464*
G03X254818Y147146I0J500*
G01X255872Y148201*
G03X255415Y149044I-353J353*
G01X255000Y149000D02*
G03X255415Y149044I0J2000D01*
G01X255000Y149000D02*
X225000D01*
X223586Y149586D02*
G03X225000Y149000I1414J1414D01*
G01X223586Y149586D02*
X214086Y159086D01*
X213500Y160500D02*
G03X214086Y159086I2000J0D01*
G01X213500Y160500D02*
Y160967D01*
G03X213286Y161377I-500J0*
G01X212054Y163942D02*
G03X213286Y161377I2894J-188D01*
G01X212054Y163942D02*
G03X211674Y164460I-499J33D01*
G01X214326Y169410D02*
G03X211674Y164460I-1966J-2132D01*
G01X214326Y169410D02*
G03X214665Y169278I339J368D01*
G01X215815*
X217229Y168692D02*
G03X215815Y169278I-1414J-1414D01*
G01X217229Y168692D02*
X219598Y166323D01*
X220184Y164909D02*
G03X219598Y166323I-2000J-0D01*
G01X220184Y164909D02*
Y163374D01*
G03X220330Y163020I500J-0*
G01X227119Y156231*
G03X227473Y156085I354J354*
G01X251855*
G03X252208Y156231I-0J500*
G01X272392Y176414*
X273806Y177000D02*
G03X272392Y176414I-0J-2000D01*
G01X273806Y177000D02*
X275670D01*
G03X276103Y177750I-0J500*
G01X279982Y184500D02*
G03X276103Y177750I18J-4500D01*
G01X279982Y184500D02*
G03X280000I-2J500D01*
X280018I20J500*
G01X284500Y180013D02*
G03X280018Y184500I-4500J-13D01*
G01X284500Y180013D02*
G03Y180000I500J1D01*
Y179987I500J-14*
G01X284199Y178381D02*
G03X284500Y179987I-4199J1619D01*
G01X284199Y178381D02*
G03X285019Y177847I466J-180D01*
G01X285524Y178352*
G03X285653Y178835I-354J354*
G01X285500Y179987D02*
G03X285653Y178835I4500J13D01*
G01X285500Y179987D02*
G03Y180000I-500J-1D01*
Y180013I-500J14*
G01X289987Y184500D02*
G03X285500Y180013I13J-4500D01*
G01X289987Y184500D02*
G03X290000I-1J500D01*
X290013I14J500*
G01Y185500D02*
G03X285500Y190018I-13J4500D01*
G01X290013Y185500D02*
G03X290000I1J-500D01*
X289987I-14J-500*
G01X285500Y189982D02*
G03X289987Y185500I4500J18D01*
G01X285500Y189982D02*
G03Y190000I-500J-2D01*
Y190018I-500J20*
G01Y229982D02*
G03Y230018I4500J18D01*
G01Y229982D02*
G03Y230000I-500J-2D01*
Y230018I-500J20*
G01X284500Y190000D02*
G03Y189980I500J-20D01*
G01Y187000*
X283000Y185500D02*
G03X284500Y187000I0J1500D01*
G01X283000Y185500D02*
X280020D01*
G03X280000I0J-500*
X279980I-20J-500*
G01X277000*
X275500Y187000D02*
G03X277000Y185500I1500J0D01*
G01X275500Y187000D02*
Y193000D01*
X277000Y194500D02*
G03X275500Y193000I0J-1500D01*
G01X277000Y194500D02*
X283000D01*
X284500Y193000D02*
G03X283000Y194500I-1500J0D01*
G01X284500Y193000D02*
Y190020D01*
G03Y190000I500J0*
G01Y230000D02*
G03Y229980I500J-20D01*
G01Y227000*
X283000Y225500D02*
G03X284500Y227000I0J1500D01*
G01X283000Y225500D02*
X277000D01*
X275500Y227000D02*
G03X277000Y225500I1500J0D01*
G01X275500Y227000D02*
Y233000D01*
X277000Y234500D02*
G03X275500Y233000I0J-1500D01*
G01X277000Y234500D02*
X283000D01*
X284500Y233000D02*
G03X283000Y234500I-1500J0D01*
G01X284500Y233000D02*
Y230020D01*
G03Y230000I500J0*
G01X264500Y233000D02*
Y227000D01*
X263000Y225500D02*
G03X264500Y227000I0J1500D01*
G01X263000Y225500D02*
X257000D01*
X255500Y227000D02*
G03X257000Y225500I1500J0D01*
G01X255500Y227000D02*
Y229980D01*
G03Y230000I-500J-0*
Y230020I-500J20*
G01Y233000*
X257000Y234500D02*
G03X255500Y233000I0J-1500D01*
G01X257000Y234500D02*
X263000D01*
X264500Y233000D02*
G03X263000Y234500I-1500J0D01*
G01X174500Y110000D02*
G03Y109980I500J-20D01*
G01Y107000*
X173000Y105500D02*
G03X174500Y107000I0J1500D01*
G01X173000Y105500D02*
X167000D01*
X165500Y107000D02*
G03X167000Y105500I1500J0D01*
G01X165500Y107000D02*
Y113000D01*
X167000Y114500D02*
G03X165500Y113000I0J-1500D01*
G01X167000Y114500D02*
X173000D01*
X174500Y113000D02*
G03X173000Y114500I-1500J0D01*
G01X174500Y113000D02*
Y110020D01*
G03Y110000I500J0*
G01Y155500D02*
Y149500D01*
X173000Y148000D02*
G03X174500Y149500I0J1500D01*
G01X173000Y148000D02*
X167000D01*
X165500Y149500D02*
G03X167000Y148000I1500J0D01*
G01X165500Y149500D02*
Y155500D01*
X167000Y157000D02*
G03X165500Y155500I0J-1500D01*
G01X167000Y157000D02*
X173000D01*
X174500Y155500D02*
G03X173000Y157000I-1500J0D01*
G01X145500Y109987D02*
G03Y110013I4500J13D01*
G01Y109987D02*
G03Y110000I-500J-1D01*
Y110013I-500J14*
G01X155400Y155339D02*
Y149339D01*
X153900Y147839D02*
G03X155400Y149339I0J1500D01*
G01X153900Y147839D02*
X147900D01*
X146400Y149339D02*
G03X147900Y147839I1500J-0D01*
G01X146400Y149339D02*
Y155339D01*
X147900Y156839D02*
G03X146400Y155339I0J-1500D01*
G01X147900Y156839D02*
X153900D01*
X155400Y155339D02*
G03X153900Y156839I-1500J-0D01*
G01X144500Y110000D02*
G03Y109987I500J-14D01*
G01X135500D02*
G03X144500I4500J13D01*
G01X135500D02*
G03Y110000I-500J-1D01*
Y110013I-500J14*
G01X144500D02*
G03X135500I-4500J-13D01*
G01X144500D02*
G03Y110000I500J1D01*
G01X134500D02*
G03Y109987I500J-14D01*
G01X125500D02*
G03X134500I4500J13D01*
G01X125500D02*
G03Y110000I-500J-1D01*
Y110013I-500J14*
G01X134500D02*
G03X125500I-4500J-13D01*
G01X134500D02*
G03Y110000I500J1D01*
G01X133858Y142189D02*
G03X133858I-4500J0D01*
G01Y165811D02*
G03X133858I-4500J0D01*
G01X254500Y230000D02*
G03Y229982I500J-20D01*
G01X248835Y225653D02*
G03X254500Y229982I1165J4347D01*
G01X248835Y225653D02*
G03X248352Y225524I-129J-483D01*
G01X233983Y211155*
X232569Y210569D02*
G03X233983Y211155I0J2000D01*
G01X232569Y210569D02*
X137804D01*
G03X137465Y210437I0J-500*
G01Y214701D02*
G03Y210437I-1965J-2132D01*
G01Y214701D02*
G03X137804Y214569I339J368D01*
G01X231533*
G03X231887Y214715I0J500*
G01X242153Y224981*
G03X241619Y225801I-354J354*
G01X235500Y229987D02*
G03X241619Y225801I4500J13D01*
G01X235500Y229987D02*
G03Y230000I-500J-1D01*
Y230013I-500J14*
G01X244500D02*
G03X235500I-4500J-13D01*
G01X244500D02*
G03Y230000I500J1D01*
Y229987I500J-14*
G01X244199Y228381D02*
G03X244500Y229987I-4199J1619D01*
G01X244199Y228381D02*
G03X245019Y227847I466J-180D01*
G01X245524Y228352*
G03X245653Y228835I-354J354*
G01X245500Y229987D02*
G03X245653Y228835I4500J13D01*
G01X245500Y229987D02*
G03Y230000I-500J-1D01*
Y230013I-500J14*
G01X254500Y230018D02*
G03X245500Y230013I-4500J-18D01*
G01X254500Y230018D02*
G03Y230000I500J2D01*
G01X234500D02*
G03Y229987I500J-14D01*
G01X225500D02*
G03X234500I4500J13D01*
G01X225500D02*
G03Y230000I-500J-1D01*
Y230013I-500J14*
G01X234500D02*
G03X225500I-4500J-13D01*
G01X234500D02*
G03Y230000I500J1D01*
G01X224500D02*
G03Y229987I500J-14D01*
G01X215500D02*
G03X224500I4500J13D01*
G01X215500D02*
G03Y230000I-500J-1D01*
Y230013I-500J14*
G01X224500D02*
G03X215500I-4500J-13D01*
G01X224500D02*
G03Y230000I500J1D01*
G01X214500D02*
G03Y229987I500J-14D01*
G01X205500D02*
G03X214500I4500J13D01*
G01X205500D02*
G03Y230000I-500J-1D01*
Y230013I-500J14*
G01X214500D02*
G03X205500I-4500J-13D01*
G01X214500D02*
G03Y230000I500J1D01*
G01X204500D02*
G03Y229987I500J-14D01*
G01X195500D02*
G03X204500I4500J13D01*
G01X195500D02*
G03Y230000I-500J-1D01*
Y230013I-500J14*
G01X204500D02*
G03X195500I-4500J-13D01*
G01X204500D02*
G03Y230000I500J1D01*
G01X194500D02*
G03Y229987I500J-14D01*
G01X185500D02*
G03X194500I4500J13D01*
G01X185500D02*
G03Y230000I-500J-1D01*
Y230013I-500J14*
G01X194500D02*
G03X185500I-4500J-13D01*
G01X194500D02*
G03Y230000I500J1D01*
G01X184500D02*
G03Y229987I500J-14D01*
G01X175500D02*
G03X184500I4500J13D01*
G01X175500D02*
G03Y230000I-500J-1D01*
Y230013I-500J14*
G01X184500D02*
G03X175500I-4500J-13D01*
G01X184500D02*
G03Y230000I500J1D01*
G01X174500D02*
G03Y229987I500J-14D01*
G01Y230013D02*
G03Y229987I-4500J-13D01*
G01Y230013D02*
G03Y230000I500J1D01*
G01X145500Y229987D02*
G03Y230013I4500J13D01*
G01Y229987D02*
G03Y230000I-500J-1D01*
Y230013I-500J14*
G01X144500Y230000D02*
G03Y229987I500J-14D01*
G01X135500D02*
G03X144500I4500J13D01*
G01X135500D02*
G03Y230000I-500J-1D01*
Y230013I-500J14*
G01X144500D02*
G03X135500I-4500J-13D01*
G01X144500D02*
G03Y230000I500J1D01*
G01X134500D02*
G03Y229987I500J-14D01*
G01X125500D02*
G03X134500I4500J13D01*
G01X125500D02*
G03Y230000I-500J-1D01*
Y230013I-500J14*
G01X134500D02*
G03X125500I-4500J-13D01*
G01X134500D02*
G03Y230000I500J1D01*
G01X124500Y110000D02*
G03Y109987I500J-14D01*
G01X115500Y109982D02*
G03X124500Y109987I4500J18D01*
G01X115500Y109982D02*
G03Y110000I-500J-2D01*
Y110018I-500J20*
G01X124500Y110013D02*
G03X115500Y110018I-4500J-13D01*
G01X124500Y110013D02*
G03Y110000I500J1D01*
G01X114500D02*
G03Y109980I500J-20D01*
G01Y107000*
X113000Y105500D02*
G03X114500Y107000I0J1500D01*
G01X113000Y105500D02*
X107000D01*
X105500Y107000D02*
G03X107000Y105500I1500J0D01*
G01X105500Y107000D02*
Y113000D01*
X107000Y114500D02*
G03X105500Y113000I0J-1500D01*
G01X107000Y114500D02*
X113000D01*
X114500Y113000D02*
G03X113000Y114500I-1500J0D01*
G01X114500Y113000D02*
Y110020D01*
G03Y110000I500J0*
G01X116142Y142189D02*
G03X116142I-4500J0D01*
G01Y165811D02*
G03X116142I-4500J0D01*
G01X124500Y230000D02*
G03Y229987I500J-14D01*
G01X115500Y229982D02*
G03X124500Y229987I4500J18D01*
G01X115500Y229982D02*
G03Y230000I-500J-2D01*
Y230018I-500J20*
G01X124500Y230013D02*
G03X115500Y230018I-4500J-13D01*
G01X124500Y230013D02*
G03Y230000I500J1D01*
G01X114500D02*
G03Y229980I500J-20D01*
G01Y227000*
X113000Y225500D02*
G03X114500Y227000I0J1500D01*
G01X113000Y225500D02*
X107000D01*
X105500Y227000D02*
G03X107000Y225500I1500J0D01*
G01X105500Y227000D02*
Y233000D01*
X107000Y234500D02*
G03X105500Y233000I0J-1500D01*
G01X107000Y234500D02*
X113000D01*
X114500Y233000D02*
G03X113000Y234500I-1500J0D01*
G01X114500Y233000D02*
Y230020D01*
G03Y230000I500J0*
G01X214500Y110000D02*
G03Y109987I500J-14D01*
G01X205500D02*
G03X214500I4500J13D01*
G01X205500D02*
G03Y110000I-500J-1D01*
Y110013I-500J14*
G01X214500D02*
G03X205500I-4500J-13D01*
G01X214500D02*
G03Y110000I500J1D01*
G01X204500D02*
G03Y109987I500J-14D01*
G01X195500D02*
G03X204500I4500J13D01*
G01X195500D02*
G03Y110000I-500J-1D01*
Y110013I-500J14*
G01X204500D02*
G03X195500I-4500J-13D01*
G01X204500D02*
G03Y110000I500J1D01*
G01X194500D02*
G03Y109987I500J-14D01*
G01X185500D02*
G03X194500I4500J13D01*
G01X185500D02*
G03Y110000I-500J-1D01*
Y110013I-500J14*
G01X194500D02*
G03X185500I-4500J-13D01*
G01X194500D02*
G03Y110000I500J1D01*
G01X184500D02*
G03Y109987I500J-14D01*
G01X175500Y109982D02*
G03X184500Y109987I4500J18D01*
G01X175500Y109982D02*
G03Y110000I-500J-2D01*
Y110018I-500J20*
G01X184500Y110013D02*
G03X175500Y110018I-4500J-13D01*
G01X184500Y110013D02*
G03Y110000I500J1D01*
G01X255500Y109987D02*
G03Y110013I4500J13D01*
G01Y109987D02*
G03Y110000I-500J-1D01*
Y110013I-500J14*
G01X254500Y110000D02*
G03Y109987I500J-14D01*
G01X245500D02*
G03X254500I4500J13D01*
G01X245500D02*
G03Y110000I-500J-1D01*
Y110013I-500J14*
G01X254500D02*
G03X245500I-4500J-13D01*
G01X254500D02*
G03Y110000I500J1D01*
G01X244500D02*
G03Y109987I500J-14D01*
G01X235500D02*
G03X244500I4500J13D01*
G01X235500D02*
G03Y110000I-500J-1D01*
Y110013I-500J14*
G01X244500D02*
G03X235500I-4500J-13D01*
G01X244500D02*
G03Y110000I500J1D01*
G01X234500D02*
G03Y109987I500J-14D01*
G01X225500D02*
G03X234500I4500J13D01*
G01X225500D02*
G03Y110000I-500J-1D01*
Y110013I-500J14*
G01X234500D02*
G03X225500I-4500J-13D01*
G01X234500D02*
G03Y110000I500J1D01*
G01X224500D02*
G03Y109987I500J-14D01*
G01X215500D02*
G03X224500I4500J13D01*
G01X215500D02*
G03Y110000I-500J-1D01*
Y110013I-500J14*
G01X217750Y113897D02*
G03X215500Y110013I2250J-3897D01*
G01X217750Y113897D02*
G03X218000Y114330I-250J433D01*
G01Y116847*
G03X217854Y117201I-500J0*
G01X187201Y147854*
G03X186847Y148000I-354J-354*
G01X185000*
X183500Y149500D02*
G03X185000Y148000I1500J0D01*
G01X183500Y149500D02*
Y155500D01*
X185000Y157000D02*
G03X183500Y155500I0J-1500D01*
G01X185000Y157000D02*
X191000D01*
X192500Y155500D02*
G03X191000Y157000I-1500J0D01*
G01X192500Y155500D02*
Y149500D01*
X192348Y148841D02*
G03X192500Y149500I-1348J659D01*
G01X192348Y148841D02*
G03X192443Y148268I449J-219D01*
G01X221414Y119297*
X222000Y117883D02*
G03X221414Y119297I-2000J-0D01*
G01X222000Y117883D02*
Y114330D01*
G03X222250Y113897I500J0*
G01X224500Y110013D02*
G03X222250Y113897I-4500J-13D01*
G01X224500Y110013D02*
G03Y110000I500J1D01*
G01X284500D02*
G03Y109980I500J-20D01*
G01Y107000*
X283000Y105500D02*
G03X284500Y107000I0J1500D01*
G01X283000Y105500D02*
X277000D01*
X275500Y107000D02*
G03X277000Y105500I1500J0D01*
G01X275500Y107000D02*
Y113000D01*
X277000Y114500D02*
G03X275500Y113000I0J-1500D01*
G01X277000Y114500D02*
X283000D01*
X284500Y113000D02*
G03X283000Y114500I-1500J0D01*
G01X284500Y113000D02*
Y110020D01*
G03Y110000I500J0*
G01X475602Y236599D02*
X478000D01*
X476501Y235699D02*
X478000D01*
X474752Y237499D02*
X477993D01*
X477025Y234799D02*
X477973D01*
X389559Y221299D02*
X390180D01*
X385227Y220399D02*
X390070D01*
X384327Y219499D02*
X389170D01*
X383427Y218599D02*
X388270D01*
X382527Y217699D02*
X387370D01*
X381627Y216799D02*
X386470D01*
X380727Y215899D02*
X385570D01*
X379827Y214999D02*
X384670D01*
X378927Y214099D02*
X383770D01*
X378027Y213199D02*
X382870D01*
X377127Y212299D02*
X381970D01*
X376227Y211399D02*
X381070D01*
X375327Y210499D02*
X380170D01*
X374427Y209599D02*
X379270D01*
X373527Y208699D02*
X378370D01*
X372627Y207799D02*
X377470D01*
X371727Y206899D02*
X376570D01*
X371500Y205999D02*
X375670D01*
X371500Y205099D02*
X373713D01*
X371500Y204199D02*
X372650D01*
X476499Y230299D02*
X478000D01*
X475598Y229399D02*
X478000D01*
X421415Y228499D02*
X478000D01*
X421500Y227599D02*
X478000D01*
X475463Y226699D02*
X478000D01*
X476424Y225799D02*
X478000D01*
X476798Y198799D02*
X478000D01*
X471334Y197899D02*
X478000D01*
X470434Y196999D02*
X478000D01*
X469534Y196099D02*
X478000D01*
X468634Y195199D02*
X478000D01*
X467734Y194299D02*
X478000D01*
X466834Y193399D02*
X478000D01*
X465934Y192499D02*
X478000D01*
X465034Y191599D02*
X478000D01*
X464134Y190699D02*
X478000D01*
X464268Y189799D02*
X478000D01*
X465040Y188899D02*
X478000D01*
X465537Y187999D02*
X478000D01*
X466437Y187099D02*
X478000D01*
X467337Y186199D02*
X478000D01*
X468237Y185299D02*
X478000D01*
X469137Y184399D02*
X478000D01*
X470037Y183499D02*
X478000D01*
X470937Y182599D02*
X478000D01*
X471837Y181699D02*
X478000D01*
X472737Y180799D02*
X478000D01*
X473637Y179899D02*
X478000D01*
X474516Y178999D02*
X478000D01*
X474977Y178099D02*
X478000D01*
X475068Y177199D02*
X478000D01*
X475068Y176299D02*
X478000D01*
X475068Y175399D02*
X478000D01*
X475068Y174499D02*
X478000D01*
X475068Y173599D02*
X478000D01*
X475068Y172699D02*
X478000D01*
X475068Y171799D02*
X478000D01*
X475068Y170899D02*
X478000D01*
X475068Y169999D02*
X478000D01*
X475068Y169099D02*
X478000D01*
X475068Y168199D02*
X478000D01*
X475068Y167299D02*
X478000D01*
X475068Y166399D02*
X478000D01*
X475068Y165499D02*
X478000D01*
X475068Y164599D02*
X478000D01*
X475068Y163699D02*
X478000D01*
X475068Y162799D02*
X478000D01*
X475068Y161899D02*
X478000D01*
X475068Y160999D02*
X478000D01*
X475068Y160099D02*
X478000D01*
X475068Y159199D02*
X478000D01*
X475068Y158299D02*
X478000D01*
X475068Y157399D02*
X478000D01*
X475068Y156499D02*
X478000D01*
X475068Y155599D02*
X478000D01*
X475068Y154699D02*
X478000D01*
X475068Y153799D02*
X478000D01*
X475068Y152899D02*
X478000D01*
X475068Y151999D02*
X478000D01*
X475068Y151099D02*
X478000D01*
X475068Y150199D02*
X478000D01*
X475068Y149299D02*
X478000D01*
X475068Y148399D02*
X478000D01*
X475068Y147499D02*
X478000D01*
X475068Y146599D02*
X478000D01*
X475068Y145699D02*
X478000D01*
X475068Y144799D02*
X478000D01*
X475068Y143899D02*
X478000D01*
X475068Y142999D02*
X478000D01*
X475068Y142099D02*
X478000D01*
X475068Y141199D02*
X478000D01*
X475068Y140299D02*
X478000D01*
X475068Y139399D02*
X478000D01*
X475068Y138499D02*
X478000D01*
X475068Y137599D02*
X478000D01*
X475068Y136699D02*
X478000D01*
X475068Y135799D02*
X478000D01*
X475068Y134899D02*
X478000D01*
X475068Y133999D02*
X478000D01*
X475068Y133099D02*
X478000D01*
X475068Y132199D02*
X478000D01*
X475068Y131299D02*
X478000D01*
X475068Y130399D02*
X478000D01*
X475068Y129499D02*
X478000D01*
X475184Y128599D02*
X478000D01*
X475393Y127699D02*
X478000D01*
X475314Y126799D02*
X478000D01*
X474918Y125899D02*
X478000D01*
X473968Y124999D02*
X478000D01*
X425000Y124099D02*
X478000D01*
X425000Y123199D02*
X478000D01*
X425000Y122299D02*
X478000D01*
X425000Y121399D02*
X478000D01*
X425000Y120499D02*
X478000D01*
X425000Y119599D02*
X478000D01*
X425000Y118699D02*
X478000D01*
X425000Y117799D02*
X478000D01*
X425000Y116899D02*
X478000D01*
X425000Y115999D02*
X478000D01*
X425000Y115099D02*
X478000D01*
X425000Y114199D02*
X478000D01*
X425288Y113299D02*
X478000D01*
X425398Y112399D02*
X478000D01*
X425222Y111499D02*
X478000D01*
X424690Y110599D02*
X478000D01*
X423250Y109699D02*
X478000D01*
X306500Y108799D02*
X478000D01*
X306500Y107899D02*
X478000D01*
X306500Y106999D02*
X478000D01*
X306500Y106099D02*
X478000D01*
X306500Y105199D02*
X478000D01*
X306500Y104299D02*
X478000D01*
X306500Y103399D02*
X478000D01*
X476980Y224899D02*
X477996D01*
X477024Y231199D02*
X477974D01*
X306507Y237499D02*
X471048D01*
X425000Y124999D02*
X471032D01*
X421500Y226699D02*
X470337D01*
X420542Y229399D02*
X470202D01*
X306500Y236599D02*
X470198D01*
X425000Y125899D02*
X470082D01*
X449690Y175399D02*
X470068D01*
X449690Y174499D02*
X470068D01*
X449690Y173599D02*
X470068D01*
X449690Y172699D02*
X470068D01*
X449690Y171799D02*
X470068D01*
X449690Y170899D02*
X470068D01*
X449690Y169999D02*
X470068D01*
X449690Y169099D02*
X470068D01*
X449690Y168199D02*
X470068D01*
X449690Y167299D02*
X470068D01*
X449690Y166399D02*
X470068D01*
X465012Y165499D02*
X470068D01*
X465555Y164599D02*
X470068D01*
X465716Y163699D02*
X470068D01*
X465568Y162799D02*
X470068D01*
X465044Y161899D02*
X470068D01*
X463324Y160999D02*
X470068D01*
X449690Y160099D02*
X470068D01*
X449690Y159199D02*
X470068D01*
X449690Y158299D02*
X470068D01*
X449690Y157399D02*
X470068D01*
X449690Y156499D02*
X470068D01*
X449690Y155599D02*
X470068D01*
X449690Y154699D02*
X470068D01*
X449690Y153799D02*
X470068D01*
X449690Y152899D02*
X470068D01*
X449690Y151999D02*
X470068D01*
X449690Y151099D02*
X470068D01*
X449690Y150199D02*
X470068D01*
X449690Y149299D02*
X470068D01*
X464784Y148399D02*
X470068D01*
X465463Y147499D02*
X470068D01*
X465705Y146599D02*
X470068D01*
X465634Y145699D02*
X470068D01*
X465220Y144799D02*
X470068D01*
X464130Y143899D02*
X470068D01*
X447594Y142999D02*
X470068D01*
X446895Y142099D02*
X470068D01*
X446352Y141199D02*
X470068D01*
X444915Y140299D02*
X470068D01*
X443994Y139399D02*
X470068D01*
X443094Y138499D02*
X470068D01*
X442194Y137599D02*
X470068D01*
X441294Y136699D02*
X470068D01*
X440394Y135799D02*
X470068D01*
X439494Y134899D02*
X470068D01*
X438594Y133999D02*
X470068D01*
X437694Y133099D02*
X470068D01*
X436794Y132199D02*
X470068D01*
X435894Y131299D02*
X470068D01*
X434994Y130399D02*
X470068D01*
X434461Y129499D02*
X470068D01*
X449758Y176299D02*
X470056D01*
X433744Y128599D02*
X469816D01*
X425000Y126799D02*
X469686D01*
X425000Y127699D02*
X469607D01*
X421500Y225799D02*
X469376D01*
X306500Y230299D02*
X469301D01*
X306500Y235699D02*
X469299D01*
X450634Y177199D02*
X469266D01*
X421500Y224899D02*
X468820D01*
X306500Y231199D02*
X468776D01*
X306500Y234799D02*
X468775D01*
X421500Y223999D02*
X468512D01*
X306500Y232099D02*
X468491D01*
X306500Y233899D02*
X468491D01*
X421500Y222199D02*
X468472D01*
X421500Y223099D02*
X468401D01*
X306500Y232999D02*
X468400D01*
X421326Y221299D02*
X468370D01*
X451534Y178099D02*
X468366D01*
X405227Y220399D02*
X467470D01*
X452434Y178999D02*
X467466D01*
X404327Y219499D02*
X466570D01*
X453334Y179899D02*
X466566D01*
X403427Y218599D02*
X465670D01*
X454234Y180799D02*
X465666D01*
X402527Y217699D02*
X464770D01*
X455134Y181699D02*
X464766D01*
X401627Y216799D02*
X463870D01*
X456034Y182599D02*
X463866D01*
X400727Y215899D02*
X462970D01*
X456934Y183499D02*
X462966D01*
X449690Y160999D02*
X462708D01*
X399827Y214999D02*
X462070D01*
X457834Y184399D02*
X462066D01*
X448494Y143899D02*
X461902D01*
X449690Y148399D02*
X461247D01*
X398927Y214099D02*
X461170D01*
X449690Y165499D02*
X461019D01*
X449690Y161899D02*
X460988D01*
X449306Y144799D02*
X460812D01*
X458734Y185299D02*
X460612D01*
X449690Y147499D02*
X460568D01*
X449690Y164599D02*
X460476D01*
X449690Y162799D02*
X460464D01*
X449652Y145699D02*
X460398D01*
X449690Y146599D02*
X460326D01*
X449690Y163699D02*
X460316D01*
X398027Y213199D02*
X460270D01*
X397127Y212299D02*
X459370D01*
X396227Y211399D02*
X458470D01*
X395327Y210499D02*
X457570D01*
X394427Y209599D02*
X456670D01*
X393527Y208699D02*
X455770D01*
X392627Y207799D02*
X454870D01*
X391727Y206899D02*
X453970D01*
X390827Y205999D02*
X453070D01*
X406287Y205099D02*
X452170D01*
X407350Y204199D02*
X451270D01*
X407788Y203299D02*
X450370D01*
X407898Y202399D02*
X449470D01*
X407722Y201499D02*
X448570D01*
X407190Y200599D02*
X447670D01*
X405750Y199699D02*
X446770D01*
X404127Y198799D02*
X445870D01*
X403227Y197899D02*
X444970D01*
X443514Y147499D02*
X444684D01*
X425000Y146599D02*
X444123D01*
X423505Y196999D02*
X444070D01*
X424758Y196099D02*
X443170D01*
X425000Y145699D02*
X442851D01*
X425250Y195199D02*
X442270D01*
X425000Y144799D02*
X441816D01*
X425000Y143899D02*
X441381D01*
X425400Y194299D02*
X441370D01*
X425000Y142999D02*
X440523D01*
X425263Y193399D02*
X440470D01*
X425000Y147499D02*
X440065D01*
X425000Y159199D02*
X439789D01*
X425000Y158299D02*
X439789D01*
X425000Y157399D02*
X439789D01*
X425000Y156499D02*
X439789D01*
X425000Y155599D02*
X439789D01*
X425000Y154699D02*
X439789D01*
X425000Y153799D02*
X439789D01*
X425000Y152899D02*
X439789D01*
X425000Y151999D02*
X439770D01*
X425000Y142099D02*
X439623D01*
X425000Y192499D02*
X439570D01*
X439189Y160099D02*
X439389D01*
X425000Y148399D02*
X439267D01*
X425000Y151099D02*
X439181D01*
X425000Y149299D02*
X438938D01*
X425000Y150199D02*
X438913D01*
X425000Y141199D02*
X438723D01*
X425000Y191599D02*
X438670D01*
X425000Y140299D02*
X437823D01*
X425000Y190699D02*
X437770D01*
X425000Y139399D02*
X436923D01*
X425000Y189799D02*
X436870D01*
X425000Y188899D02*
X436157D01*
X425000Y138499D02*
X436023D01*
X425000Y187999D02*
X435983D01*
X425000Y187099D02*
X435983D01*
X425000Y186199D02*
X435983D01*
X425000Y185299D02*
X435983D01*
X425000Y184399D02*
X435983D01*
X425000Y183499D02*
X435983D01*
X425000Y182599D02*
X435983D01*
X425000Y181699D02*
X435983D01*
X425000Y180799D02*
X435983D01*
X425000Y179899D02*
X435983D01*
X425000Y178999D02*
X435983D01*
X425000Y178099D02*
X435983D01*
X425000Y177199D02*
X435983D01*
X425000Y176299D02*
X435983D01*
X425000Y175399D02*
X435983D01*
X425000Y174499D02*
X435983D01*
X425000Y173599D02*
X435983D01*
X425000Y172699D02*
X435983D01*
X425000Y171799D02*
X435983D01*
X425000Y170899D02*
X435983D01*
X425000Y169999D02*
X435983D01*
X425000Y169099D02*
X435983D01*
X425000Y168199D02*
X435983D01*
X425000Y167299D02*
X435983D01*
X425000Y166399D02*
X435983D01*
X425000Y165499D02*
X435983D01*
X425000Y160099D02*
X435874D01*
X425000Y164599D02*
X435499D01*
X425000Y137599D02*
X435123D01*
X425000Y160999D02*
X435019D01*
X425000Y163699D02*
X434859D01*
X425000Y161899D02*
X434663D01*
X425000Y162799D02*
X434615D01*
X425000Y136699D02*
X434223D01*
X425000Y135799D02*
X433323D01*
X425000Y134899D02*
X432423D01*
X425000Y133999D02*
X431523D01*
X425000Y133099D02*
X430086D01*
X425000Y128599D02*
X430015D01*
X425000Y132199D02*
X429328D01*
X425000Y129499D02*
X429298D01*
X425000Y131299D02*
X429019D01*
X425000Y130399D02*
X429010D01*
X306500Y109699D02*
X421750D01*
X402327Y196999D02*
X421495D01*
X306500Y110599D02*
X420310D01*
X401427Y196099D02*
X420242D01*
X397827Y192499D02*
X420000D01*
X396927Y191599D02*
X420000D01*
X396027Y190699D02*
X420000D01*
X395127Y189799D02*
X420000D01*
X394227Y188899D02*
X420000D01*
X393327Y187999D02*
X420000D01*
X392427Y187099D02*
X420000D01*
X391527Y186199D02*
X420000D01*
X390627Y185299D02*
X420000D01*
X389727Y184399D02*
X420000D01*
X388827Y183499D02*
X420000D01*
X387927Y182599D02*
X420000D01*
X387027Y181699D02*
X420000D01*
X386127Y180799D02*
X420000D01*
X385227Y179899D02*
X420000D01*
X384327Y178999D02*
X420000D01*
X383427Y178099D02*
X420000D01*
X382527Y177199D02*
X420000D01*
X381627Y176299D02*
X420000D01*
X380727Y175399D02*
X420000D01*
X379827Y174499D02*
X420000D01*
X378927Y173599D02*
X420000D01*
X378027Y172699D02*
X420000D01*
X377127Y171799D02*
X420000D01*
X376227Y170899D02*
X420000D01*
X375327Y169999D02*
X420000D01*
X374427Y169099D02*
X420000D01*
X373527Y168199D02*
X420000D01*
X396768Y167299D02*
X420000D01*
X397540Y166399D02*
X420000D01*
X397857Y165499D02*
X420000D01*
X397872Y164599D02*
X420000D01*
X397592Y163699D02*
X420000D01*
X396888Y162799D02*
X420000D01*
X387192Y161899D02*
X420000D01*
X387723Y160999D02*
X420000D01*
X387898Y160099D02*
X420000D01*
X387787Y159199D02*
X420000D01*
X387349Y158299D02*
X420000D01*
X386282Y157399D02*
X420000D01*
X376828Y156499D02*
X420000D01*
X375942Y155599D02*
X420000D01*
X375858Y154699D02*
X420000D01*
X375858Y153799D02*
X420000D01*
X375858Y152899D02*
X420000D01*
X375858Y151999D02*
X420000D01*
X375858Y151099D02*
X420000D01*
X375833Y150199D02*
X420000D01*
X375446Y149299D02*
X420000D01*
X374571Y148399D02*
X420000D01*
X373671Y147499D02*
X420000D01*
X372771Y146599D02*
X420000D01*
X371871Y145699D02*
X420000D01*
X370971Y144799D02*
X420000D01*
X369955Y143899D02*
X420000D01*
X306500Y142999D02*
X420000D01*
X306500Y142099D02*
X420000D01*
X306500Y141199D02*
X420000D01*
X306500Y140299D02*
X420000D01*
X306500Y139399D02*
X420000D01*
X306500Y138499D02*
X420000D01*
X306500Y137599D02*
X420000D01*
X306500Y136699D02*
X420000D01*
X306500Y135799D02*
X420000D01*
X306500Y134899D02*
X420000D01*
X306500Y133999D02*
X420000D01*
X306500Y133099D02*
X420000D01*
X306500Y132199D02*
X420000D01*
X306500Y131299D02*
X420000D01*
X306500Y130399D02*
X420000D01*
X306500Y129499D02*
X420000D01*
X306500Y128599D02*
X420000D01*
X306500Y127699D02*
X420000D01*
X306500Y126799D02*
X420000D01*
X306500Y125899D02*
X420000D01*
X306500Y124999D02*
X420000D01*
X306500Y124099D02*
X420000D01*
X306500Y123199D02*
X420000D01*
X306500Y122299D02*
X420000D01*
X306500Y121399D02*
X420000D01*
X306500Y120499D02*
X420000D01*
X306500Y119599D02*
X420000D01*
X306500Y118699D02*
X420000D01*
X306500Y117799D02*
X420000D01*
X306500Y116899D02*
X420000D01*
X306500Y115999D02*
X420000D01*
X306500Y115099D02*
X420000D01*
X306500Y114199D02*
X420000D01*
X306500Y111499D02*
X419778D01*
X400527Y195199D02*
X419750D01*
X398727Y193399D02*
X419737D01*
X306500Y113299D02*
X419712D01*
X306500Y112399D02*
X419602D01*
X399627Y194299D02*
X419600D01*
X407950Y229399D02*
X413458D01*
X409559Y221299D02*
X412674D01*
X409830Y228499D02*
X412585D01*
X410674Y227599D02*
X412500D01*
X411167Y226699D02*
X412500D01*
X411429Y225799D02*
X412500D01*
X411499Y224899D02*
X412500D01*
X411387Y223999D02*
X412500D01*
X411079Y223099D02*
X412500D01*
X410522Y222199D02*
X412500D01*
X397950Y229399D02*
X406050D01*
X399830Y228499D02*
X404170D01*
X389927Y205099D02*
X403713D01*
X400674Y227599D02*
X403326D01*
X401167Y226699D02*
X402833D01*
X389027Y204199D02*
X402650D01*
X401387Y223999D02*
X402613D01*
X401429Y225799D02*
X402571D01*
X401499Y224899D02*
X402501D01*
X401175Y223099D02*
X402270D01*
X388127Y203299D02*
X402212D01*
X387227Y202399D02*
X402042D01*
X386327Y201499D02*
X401170D01*
X385121Y200599D02*
X400270D01*
X383250Y199699D02*
X399370D01*
X371500Y198799D02*
X398470D01*
X371500Y197899D02*
X397570D01*
X371500Y196999D02*
X396670D01*
X387950Y229399D02*
X396050D01*
X371500Y196099D02*
X395770D01*
X371500Y195199D02*
X394870D01*
X389830Y228499D02*
X394170D01*
X371500Y194299D02*
X393970D01*
X390674Y227599D02*
X393326D01*
X372627Y167299D02*
X393232D01*
X386903Y162799D02*
X393112D01*
X371500Y193399D02*
X393070D01*
X391167Y226699D02*
X392833D01*
X391079Y223099D02*
X392735D01*
X391387Y223999D02*
X392613D01*
X391429Y225799D02*
X392571D01*
X391499Y224899D02*
X392501D01*
X371500Y192499D02*
X392170D01*
X390599Y222199D02*
X391870D01*
X371500Y191599D02*
X391270D01*
X371500Y190699D02*
X390370D01*
X371500Y189799D02*
X389470D01*
X371500Y188899D02*
X388570D01*
X371500Y187999D02*
X387670D01*
X371500Y187099D02*
X386770D01*
X377950Y229399D02*
X386050D01*
X371500Y186199D02*
X385870D01*
X371500Y185299D02*
X384970D01*
X379830Y228499D02*
X384170D01*
X371500Y184399D02*
X384070D01*
X377728Y157399D02*
X383718D01*
X380674Y227599D02*
X383326D01*
X371500Y183499D02*
X383170D01*
X381167Y226699D02*
X382833D01*
X381387Y223999D02*
X382613D01*
X381429Y225799D02*
X382571D01*
X381499Y224899D02*
X382501D01*
X381175Y223099D02*
X382270D01*
X371500Y182599D02*
X382270D01*
X375750Y199699D02*
X381750D01*
X371500Y181699D02*
X381370D01*
X371500Y180799D02*
X380470D01*
X377190Y200599D02*
X380310D01*
X377722Y201499D02*
X379778D01*
X378627Y203299D02*
X379625D01*
X377899Y202399D02*
X379602D01*
X371500Y179899D02*
X379570D01*
X306500Y220399D02*
X379295D01*
X306500Y219499D02*
X378670D01*
X371500Y178999D02*
X378670D01*
X306500Y218599D02*
X377770D01*
X371500Y178099D02*
X377770D01*
X306500Y217699D02*
X376870D01*
X371500Y177199D02*
X376870D01*
X306500Y229399D02*
X376050D01*
X306500Y216799D02*
X375970D01*
X371500Y176299D02*
X375970D01*
X306500Y215899D02*
X375070D01*
X371500Y175399D02*
X375070D01*
X306500Y221299D02*
X374441D01*
X371500Y199699D02*
X374250D01*
X306500Y214999D02*
X374170D01*
X371500Y174499D02*
X374170D01*
X306500Y228499D02*
X374170D01*
X371727Y166399D02*
X373949D01*
X306500Y222199D02*
X373478D01*
X306500Y227599D02*
X373326D01*
X306500Y214099D02*
X373270D01*
X371500Y173599D02*
X373270D01*
X370827Y165499D02*
X373049D01*
X306500Y223099D02*
X372921D01*
X306500Y226699D02*
X372833D01*
X371500Y200599D02*
X372810D01*
X306500Y223999D02*
X372613D01*
X306500Y225799D02*
X372571D01*
X306500Y224899D02*
X372501D01*
X306500Y213199D02*
X372370D01*
X371631Y172699D02*
X372370D01*
X370085Y164599D02*
X372149D01*
X306500Y212299D02*
X371470D01*
X370084Y163699D02*
X371249D01*
X306500Y211399D02*
X370570D01*
X306500Y210499D02*
X369670D01*
X306500Y209599D02*
X368770D01*
X306500Y208699D02*
X367899D01*
X306500Y207799D02*
X367522D01*
X306500Y206899D02*
X367500D01*
X306500Y205999D02*
X367500D01*
X306500Y205099D02*
X367500D01*
X306500Y204199D02*
X367500D01*
X306500Y203299D02*
X367500D01*
X306500Y202399D02*
X367500D01*
X306500Y201499D02*
X367500D01*
X306500Y200599D02*
X367500D01*
X306500Y199699D02*
X367500D01*
X306500Y198799D02*
X367500D01*
X306500Y197899D02*
X367500D01*
X306500Y196999D02*
X367500D01*
X306500Y196099D02*
X367500D01*
X306500Y195199D02*
X367500D01*
X323331Y194299D02*
X367500D01*
X324949Y193399D02*
X367500D01*
X325743Y192499D02*
X367500D01*
X326206Y191599D02*
X367500D01*
X326445Y190699D02*
X367500D01*
X326496Y189799D02*
X367500D01*
X326363Y188899D02*
X367500D01*
X326031Y187999D02*
X367500D01*
X325440Y187099D02*
X367500D01*
X324408Y186199D02*
X367500D01*
X306500Y185299D02*
X367500D01*
X322950Y184399D02*
X367500D01*
X324830Y183499D02*
X367500D01*
X325674Y182599D02*
X367500D01*
X326167Y181699D02*
X367500D01*
X326429Y180799D02*
X367500D01*
X326499Y179899D02*
X367500D01*
X326387Y178999D02*
X367500D01*
X326079Y178099D02*
X367500D01*
X326102Y177199D02*
X367500D01*
X336602Y176299D02*
X367500D01*
X337502Y175399D02*
X367500D01*
X338402Y174499D02*
X367500D01*
X339302Y173599D02*
X367500D01*
X340202Y172699D02*
X367026D01*
X341102Y171799D02*
X366126D01*
X342002Y170899D02*
X365226D01*
X342902Y169999D02*
X364326D01*
X343802Y169099D02*
X363426D01*
X344702Y168199D02*
X362526D01*
X345602Y167299D02*
X360732D01*
X351002Y161899D02*
X360500D01*
X351902Y160999D02*
X360500D01*
X352802Y160099D02*
X360500D01*
X353702Y159199D02*
X360500D01*
X354602Y158299D02*
X360500D01*
X355502Y157399D02*
X360500D01*
X356402Y156499D02*
X360500D01*
X350102Y162799D02*
X360489D01*
X357302Y155599D02*
X360080D01*
X346502Y166399D02*
X359960D01*
X349202Y163699D02*
X359908D01*
X358202Y154699D02*
X359685D01*
X347402Y165499D02*
X359643D01*
X348302Y164599D02*
X359628D01*
X306500Y143899D02*
X355408D01*
X343555Y144799D02*
X354392D01*
X344773Y145699D02*
X353492D01*
X345256Y146599D02*
X352592D01*
X345400Y147499D02*
X351692D01*
X345257Y148399D02*
X350792D01*
X344775Y149299D02*
X349892D01*
X343562Y150199D02*
X348992D01*
X326364Y151099D02*
X348092D01*
X326032Y151999D02*
X347192D01*
X326188Y152899D02*
X346232D01*
X333555Y144799D02*
X341445D01*
X333562Y150199D02*
X341438D01*
X306500Y144799D02*
X331445D01*
X326496Y150199D02*
X331438D01*
X323322Y145699D02*
X330227D01*
X326445Y149299D02*
X330225D01*
X324946Y146599D02*
X329744D01*
X326205Y148399D02*
X329743D01*
X325741Y147499D02*
X329600D01*
X312950Y184399D02*
X321050D01*
X313322Y145699D02*
X320678D01*
X315751Y194299D02*
X320669D01*
X316268Y186199D02*
X319592D01*
X314830Y183499D02*
X319170D01*
X314946Y146599D02*
X319054D01*
X316446Y193399D02*
X319051D01*
X316500Y187099D02*
X318560D01*
X315674Y182599D02*
X318326D01*
X315741Y147499D02*
X318259D01*
X316500Y192499D02*
X318257D01*
X316500Y187999D02*
X317969D01*
X316032Y151999D02*
X317968D01*
X316167Y181699D02*
X317833D01*
X316730Y178099D02*
X317825D01*
X315937Y152899D02*
X317812D01*
X316205Y148399D02*
X317795D01*
X316500Y191599D02*
X317794D01*
X316500Y188899D02*
X317637D01*
X316364Y151099D02*
X317636D01*
X316387Y178999D02*
X317613D01*
X316429Y180799D02*
X317571D01*
X316445Y149299D02*
X317555D01*
X316500Y190699D02*
X317555D01*
X316500Y189799D02*
X317504D01*
X316496Y150199D02*
X317504D01*
X316499Y179899D02*
X317501D01*
X306500Y154699D02*
X314298D01*
X306500Y164599D02*
X314295D01*
X312110Y174499D02*
X314271D01*
X306500Y175399D02*
X313773D01*
X306500Y165499D02*
X313673D01*
X312937Y155599D02*
X313552D01*
X306500Y174499D02*
X311890D01*
X306500Y155599D02*
X311063D01*
X306500Y184399D02*
X311050D01*
X306500Y145699D02*
X310678D01*
X306500Y153799D02*
X309587D01*
X306500Y176299D02*
X309441D01*
X306500Y163699D02*
X309437D01*
X306500Y166399D02*
X309302D01*
X306500Y173599D02*
X309298D01*
X306500Y156499D02*
X309173D01*
X306500Y183499D02*
X309170D01*
X306500Y146599D02*
X309054D01*
X306500Y152899D02*
X308558D01*
X306500Y177199D02*
X308478D01*
X306500Y162799D02*
X308476D01*
X306500Y167299D02*
X308401D01*
X306500Y172699D02*
X308399D01*
X306500Y157399D02*
X308328D01*
X306500Y182599D02*
X308326D01*
X306500Y147499D02*
X308259D01*
X306500Y194299D02*
X308249D01*
X306500Y151999D02*
X307968D01*
X306500Y178099D02*
X307921D01*
X306500Y161899D02*
X307920D01*
X306500Y168199D02*
X307876D01*
X306500Y171799D02*
X307875D01*
X306500Y158299D02*
X307834D01*
X306500Y181699D02*
X307833D01*
X306500Y148399D02*
X307795D01*
X306500Y186199D02*
X307732D01*
X306500Y151099D02*
X307636D01*
X306500Y178999D02*
X307613D01*
X306500Y160999D02*
X307612D01*
X306500Y169099D02*
X307591D01*
X306500Y170899D02*
X307591D01*
X306500Y159199D02*
X307572D01*
X306500Y180799D02*
X307571D01*
X306500Y149299D02*
X307555D01*
X306500Y193399D02*
X307554D01*
X306500Y150199D02*
X307504D01*
X306500Y179899D02*
X307501D01*
X306500Y160099D02*
X307501D01*
X306500Y169999D02*
X307500D01*
X306512Y187099D02*
X307488D01*
X102000Y236999D02*
X299500D01*
X102000Y236099D02*
X299500D01*
X102000Y235199D02*
X299500D01*
X291331Y234299D02*
X299500D01*
X292949Y233399D02*
X299500D01*
X293743Y232499D02*
X299500D01*
X294206Y231599D02*
X299500D01*
X294445Y230699D02*
X299500D01*
X294496Y229799D02*
X299500D01*
X294363Y228899D02*
X299500D01*
X294031Y227999D02*
X299500D01*
X293440Y227099D02*
X299500D01*
X292408Y226199D02*
X299500D01*
X248127Y225299D02*
X299500D01*
X247227Y224399D02*
X299500D01*
X246327Y223499D02*
X299500D01*
X245427Y222599D02*
X299500D01*
X244527Y221699D02*
X299500D01*
X243627Y220799D02*
X299500D01*
X242727Y219899D02*
X299500D01*
X241827Y218999D02*
X299500D01*
X240927Y218099D02*
X299500D01*
X240027Y217199D02*
X299500D01*
X239127Y216299D02*
X299500D01*
X238227Y215399D02*
X299500D01*
X237327Y214499D02*
X299500D01*
X236427Y213599D02*
X299500D01*
X235527Y212699D02*
X299500D01*
X234627Y211799D02*
X299500D01*
X233669Y210899D02*
X299500D01*
X136843Y209999D02*
X299500D01*
X102000Y209099D02*
X299500D01*
X102000Y208199D02*
X299500D01*
X102000Y207299D02*
X299500D01*
X102000Y206399D02*
X299500D01*
X102000Y205499D02*
X299500D01*
X102000Y204599D02*
X299500D01*
X102000Y203699D02*
X299500D01*
X102000Y202799D02*
X299500D01*
X102000Y201899D02*
X299500D01*
X102000Y200999D02*
X299500D01*
X102000Y200099D02*
X299500D01*
X102000Y199199D02*
X299500D01*
X102000Y198299D02*
X299500D01*
X102000Y197399D02*
X299500D01*
X102000Y196499D02*
X299500D01*
X102000Y195599D02*
X299500D01*
X102000Y194699D02*
X299500D01*
X292413Y193799D02*
X299500D01*
X293442Y192899D02*
X299500D01*
X294032Y191999D02*
X299500D01*
X294364Y191099D02*
X299500D01*
X294496Y190199D02*
X299500D01*
X294445Y189299D02*
X299500D01*
X294205Y188399D02*
X299500D01*
X293741Y187499D02*
X299500D01*
X292946Y186599D02*
X299500D01*
X291322Y185699D02*
X299500D01*
X102000Y184799D02*
X299500D01*
X292247Y183899D02*
X299500D01*
X293355Y182999D02*
X299500D01*
X293981Y182099D02*
X299500D01*
X294337Y181199D02*
X299500D01*
X294490Y180299D02*
X299500D01*
X294460Y179399D02*
X299500D01*
X294242Y178499D02*
X299500D01*
X293806Y177599D02*
X299500D01*
X293058Y176699D02*
X299500D01*
X291612Y175799D02*
X299500D01*
X287759Y174899D02*
X299500D01*
X292064Y173999D02*
X299500D01*
X293263Y173099D02*
X299500D01*
X293926Y172199D02*
X299500D01*
X294309Y171299D02*
X299500D01*
X294482Y170399D02*
X299500D01*
X294472Y169499D02*
X299500D01*
X294276Y168599D02*
X299500D01*
X293867Y167699D02*
X299500D01*
X293163Y166799D02*
X299500D01*
X291852Y165899D02*
X299500D01*
X287828Y164999D02*
X299500D01*
X291858Y164099D02*
X299500D01*
X293165Y163199D02*
X299500D01*
X293869Y162299D02*
X299500D01*
X294277Y161399D02*
X299500D01*
X294472Y160499D02*
X299500D01*
X294482Y159599D02*
X299500D01*
X294308Y158699D02*
X299500D01*
X293925Y157799D02*
X299500D01*
X293261Y156899D02*
X299500D01*
X292059Y155999D02*
X299500D01*
X287927Y155099D02*
X299500D01*
X291619Y154199D02*
X299500D01*
X293061Y153299D02*
X299500D01*
X293807Y152399D02*
X299500D01*
X294243Y151499D02*
X299500D01*
X294460Y150599D02*
X299500D01*
X294490Y149699D02*
X299500D01*
X294337Y148799D02*
X299500D01*
X293979Y147899D02*
X299500D01*
X293353Y146999D02*
X299500D01*
X292243Y146099D02*
X299500D01*
X258527Y145199D02*
X299500D01*
X257627Y144299D02*
X299500D01*
X256698Y143399D02*
X299500D01*
X211468Y142499D02*
X299500D01*
X199113Y141599D02*
X299500D01*
X200013Y140699D02*
X299500D01*
X200913Y139799D02*
X299500D01*
X201813Y138899D02*
X299500D01*
X202713Y137999D02*
X299500D01*
X203613Y137099D02*
X299500D01*
X204513Y136199D02*
X299500D01*
X205413Y135299D02*
X299500D01*
X206313Y134399D02*
X299500D01*
X207213Y133499D02*
X299500D01*
X208113Y132599D02*
X299500D01*
X209013Y131699D02*
X299500D01*
X209913Y130799D02*
X299500D01*
X210813Y129899D02*
X299500D01*
X211713Y128999D02*
X299500D01*
X212613Y128099D02*
X299500D01*
X213513Y127199D02*
X299500D01*
X214413Y126299D02*
X299500D01*
X215313Y125399D02*
X299500D01*
X216213Y124499D02*
X299500D01*
X217113Y123599D02*
X299500D01*
X218013Y122699D02*
X299500D01*
X218913Y121799D02*
X299500D01*
X219813Y120899D02*
X299500D01*
X220713Y119999D02*
X299500D01*
X221588Y119099D02*
X299500D01*
X221975Y118199D02*
X299500D01*
X222000Y117299D02*
X299500D01*
X222000Y116399D02*
X299500D01*
X222000Y115499D02*
X299500D01*
X222000Y114599D02*
X299500D01*
X292563Y113699D02*
X299500D01*
X293524Y112799D02*
X299500D01*
X294080Y111899D02*
X299500D01*
X294388Y110999D02*
X299500D01*
X294499Y110099D02*
X299500D01*
X294428Y109199D02*
X299500D01*
X294166Y108299D02*
X299500D01*
X293672Y107399D02*
X299500D01*
X292827Y106499D02*
X299500D01*
X290937Y105599D02*
X299500D01*
X102000Y104699D02*
X299500D01*
X102000Y103799D02*
X299500D01*
X102000Y102899D02*
X299500D01*
X283535Y105599D02*
X289063D01*
X283746Y185699D02*
X288678D01*
X283751Y234299D02*
X288669D01*
X288020Y154199D02*
X288381D01*
X282243Y146099D02*
X287757D01*
X282247Y183899D02*
X287753D01*
X284268Y226199D02*
X287592D01*
X284270Y193799D02*
X287587D01*
X284327Y113699D02*
X287437D01*
X284414Y106499D02*
X287173D01*
X284445Y186599D02*
X287054D01*
X284446Y233399D02*
X287051D01*
X283353Y146999D02*
X286647D01*
X283355Y182999D02*
X286645D01*
X284500Y227099D02*
X286560D01*
X284500Y192899D02*
X286558D01*
X284500Y112799D02*
X286476D01*
X284500Y107399D02*
X286328D01*
X284500Y187499D02*
X286259D01*
X284500Y232499D02*
X286257D01*
X283841Y152399D02*
X286188D01*
X283979Y147899D02*
X286021D01*
X283981Y182099D02*
X286019D01*
X284500Y227999D02*
X285969D01*
X284500Y191999D02*
X285968D01*
X284500Y111899D02*
X285920D01*
X284500Y108299D02*
X285834D01*
X284500Y188399D02*
X285795D01*
X284500Y231599D02*
X285794D01*
X284243Y151499D02*
X285757D01*
X284337Y148799D02*
X285663D01*
X284337Y181199D02*
X285663D01*
X284500Y228899D02*
X285637D01*
X284500Y191099D02*
X285636D01*
X284242Y178499D02*
X285625D01*
X284500Y110999D02*
X285612D01*
X284500Y109199D02*
X285572D01*
X284500Y189299D02*
X285555D01*
X284500Y230699D02*
X285555D01*
X284460Y179399D02*
X285540D01*
X284460Y150599D02*
X285540D01*
X284490Y149699D02*
X285510D01*
X284490Y180299D02*
X285510D01*
X284500Y229799D02*
X285504D01*
X284500Y190199D02*
X285504D01*
X284500Y110099D02*
X285501D01*
X259427Y146099D02*
X277757D01*
X102000Y183899D02*
X277753D01*
X260327Y146999D02*
X276647D01*
X102000Y182999D02*
X276645D01*
X260937Y105599D02*
X276465D01*
X102000Y185699D02*
X276254D01*
X263751Y234299D02*
X276249D01*
X102000Y177599D02*
X276160D01*
X265727Y152399D02*
X276159D01*
X261227Y147899D02*
X276021D01*
X102000Y182099D02*
X276019D01*
X102000Y178499D02*
X275758D01*
X264827Y151499D02*
X275757D01*
X264268Y226199D02*
X275732D01*
X102000Y193799D02*
X275730D01*
X262563Y113699D02*
X275673D01*
X262127Y148799D02*
X275663D01*
X102000Y181199D02*
X275663D01*
X262827Y106499D02*
X275586D01*
X102000Y186599D02*
X275555D01*
X264446Y233399D02*
X275554D01*
X102000Y179399D02*
X275540D01*
X263927Y150599D02*
X275540D01*
X263027Y149699D02*
X275510D01*
X102000Y180299D02*
X275510D01*
X264500Y232499D02*
X275500D01*
X264500Y231599D02*
X275500D01*
X264500Y230699D02*
X275500D01*
X264500Y229799D02*
X275500D01*
X264500Y228899D02*
X275500D01*
X264500Y227999D02*
X275500D01*
X264500Y227099D02*
X275500D01*
X102000Y192899D02*
X275500D01*
X102000Y191999D02*
X275500D01*
X102000Y191099D02*
X275500D01*
X102000Y190199D02*
X275500D01*
X102000Y189299D02*
X275500D01*
X102000Y188399D02*
X275500D01*
X102000Y187499D02*
X275500D01*
X263524Y112799D02*
X275500D01*
X264080Y111899D02*
X275500D01*
X264388Y110999D02*
X275500D01*
X264499Y110099D02*
X275500D01*
X264428Y109199D02*
X275500D01*
X264166Y108299D02*
X275500D01*
X263672Y107399D02*
X275500D01*
X102000Y176699D02*
X272750D01*
X102000Y175799D02*
X271776D01*
X102000Y174899D02*
X270876D01*
X102000Y173999D02*
X269976D01*
X102000Y173099D02*
X269076D01*
X102000Y172199D02*
X268176D01*
X102000Y171299D02*
X267276D01*
X102000Y170399D02*
X266376D01*
X214226Y169499D02*
X265476D01*
X217322Y168599D02*
X264576D01*
X218222Y167699D02*
X263676D01*
X219122Y166799D02*
X262776D01*
X219922Y165899D02*
X261876D01*
X220182Y164999D02*
X260976D01*
X220184Y164099D02*
X260076D01*
X220215Y163199D02*
X259176D01*
X250937Y105599D02*
X259063D01*
X221051Y162299D02*
X258276D01*
X252563Y113699D02*
X257437D01*
X221951Y161399D02*
X257376D01*
X252827Y106499D02*
X257173D01*
X253524Y112799D02*
X256476D01*
X222851Y160499D02*
X256476D01*
X253672Y107399D02*
X256328D01*
X251331Y234299D02*
X256249D01*
X192329Y148799D02*
X255955D01*
X254080Y111899D02*
X255920D01*
X254166Y108299D02*
X255834D01*
X252408Y226199D02*
X255732D01*
X254388Y110999D02*
X255612D01*
X223751Y159599D02*
X255576D01*
X254428Y109199D02*
X255572D01*
X210088Y147899D02*
X255570D01*
X252949Y233399D02*
X255554D01*
X254499Y110099D02*
X255501D01*
X253743Y232499D02*
X255500D01*
X254206Y231599D02*
X255500D01*
X254445Y230699D02*
X255500D01*
X254496Y229799D02*
X255500D01*
X254363Y228899D02*
X255500D01*
X254031Y227999D02*
X255500D01*
X253440Y227099D02*
X255500D01*
X224651Y158699D02*
X254676D01*
X225551Y157799D02*
X253776D01*
X226451Y156899D02*
X252876D01*
X240937Y105599D02*
X249063D01*
X241331Y234299D02*
X248669D01*
X242563Y113699D02*
X247437D01*
X242827Y106499D02*
X247173D01*
X242949Y233399D02*
X247051D01*
X243524Y112799D02*
X246476D01*
X243672Y107399D02*
X246328D01*
X243743Y232499D02*
X246257D01*
X244080Y111899D02*
X245920D01*
X244166Y108299D02*
X245834D01*
X244206Y231599D02*
X245794D01*
X244363Y228899D02*
X245637D01*
X244388Y110999D02*
X245612D01*
X244428Y109199D02*
X245572D01*
X244445Y230699D02*
X245555D01*
X244496Y229799D02*
X245504D01*
X244499Y110099D02*
X245501D01*
X244208Y227999D02*
X245170D01*
X102000Y225299D02*
X242298D01*
X102000Y224399D02*
X241570D01*
X102000Y223499D02*
X240670D01*
X102000Y222599D02*
X239770D01*
X230937Y105599D02*
X239063D01*
X102000Y221699D02*
X238870D01*
X231331Y234299D02*
X238669D01*
X102000Y220799D02*
X237970D01*
X232408Y226199D02*
X237592D01*
X232563Y113699D02*
X237437D01*
X232827Y106499D02*
X237173D01*
X102000Y219899D02*
X237070D01*
X232949Y233399D02*
X237051D01*
X233440Y227099D02*
X236560D01*
X233524Y112799D02*
X236476D01*
X233672Y107399D02*
X236328D01*
X233743Y232499D02*
X236257D01*
X102000Y218999D02*
X236170D01*
X234031Y227999D02*
X235969D01*
X234080Y111899D02*
X235920D01*
X234166Y108299D02*
X235834D01*
X234206Y231599D02*
X235794D01*
X234363Y228899D02*
X235637D01*
X234388Y110999D02*
X235612D01*
X234428Y109199D02*
X235572D01*
X234445Y230699D02*
X235555D01*
X234496Y229799D02*
X235504D01*
X234499Y110099D02*
X235501D01*
X102000Y218099D02*
X235270D01*
X102000Y217199D02*
X234370D01*
X102000Y216299D02*
X233470D01*
X136135Y215399D02*
X232570D01*
X220937Y105599D02*
X229063D01*
X221331Y234299D02*
X228669D01*
X222408Y226199D02*
X227592D01*
X222563Y113699D02*
X227437D01*
X222827Y106499D02*
X227173D01*
X222949Y233399D02*
X227051D01*
X223440Y227099D02*
X226560D01*
X223524Y112799D02*
X226476D01*
X223672Y107399D02*
X226328D01*
X223743Y232499D02*
X226257D01*
X224031Y227999D02*
X225969D01*
X224080Y111899D02*
X225920D01*
X224166Y108299D02*
X225834D01*
X224206Y231599D02*
X225794D01*
X224363Y228899D02*
X225637D01*
X224388Y110999D02*
X225612D01*
X224428Y109199D02*
X225572D01*
X224445Y230699D02*
X225555D01*
X224496Y229799D02*
X225504D01*
X224499Y110099D02*
X225501D01*
X192500Y149699D02*
X223473D01*
X192500Y150599D02*
X222573D01*
X192500Y151499D02*
X221673D01*
X192500Y152399D02*
X220773D01*
X192500Y153299D02*
X219873D01*
X210937Y105599D02*
X219063D01*
X192500Y154199D02*
X218973D01*
X211331Y234299D02*
X218669D01*
X192500Y155099D02*
X218073D01*
X102000Y116399D02*
X218000D01*
X102000Y115499D02*
X218000D01*
X102000Y114599D02*
X218000D01*
X102000Y117299D02*
X217756D01*
X212408Y226199D02*
X217592D01*
X212563Y113699D02*
X217437D01*
X212827Y106499D02*
X217173D01*
X192415Y155999D02*
X217173D01*
X212949Y233399D02*
X217051D01*
X102000Y118199D02*
X216856D01*
X213440Y227099D02*
X216560D01*
X213524Y112799D02*
X216476D01*
X213672Y107399D02*
X216328D01*
X191542Y156899D02*
X216273D01*
X213743Y232499D02*
X216257D01*
X214031Y227999D02*
X215969D01*
X102000Y119099D02*
X215956D01*
X214080Y111899D02*
X215920D01*
X214166Y108299D02*
X215834D01*
X214206Y231599D02*
X215794D01*
X214363Y228899D02*
X215637D01*
X214388Y110999D02*
X215612D01*
X214428Y109199D02*
X215572D01*
X214445Y230699D02*
X215555D01*
X214496Y229799D02*
X215504D01*
X214499Y110099D02*
X215501D01*
X102000Y157799D02*
X215373D01*
X102000Y119999D02*
X215056D01*
X102000Y158699D02*
X214473D01*
X102000Y120899D02*
X214156D01*
X102000Y159599D02*
X213715D01*
X102000Y160499D02*
X213500D01*
X130242Y161399D02*
X213256D01*
X102000Y121799D02*
X213256D01*
X132171Y162299D02*
X212440D01*
X102000Y122699D02*
X212356D01*
X133022Y163199D02*
X212102D01*
X133520Y164099D02*
X212040D01*
X102000Y123599D02*
X211456D01*
X133784Y164999D02*
X210567D01*
X102000Y124499D02*
X210556D01*
X131937Y169499D02*
X210495D01*
X192813Y147899D02*
X209912D01*
X133857Y165899D02*
X209809D01*
X132891Y168599D02*
X209779D01*
X102000Y125399D02*
X209656D01*
X133749Y166799D02*
X209500D01*
X133443Y167699D02*
X209491D01*
X200937Y105599D02*
X209063D01*
X102000Y126299D02*
X208756D01*
X201331Y234299D02*
X208669D01*
X198213Y142499D02*
X208532D01*
X193713Y146999D02*
X207899D01*
X102000Y127199D02*
X207856D01*
X202408Y226199D02*
X207592D01*
X197313Y143399D02*
X207582D01*
X202563Y113699D02*
X207437D01*
X194613Y146099D02*
X207316D01*
X196413Y144299D02*
X207186D01*
X202827Y106499D02*
X207173D01*
X195513Y145199D02*
X207107D01*
X202949Y233399D02*
X207051D01*
X102000Y128099D02*
X206956D01*
X203440Y227099D02*
X206560D01*
X203524Y112799D02*
X206476D01*
X203672Y107399D02*
X206328D01*
X203743Y232499D02*
X206257D01*
X102000Y128999D02*
X206056D01*
X204031Y227999D02*
X205969D01*
X204080Y111899D02*
X205920D01*
X204166Y108299D02*
X205834D01*
X204206Y231599D02*
X205794D01*
X204363Y228899D02*
X205637D01*
X204388Y110999D02*
X205612D01*
X204428Y109199D02*
X205572D01*
X204445Y230699D02*
X205555D01*
X204496Y229799D02*
X205504D01*
X204499Y110099D02*
X205501D01*
X102000Y129899D02*
X205156D01*
X102000Y130799D02*
X204256D01*
X102000Y131699D02*
X203356D01*
X102000Y132599D02*
X202456D01*
X102000Y133499D02*
X201556D01*
X102000Y134399D02*
X200656D01*
X102000Y135299D02*
X199756D01*
X190937Y105599D02*
X199063D01*
X102000Y136199D02*
X198856D01*
X191331Y234299D02*
X198669D01*
X102000Y137099D02*
X197956D01*
X192408Y226199D02*
X197592D01*
X192563Y113699D02*
X197437D01*
X192827Y106499D02*
X197173D01*
X130999Y137999D02*
X197056D01*
X192949Y233399D02*
X197051D01*
X193440Y227099D02*
X196560D01*
X193524Y112799D02*
X196476D01*
X193672Y107399D02*
X196328D01*
X193743Y232499D02*
X196257D01*
X132428Y138899D02*
X196156D01*
X194031Y227999D02*
X195969D01*
X194080Y111899D02*
X195920D01*
X194166Y108299D02*
X195834D01*
X194206Y231599D02*
X195794D01*
X194363Y228899D02*
X195637D01*
X194388Y110999D02*
X195612D01*
X194428Y109199D02*
X195572D01*
X194445Y230699D02*
X195555D01*
X194496Y229799D02*
X195504D01*
X194499Y110099D02*
X195501D01*
X133171Y139799D02*
X195256D01*
X133604Y140699D02*
X194356D01*
X133819Y141599D02*
X193456D01*
X133848Y142499D02*
X192556D01*
X133693Y143399D02*
X191656D01*
X133333Y144299D02*
X190756D01*
X132704Y145199D02*
X189856D01*
X180937Y105599D02*
X189063D01*
X131586Y146099D02*
X188956D01*
X181331Y234299D02*
X188669D01*
X102000Y146999D02*
X188056D01*
X182408Y226199D02*
X187592D01*
X182563Y113699D02*
X187437D01*
X182827Y106499D02*
X187173D01*
X154320Y147899D02*
X187149D01*
X182949Y233399D02*
X187051D01*
X183440Y227099D02*
X186560D01*
X183524Y112799D02*
X186476D01*
X183672Y107399D02*
X186328D01*
X183743Y232499D02*
X186257D01*
X184031Y227999D02*
X185969D01*
X184080Y111899D02*
X185920D01*
X184166Y108299D02*
X185834D01*
X184206Y231599D02*
X185794D01*
X184363Y228899D02*
X185637D01*
X184388Y110999D02*
X185612D01*
X184428Y109199D02*
X185572D01*
X184445Y230699D02*
X185555D01*
X184496Y229799D02*
X185504D01*
X184499Y110099D02*
X185501D01*
X173542Y156899D02*
X184458D01*
X174326Y148799D02*
X183674D01*
X174415Y155999D02*
X183585D01*
X174500Y155099D02*
X183500D01*
X174500Y154199D02*
X183500D01*
X174500Y153299D02*
X183500D01*
X174500Y152399D02*
X183500D01*
X174500Y151499D02*
X183500D01*
X174500Y150599D02*
X183500D01*
X174500Y149699D02*
X183500D01*
X173535Y105599D02*
X179063D01*
X171331Y234299D02*
X178669D01*
X172408Y226199D02*
X177592D01*
X174327Y113699D02*
X177437D01*
X174414Y106499D02*
X177173D01*
X172949Y233399D02*
X177051D01*
X173440Y227099D02*
X176560D01*
X174500Y112799D02*
X176476D01*
X174500Y107399D02*
X176328D01*
X173743Y232499D02*
X176257D01*
X174031Y227999D02*
X175969D01*
X174500Y111899D02*
X175920D01*
X174500Y108299D02*
X175834D01*
X174206Y231599D02*
X175794D01*
X174363Y228899D02*
X175637D01*
X174500Y110999D02*
X175612D01*
X174500Y109199D02*
X175572D01*
X174445Y230699D02*
X175555D01*
X174496Y229799D02*
X175504D01*
X174500Y110099D02*
X175501D01*
X151331Y234299D02*
X168669D01*
X152408Y226199D02*
X167592D01*
X152949Y233399D02*
X167051D01*
X153440Y227099D02*
X166560D01*
X150937Y105599D02*
X166465D01*
X102000Y156899D02*
X166458D01*
X153743Y232499D02*
X166257D01*
X154031Y227999D02*
X165969D01*
X154206Y231599D02*
X165794D01*
X155300Y148799D02*
X165674D01*
X152563Y113699D02*
X165673D01*
X154363Y228899D02*
X165637D01*
X152827Y106499D02*
X165586D01*
X155247Y155999D02*
X165585D01*
X154445Y230699D02*
X165555D01*
X154496Y229799D02*
X165504D01*
X155400Y155099D02*
X165500D01*
X155400Y154199D02*
X165500D01*
X155400Y153299D02*
X165500D01*
X155400Y152399D02*
X165500D01*
X155400Y151499D02*
X165500D01*
X155400Y150599D02*
X165500D01*
X155400Y149699D02*
X165500D01*
X153524Y112799D02*
X165500D01*
X154080Y111899D02*
X165500D01*
X154388Y110999D02*
X165500D01*
X154499Y110099D02*
X165500D01*
X154428Y109199D02*
X165500D01*
X154166Y108299D02*
X165500D01*
X153672Y107399D02*
X165500D01*
X140937Y105599D02*
X149063D01*
X141331Y234299D02*
X148669D01*
X142408Y226199D02*
X147592D01*
X102000Y147899D02*
X147481D01*
X142563Y113699D02*
X147437D01*
X142827Y106499D02*
X147173D01*
X142949Y233399D02*
X147051D01*
X143440Y227099D02*
X146560D01*
X102000Y155999D02*
X146553D01*
X102000Y148799D02*
X146501D01*
X143524Y112799D02*
X146476D01*
X102000Y155099D02*
X146400D01*
X102000Y154199D02*
X146400D01*
X102000Y153299D02*
X146400D01*
X102000Y152399D02*
X146400D01*
X102000Y151499D02*
X146400D01*
X102000Y150599D02*
X146400D01*
X102000Y149699D02*
X146400D01*
X143672Y107399D02*
X146328D01*
X143743Y232499D02*
X146257D01*
X144031Y227999D02*
X145969D01*
X144080Y111899D02*
X145920D01*
X144166Y108299D02*
X145834D01*
X144206Y231599D02*
X145794D01*
X144363Y228899D02*
X145637D01*
X144388Y110999D02*
X145612D01*
X144428Y109199D02*
X145572D01*
X144445Y230699D02*
X145555D01*
X144496Y229799D02*
X145504D01*
X144499Y110099D02*
X145501D01*
X130937Y105599D02*
X139063D01*
X131331Y234299D02*
X138669D01*
X132408Y226199D02*
X137592D01*
X132563Y113699D02*
X137437D01*
X132827Y106499D02*
X137173D01*
X132949Y233399D02*
X137051D01*
X133440Y227099D02*
X136560D01*
X133524Y112799D02*
X136476D01*
X133672Y107399D02*
X136328D01*
X133743Y232499D02*
X136257D01*
X134031Y227999D02*
X135969D01*
X134080Y111899D02*
X135920D01*
X134166Y108299D02*
X135834D01*
X134206Y231599D02*
X135794D01*
X134363Y228899D02*
X135637D01*
X134388Y110999D02*
X135612D01*
X134428Y109199D02*
X135572D01*
X134445Y230699D02*
X135555D01*
X134496Y229799D02*
X135504D01*
X134499Y110099D02*
X135501D01*
X102000Y215399D02*
X134865D01*
X102000Y209999D02*
X134157D01*
X102000Y214499D02*
X133335D01*
X102000Y210899D02*
X133129D01*
X102000Y213599D02*
X132789D01*
X102000Y211799D02*
X132704D01*
X102000Y212699D02*
X132603D01*
X120937Y105599D02*
X129063D01*
X121331Y234299D02*
X128669D01*
X112526Y161399D02*
X128474D01*
X113282Y137999D02*
X127718D01*
X122408Y226199D02*
X127592D01*
X122563Y113699D02*
X127437D01*
X122827Y106499D02*
X127173D01*
X113870Y146099D02*
X127130D01*
X122949Y233399D02*
X127051D01*
X114221Y169499D02*
X126779D01*
X123440Y227099D02*
X126560D01*
X114455Y162299D02*
X126545D01*
X123524Y112799D02*
X126476D01*
X123672Y107399D02*
X126328D01*
X114712Y138899D02*
X126288D01*
X123743Y232499D02*
X126257D01*
X114987Y145199D02*
X126013D01*
X124031Y227999D02*
X125969D01*
X124080Y111899D02*
X125920D01*
X124166Y108299D02*
X125834D01*
X115174Y168599D02*
X125826D01*
X124206Y231599D02*
X125794D01*
X115306Y163199D02*
X125694D01*
X124363Y228899D02*
X125637D01*
X124388Y110999D02*
X125612D01*
X124428Y109199D02*
X125572D01*
X124445Y230699D02*
X125555D01*
X115454Y139799D02*
X125546D01*
X124496Y229799D02*
X125504D01*
X124499Y110099D02*
X125501D01*
X115617Y144299D02*
X125383D01*
X115727Y167699D02*
X125273D01*
X115803Y164099D02*
X125197D01*
X115888Y140699D02*
X125112D01*
X115976Y143399D02*
X125024D01*
X116032Y166799D02*
X124968D01*
X116068Y164999D02*
X124932D01*
X116103Y141599D02*
X124897D01*
X116131Y142499D02*
X124869D01*
X116141Y165899D02*
X124859D01*
X113535Y105599D02*
X119063D01*
X113751Y234299D02*
X118669D01*
X114268Y226199D02*
X117592D01*
X114327Y113699D02*
X117437D01*
X114414Y106499D02*
X117173D01*
X114446Y233399D02*
X117051D01*
X114500Y227099D02*
X116560D01*
X114500Y112799D02*
X116476D01*
X114500Y107399D02*
X116328D01*
X114500Y232499D02*
X116257D01*
X114500Y227999D02*
X115969D01*
X114500Y111899D02*
X115920D01*
X114500Y108299D02*
X115834D01*
X114500Y231599D02*
X115794D01*
X114500Y228899D02*
X115637D01*
X114500Y110999D02*
X115612D01*
X114500Y109199D02*
X115572D01*
X114500Y230699D02*
X115555D01*
X114500Y229799D02*
X115504D01*
X114500Y110099D02*
X115501D01*
X102000Y161399D02*
X110758D01*
X102000Y137999D02*
X110001D01*
X102000Y146099D02*
X109414D01*
X102000Y169499D02*
X109063D01*
X102000Y162299D02*
X108829D01*
X102000Y138899D02*
X108572D01*
X102000Y145199D02*
X108296D01*
X102000Y168599D02*
X108109D01*
X102000Y163199D02*
X107978D01*
X102000Y139799D02*
X107829D01*
X102000Y144299D02*
X107667D01*
X102000Y167699D02*
X107557D01*
X102000Y164099D02*
X107480D01*
X102000Y140699D02*
X107396D01*
X102000Y143399D02*
X107307D01*
X102000Y166799D02*
X107251D01*
X102000Y164999D02*
X107216D01*
X102000Y141599D02*
X107181D01*
X102000Y142499D02*
X107152D01*
X102000Y165899D02*
X107143D01*
X102000Y105599D02*
X106465D01*
X102000Y234299D02*
X106249D01*
X102000Y226199D02*
X105732D01*
X102000Y113699D02*
X105673D01*
X102000Y106499D02*
X105586D01*
X102000Y233399D02*
X105554D01*
X102000Y232499D02*
X105500D01*
X102000Y231599D02*
X105500D01*
X102000Y230699D02*
X105500D01*
X102000Y229799D02*
X105500D01*
X102000Y228899D02*
X105500D01*
X102000Y227999D02*
X105500D01*
X102000Y227099D02*
X105500D01*
X102000Y112799D02*
X105500D01*
X102000Y111899D02*
X105500D01*
X102000Y110999D02*
X105500D01*
X102000Y110099D02*
X105500D01*
X102000Y109199D02*
X105500D01*
X102000Y108299D02*
X105500D01*
X102000Y107399D02*
X105500D01*
X100000Y239016D02*
Y100984D01*
X480000*
Y239016*
X100000*
X301575Y237491D02*
Y194200D01*
X304724*
Y237491*
X301575*
Y145700D02*
Y102357D01*
X304724*
Y145700*
X301575*
Y187000D02*
Y182400D01*
X304724*
Y187000*
X301575*
Y177000D02*
Y172200D01*
X304724*
Y177000*
X301575*
Y167400D02*
Y162300D01*
X304724*
Y167400*
X301575*
Y157700D02*
Y154200D01*
X304724*
Y157700*
X301575*
G54D32*
X472900Y213000D03*
Y223000D03*
Y233000D03*
X180000Y110000D03*
X190000D03*
X200000D03*
X210000D03*
X220000D03*
X230000D03*
X240000D03*
X250000D03*
X260000D03*
X250000Y230000D03*
X240000D03*
X230000D03*
X220000D03*
X210000D03*
X200000D03*
X190000D03*
X180000D03*
X170000D03*
X290000Y190000D03*
X280000Y180000D03*
X290000D03*
X280000Y170000D03*
X290000D03*
X280000Y160000D03*
X290000D03*
X280000Y150000D03*
X290000D03*
X111642Y142189D03*
X129358D03*
X111642Y165811D03*
X129358D03*
X322000Y190000D03*
X312000Y180000D03*
X322000D03*
X312000Y170000D03*
X322000D03*
X312000Y160000D03*
X322000D03*
X312000Y150000D03*
X322000D03*
X407000Y225000D03*
X397000D03*
X387000D03*
X377000D03*
X290000Y230000D03*
Y110000D03*
X120000Y230000D03*
X130000D03*
X140000D03*
X150000D03*
X120000Y110000D03*
X130000D03*
X140000D03*
X150000D03*
G54D33*
X472900Y203000D03*
X170000Y110000D03*
X260000Y230000D03*
X280000Y190000D03*
X170000Y152500D03*
X188000D03*
X150900Y152339D03*
X312000Y190000D03*
X417000Y225000D03*
X280000Y230000D03*
Y110000D03*
X110000Y230000D03*
Y110000D03*
G54D36*
X422500Y112500D02*
Y194278D01*
X228787Y157954D02*
Y173006D01*
X431880Y130820D02*
X444182Y143122D01*
X447190Y146130*
Y177290*
X472900Y203000*
X472500Y127500D02*
X472568Y127568D01*
Y177432*
X462500Y187500*
G54D37*
X114824Y145371D02*
X113763Y144310D01*
X108460Y145371D02*
X109520Y144310D01*
X108460Y139007D02*
X109520Y140068D01*
X114824Y139007D02*
X113763Y140068D01*
X293182Y153182D02*
X292121Y152121D01*
X286818Y146818D02*
X287879Y147879D01*
X293182Y146818D02*
X292121Y147879D01*
X469718Y236182D02*
X470779Y235121D01*
X469718Y229818D02*
X470779Y230879D01*
X476082Y229818D02*
X475021Y230879D01*
X476082Y236182D02*
X475021Y235121D01*
X308818Y153182D02*
X309879Y152121D01*
X308818Y146818D02*
X309879Y147879D01*
X315182Y146818D02*
X314121Y147879D01*
X373818Y221818D02*
X374879Y222879D01*
X380182Y228182D02*
X379121Y227121D01*
X373818Y228182D02*
X374879Y227121D01*
G54D49*
G54D68*
X463016Y163681D03*
Y146358D03*
G54D74*
X347500Y105000D03*
X412153Y108612D03*
X422500Y112500D03*
X210000Y145000D03*
X228787Y157954D03*
X332500Y147500D03*
X357500Y135000D03*
X367500Y142500D03*
X342500Y147500D03*
X362500Y154000D03*
X385000Y160000D03*
X431880Y130820D03*
X444182Y143122D03*
X441789Y149830D03*
X457500Y125000D03*
X472500Y127500D03*
X135846Y186916D03*
X212360Y167278D03*
X214948Y163754D03*
X228787Y173006D03*
X362500Y165000D03*
X395000D03*
X437500Y162500D03*
X422500Y194278D03*
X462500Y187500D03*
X135500Y212569D03*
X362500Y202500D03*
X375000D03*
X405000D03*
X382500D03*
G74*
X0Y0D02*
M02*
