%
T1C.014F095S3
X013585Y018692
X01355Y021257
X022879Y017301
X021236Y016728
X021495Y016375
X022879Y015795
X021Y0145
X03475Y0105
X03575Y0135
X03325Y01475
X03425Y01475
X03625Y02025
X0375Y02025
X03825Y02025
X03625Y0165
X03625Y0154
X03675Y01425
X041215Y010861
X04225Y01125
X043188Y013082
X0385Y016
X0395Y0165
X04225Y019428
X0405Y02025
X04625Y01875
X04375Y01625
X044179Y014983
X044418Y014312
X04725Y01275
X04575Y0125
T2C.032F197S55
X046302Y014636
X046302Y016368
T3C.035F197S55
X011Y011
X012Y011
X013Y011
X011Y023
X012Y023
X013Y023
X014Y023
X015Y023
X018Y023
X017Y023
X017Y01525
X01509Y015234
X014Y011
X015Y011
X017Y011
X018Y011
X019Y011
X02Y011
X021Y011
X022Y011
X023Y011
X0188Y01525
X022Y023
X021Y023
X023Y023
X02Y023
X019Y023
X024Y023
X025Y023
X028Y023
X026Y023
X024Y011
X028Y011
X026Y011
X025Y011
X029Y011
X029Y023
X0377Y0225
X0407Y0225
X0397Y0225
X0387Y0225
X04729Y0203
X04729Y0213
X04729Y0223
X0417Y0225
X04729Y0233
T4C.04F139S55
X011164Y014219
X012936Y014219
X011164Y016581
X012936Y016581
X028Y019
X028Y018
X028Y017
X028Y016
X028Y015
X029Y015
X0312Y015
X0322Y015
X0312Y016
X0322Y016
X029Y016
X0312Y017
X0322Y017
X029Y017
X0312Y018
X0322Y018
X029Y018
X0322Y019
X0312Y019
X029Y019
M30
