*
*
G04 PADS 9.5 Build Number: 522968 generated Gerber (RS-274-X) file*
G04 PC Version=2.1*
*
%IN "NUTINY-SDK-NUC029FAE_05"*%
*
%MOIN*%
*
%FSLAX35Y35*%
*
*
*
*
G04 PC Standard Apertures*
*
*
G04 Thermal Relief Aperture macro.*
%AMTER*
1,1,$1,0,0*
1,0,$1-$2,0,0*
21,0,$3,$4,0,0,45*
21,0,$3,$4,0,0,135*
%
*
*
G04 Annular Aperture macro.*
%AMANN*
1,1,$1,0,0*
1,0,$2,0,0*
%
*
*
G04 Odd Aperture macro.*
%AMODD*
1,1,$1,0,0*
1,0,$1-0.005,0,0*
%
*
*
G04 PC Custom Aperture Macros*
*
*
*
*
*
*
G04 PC Aperture Table*
*
%ADD016C,0.01*%
%ADD017C,0.005*%
%ADD021C,0.008*%
%ADD022C,0.006*%
%ADD036C,0.02*%
%ADD049C,0.001*%
*
*
*
*
G04 PC Circuitry*
G04 Layer Name NUTINY-SDK-NUC029FAE_05 - circuitry*
%LPD*%
*
*
G04 PC Custom Flashes*
G04 Layer Name NUTINY-SDK-NUC029FAE_05 - flashes*
%LPD*%
*
*
G04 PC Circuitry*
G04 Layer Name NUTINY-SDK-NUC029FAE_05 - circuitry*
%LPD*%
*
G54D16*
G01X467900Y198000D02*
Y238000D01*
X477900*
Y198000*
X467900*
X297000Y197000D02*
X286500D01*
Y193625*
X283500*
Y197000*
X273000*
Y143000*
X297000*
Y197000*
X165000Y157500D02*
X175000D01*
Y147500*
X165000*
Y157500*
X183000D02*
X193000D01*
Y147500*
X183000*
Y157500*
X145900Y157339D02*
X155900D01*
Y147339*
X145900*
Y157339*
X454406Y126555D02*
Y104555D01*
X466217*
Y126555*
X454406*
X321413Y209457D02*
Y216543D01*
X317870Y213000*
X321413Y209457*
X432043Y217913D02*
X424957D01*
X428500Y214370*
X432043Y217913*
X430913Y102957D02*
Y110043D01*
X427370Y106500*
X430913Y102957*
X329000Y197000D02*
X318500D01*
Y193625*
X315500*
Y197000*
X305000*
Y143000*
X329000*
Y197000*
X422000Y220000D02*
X372000D01*
Y230000*
X422000*
Y220000*
X275000Y235000D02*
X295000D01*
Y225000*
X275000*
Y235000*
Y115000D02*
X295000D01*
Y105000*
X275000*
Y115000*
X105000Y235000D02*
X155000D01*
Y225000*
X105000*
Y235000*
Y115000D02*
X155000D01*
Y105000*
X105000*
Y115000*
X102055Y179468D02*
Y174547D01*
Y179468D02*
X104441Y174547D01*
Y179468D02*
Y174547D01*
X105975Y177828D02*
Y175484D01*
X106146Y174781*
X106487Y174547*
X106998*
X107339Y174781*
X107850Y175484*
Y177828D02*
Y174547D01*
X110578Y179468D02*
Y174547D01*
X109384Y179468D02*
X111771D01*
X113305D02*
X113475Y179234D01*
X113646Y179468*
X113475Y179703*
X113305Y179468*
X113475Y177828D02*
Y174547D01*
X115180Y177828D02*
Y174547D01*
Y176890D02*
X115691Y177593D01*
X116032Y177828*
X116543*
X116884Y177593*
X117055Y176890*
Y174547*
X118759Y177828D02*
X119782Y174547D01*
X120805Y177828D02*
X119782Y174547D01*
X119441Y173609*
X119100Y173140*
X118759Y172906*
X118589*
X122339Y176656D02*
X125407D01*
X126941Y179468D02*
Y174547D01*
Y179468D02*
X129157D01*
X126941Y177125D02*
X128305D01*
X126941Y174547D02*
X129157D01*
X130691Y179468D02*
X132055Y174547D01*
X133418Y179468D02*
X132055Y174547D01*
X134953Y179468D02*
Y174547D01*
Y179468D02*
X136487D01*
X136998Y179234*
X137168Y179000*
X137339Y178531*
Y178062*
X137168Y177593*
X136998Y177359*
X136487Y177125*
X134953D02*
X136487D01*
X136998Y176890*
X137168Y176656*
X137339Y176187*
Y175484*
X137168Y175015*
X136998Y174781*
X136487Y174547*
X134953*
X138873Y176656D02*
X141941D01*
X143475Y179468D02*
Y174547D01*
Y179468D02*
X145862Y174547D01*
Y179468D02*
Y174547D01*
X147396Y179468D02*
Y175953D01*
X147566Y175250*
X147907Y174781*
X148418Y174547*
X148759*
X149271Y174781*
X149612Y175250*
X149782Y175953*
Y179468*
X153873Y178297D02*
X153703Y178765D01*
X153362Y179234*
X153021Y179468*
X152339*
X151998Y179234*
X151657Y178765*
X151487Y178297*
X151316Y177593*
Y176422*
X151487Y175718*
X151657Y175250*
X151998Y174781*
X152339Y174547*
X153021*
X153362Y174781*
X153703Y175250*
X153873Y175718*
X156430Y179468D02*
X155918Y179234D01*
X155578Y178531*
X155407Y177359*
Y176656*
X155578Y175484*
X155918Y174781*
X156430Y174547*
X156771*
X157282Y174781*
X157623Y175484*
X157793Y176656*
Y177359*
X157623Y178531*
X157282Y179234*
X156771Y179468*
X156430*
X159498Y178297D02*
Y178531D01*
X159668Y179000*
X159839Y179234*
X160180Y179468*
X160862*
X161203Y179234*
X161373Y179000*
X161543Y178531*
Y178062*
X161373Y177593*
X161032Y176890*
X159328Y174547*
X161714*
X165464Y177828D02*
X165293Y177125D01*
X164953Y176656*
X164441Y176422*
X164271*
X163759Y176656*
X163418Y177125*
X163248Y177828*
Y178062*
X163418Y178765*
X163759Y179234*
X164271Y179468*
X164441*
X164953Y179234*
X165293Y178765*
X165464Y177828*
Y176656*
X165293Y175484*
X164953Y174781*
X164441Y174547*
X164100*
X163589Y174781*
X163418Y175250*
X166998Y179468D02*
Y174547D01*
Y179468D02*
X169214D01*
X166998Y177125D02*
X168362D01*
X172112Y179468D02*
X170748Y174547D01*
X172112Y179468D02*
X173475Y174547D01*
X171259Y176187D02*
X172964D01*
X175009Y179468D02*
Y174547D01*
Y179468D02*
X177225D01*
X175009Y177125D02*
X176373D01*
X175009Y174547D02*
X177225D01*
X178759Y173609D02*
X182339D01*
X183362Y179468D02*
X184725Y174547D01*
X186089Y179468D02*
X184725Y174547D01*
X187623Y178531D02*
X187964Y178765D01*
X188475Y179468*
Y174547*
X190180Y175015D02*
X190009Y174781D01*
X190180Y174547*
X190350Y174781*
X190180Y175015*
X192907Y179468D02*
X192396Y179234D01*
X192055Y178531*
X191884Y177359*
Y176656*
X192055Y175484*
X192396Y174781*
X192907Y174547*
X193248*
X193759Y174781*
X194100Y175484*
X194271Y176656*
Y177359*
X194100Y178531*
X193759Y179234*
X193248Y179468*
X192907*
X125909Y120500D02*
X125682Y121125D01*
X125227Y121750*
X124773Y122063*
X124773D02*
X123864D01*
X123864D02*
X123409Y121750D01*
X122955Y121125*
X122727Y120500*
X122500Y119563*
X122500D02*
Y118000D01*
X122727Y117063*
X122727D02*
X122955Y116438D01*
X122955D02*
X123409Y115813D01*
X123409D02*
X123864Y115500D01*
X124773*
X125227Y115813*
X125227D02*
X125682Y116438D01*
X125682D02*
X125909Y117063D01*
X125909D02*
Y118000D01*
X124773D02*
X125909D01*
X127955Y122063D02*
Y115500D01*
Y122063D02*
X131136Y115500D01*
Y122063D02*
Y115500D01*
X133182Y122063D02*
Y115500D01*
Y122063D02*
X134773D01*
X134773D02*
X135455Y121750D01*
X135909Y121125*
X136136Y120500*
X136364Y119563*
X136364D02*
Y118000D01*
X136136Y117063*
X136136D02*
X135909Y116438D01*
X135909D02*
X135455Y115813D01*
X135455D02*
X134773Y115500D01*
X133182*
X119000Y221563D02*
X120818Y215000D01*
X122636Y221563D02*
X120818Y215000D01*
X128091Y220000D02*
X127864Y220625D01*
X127409Y221250*
X126955Y221563*
X126955D02*
X126045D01*
X126045D02*
X125591Y221250D01*
X125136Y220625*
X124909Y220000*
X124682Y219063*
X124682D02*
Y217500D01*
X124909Y216563*
X124909D02*
X125136Y215938D01*
X125136D02*
X125591Y215313D01*
X125591D02*
X126045Y215000D01*
X126955*
X127409Y215313*
X127409D02*
X127864Y215938D01*
X127864D02*
X128091Y216563D01*
X133545Y220000D02*
X133318Y220625D01*
X132864Y221250*
X132409Y221563*
X132409D02*
X131500D01*
X131500D02*
X131045Y221250D01*
X130591Y220625*
X130364Y220000*
X130136Y219063*
X130136D02*
Y217500D01*
X130364Y216563*
X130364D02*
X130591Y215938D01*
X130591D02*
X131045Y215313D01*
X131045D02*
X131500Y215000D01*
X132409*
X132864Y215313*
X132864D02*
X133318Y215938D01*
X133318D02*
X133545Y216563D01*
X307900Y236763D02*
Y230200D01*
Y236763D02*
X311082Y230200D01*
Y236763D02*
Y230200D01*
X313127Y234575D02*
Y231450D01*
X313355Y230513*
X313355D02*
X313809Y230200D01*
X314491*
X314945Y230513*
X314945D02*
X315627Y231450D01*
Y234575D02*
Y230200D01*
X317673Y233013D02*
X321764D01*
X323809Y236763D02*
Y230200D01*
X326536*
X328582Y236763D02*
X328809Y236450D01*
X329036Y236763*
X329036D02*
X328809Y237075D01*
X328582Y236763*
X328809Y234575D02*
Y230200D01*
X331082Y234575D02*
Y230200D01*
Y233325D02*
X331764Y234263D01*
X331764D02*
X332218Y234575D01*
X332900*
X333355Y234263*
X333355D02*
X333582Y233325D01*
Y230200*
X335627Y236763D02*
Y230200D01*
X337900Y234575D02*
X335627Y231450D01*
X336536Y232700D02*
X338127Y230200D01*
X340173Y233013D02*
X344264D01*
X346309Y236763D02*
Y230200D01*
Y236763D02*
X348127Y230200D01*
X349945Y236763D02*
X348127Y230200D01*
X349945Y236763D02*
Y230200D01*
X351991Y232700D02*
X354718D01*
Y233325*
X354491Y233950*
X354264Y234263*
X354264D02*
X353809Y234575D01*
X353127*
X352673Y234263*
X352673D02*
X352218Y233638D01*
X352218D02*
X351991Y232700D01*
Y232075*
X352218Y231138*
X352218D02*
X352673Y230513D01*
X352673D02*
X353127Y230200D01*
X353809*
X354264Y230513*
X354264D02*
X354718Y231138D01*
X361991Y236763D02*
X363809Y230200D01*
X365627Y236763D02*
X363809Y230200D01*
X367900Y235200D02*
Y235513D01*
X367900D02*
X368127Y236138D01*
X368127D02*
X368355Y236450D01*
X368809Y236763*
X368809D02*
X369718D01*
X369718D02*
X370173Y236450D01*
X370400Y236138*
X370400D02*
X370627Y235513D01*
X370627D02*
Y234888D01*
X370627D02*
X370400Y234263D01*
X370400D02*
X369945Y233325D01*
X367673Y230200*
X370855*
X373127Y230825D02*
X372900Y230513D01*
X372900D02*
X373127Y230200D01*
X373355Y230513*
X373355D02*
X373127Y230825D01*
X376764Y236763D02*
X376082Y236450D01*
X375627Y235513*
X375627D02*
X375400Y233950D01*
Y233013*
X375400D02*
X375627Y231450D01*
X376082Y230513*
X376082D02*
X376764Y230200D01*
X377218*
X377900Y230513*
X377900D02*
X378355Y231450D01*
X378582Y233013*
X378582D02*
Y233950D01*
X378355Y235513*
X378355D02*
X377900Y236450D01*
X377218Y236763*
X377218D02*
X376764D01*
X278909Y123500D02*
X278682Y124125D01*
X278227Y124750*
X277773Y125063*
X277773D02*
X276864D01*
X276864D02*
X276409Y124750D01*
X275955Y124125*
X275727Y123500*
X275500Y122563*
X275500D02*
Y121000D01*
X275727Y120063*
X275727D02*
X275955Y119438D01*
X275955D02*
X276409Y118813D01*
X276409D02*
X276864Y118500D01*
X277773*
X278227Y118813*
X278227D02*
X278682Y119438D01*
X278682D02*
X278909Y120063D01*
X278909D02*
Y121000D01*
X277773D02*
X278909D01*
X280955Y125063D02*
Y118500D01*
Y125063D02*
X284136Y118500D01*
Y125063D02*
Y118500D01*
X286182Y125063D02*
Y118500D01*
Y125063D02*
X287773D01*
X287773D02*
X288455Y124750D01*
X288909Y124125*
X289136Y123500*
X289364Y122563*
X289364D02*
Y121000D01*
X289136Y120063*
X289136D02*
X288909Y119438D01*
X288909D02*
X288455Y118813D01*
X288455D02*
X287773Y118500D01*
X286182*
X277922Y222093D02*
X279740Y215531D01*
X281559Y222093D02*
X279740Y215531D01*
X287013Y220531D02*
X286786Y221156D01*
X286331Y221781*
X285877Y222093*
X284968*
X284513Y221781*
X284059Y221156*
X283831Y220531*
X283604Y219593*
Y218031*
X283831Y217093*
X284059Y216468*
X284513Y215843*
X284968Y215531*
X285877*
X286331Y215843*
X286786Y216468*
X287013Y217093*
X292468Y220531D02*
X292240Y221156D01*
X291786Y221781*
X291331Y222093*
X290422*
X289968Y221781*
X289513Y221156*
X289286Y220531*
X289059Y219593*
Y218031*
X289286Y217093*
X289513Y216468*
X289968Y215843*
X290422Y215531*
X291331*
X291786Y215843*
X292240Y216468*
X292468Y217093*
X100000Y239016D02*
Y100984D01*
X480000*
Y239016*
X100000*
X301575Y237491D02*
Y194200D01*
X304724*
Y237491*
X301575*
Y145700D02*
Y102357D01*
X304724*
Y145700*
X301575*
Y187000D02*
Y182400D01*
X304724*
Y187000*
X301575*
Y177000D02*
Y172200D01*
X304724*
Y177000*
X301575*
Y167400D02*
Y162300D01*
X304724*
Y167400*
X301575*
Y157700D02*
Y154200D01*
X304724*
Y157700*
X301575*
G54D17*
X411450Y136306D02*
X411677Y136463D01*
X411677D02*
X412018Y136931D01*
Y133650*
X414405Y136463D02*
X414291Y136775D01*
X413950Y136931*
X413723*
X413382Y136775*
X413155Y136306*
X413041Y135525*
Y134744*
X413155Y134119*
X413382Y133806*
X413723Y133650*
X413836*
X414177Y133806*
X414405Y134119*
X414518Y134588*
X414518D02*
Y134744D01*
X414405Y135213*
X414405D02*
X414177Y135525D01*
X413836Y135681*
X413723*
X413382Y135525*
X413155Y135213*
X413155D02*
X413041Y134744D01*
X368714Y147213D02*
X368600Y147525D01*
X368259Y147681*
X368032*
X367691Y147525*
X367464Y147056*
X367350Y146275*
Y145494*
X367464Y144869*
X367691Y144556*
X368032Y144400*
X368145*
X368486Y144556*
X368714Y144869*
X368827Y145338*
X368827D02*
Y145494D01*
X368714Y145963*
X368714D02*
X368486Y146275D01*
X368145Y146431*
X368032*
X367691Y146275*
X367464Y145963*
X367464D02*
X367350Y145494D01*
X370986Y147681D02*
X369850Y145494D01*
X371555*
X370986Y147681D02*
Y144400D01*
X378836Y193481D02*
X377700Y191294D01*
X379405*
X378836Y193481D02*
Y190200D01*
X380995Y193481D02*
X380655Y193325D01*
X380541Y193013*
X380541D02*
Y192700D01*
X380655Y192388*
X380655D02*
X380882Y192231D01*
X381336Y192075*
X381677Y191919*
X381905Y191606*
X382018Y191294*
Y190825*
X381905Y190513*
X381905D02*
X381791Y190356D01*
X381450Y190200*
X380995*
X380655Y190356*
X380541Y190513*
X380541D02*
X380427Y190825D01*
Y191294*
X380541Y191606*
X380768Y191919*
X381109Y192075*
X381564Y192231*
X381791Y192388*
X381791D02*
X381905Y192700D01*
Y193013*
X381905D02*
X381791Y193325D01*
X381450Y193481*
X380995*
X423927Y182531D02*
X425177D01*
X424495Y181281*
X424836*
X425064Y181125*
X425177Y180969*
X425291Y180500*
Y180188*
X425291D02*
X425177Y179719D01*
X424950Y179406*
X424609Y179250*
X424268*
X423927Y179406*
X423814Y179563*
X423814D02*
X423700Y179875D01*
X426427Y181750D02*
Y181906D01*
X426541Y182219*
X426655Y182375*
X426882Y182531*
X427336*
X427564Y182375*
X427677Y182219*
X427791Y181906*
Y181594*
X427677Y181281*
X427450Y180813*
X427450D02*
X426314Y179250D01*
X427905*
X109374Y125516D02*
X109283Y125768D01*
X109099Y126020*
X109099D02*
X108916Y126146D01*
X108550*
X108366Y126020*
X108366D02*
X108183Y125768D01*
X108092Y125516*
X108000Y125138*
Y124508*
X108092Y124130*
X108183Y123878*
X108366Y123626*
X108366D02*
X108550Y123500D01*
X108916*
X109099Y123626*
X109099D02*
X109283Y123878D01*
X109374Y124130*
X110199Y125642D02*
X110382Y125768D01*
X110657Y126146*
Y123500*
X243866Y158282D02*
X243775Y158534D01*
X243591Y158786*
X243408Y158912*
X243042*
X242858Y158786*
X242675Y158534*
X242584Y158282*
X242492Y157904*
Y157274*
X242584Y156896*
X242675Y156644*
X242858Y156392*
X243042Y156266*
X243408*
X243591Y156392*
X243775Y156644*
X243866Y156896*
X244874Y158912D02*
X245882D01*
X245332Y157904*
X245607*
X245790Y157778*
X245882Y157652*
X245974Y157274*
Y157022*
X245882Y156644*
X245699Y156392*
X245424Y156266*
X245149*
X244874Y156392*
X244783Y156518*
X244691Y156770*
X243907Y173522D02*
X243815Y173773D01*
X243632Y174025*
X243449Y174151*
X243082*
X242899Y174025*
X242716Y173773*
X242624Y173522*
X242533Y173144*
Y172514*
X242624Y172136*
X242716Y171884*
X242899Y171632*
X243082Y171506*
X243449*
X243632Y171632*
X243815Y171884*
X243907Y172136*
X245923Y174151D02*
X245006D01*
X244915Y173018*
X245006Y173144*
X245281Y173270*
X245556*
X245831Y173144*
X246014Y172892*
X246106Y172514*
X246014Y172262*
X245923Y171884*
X245739Y171632*
X245465Y171506*
X245190*
X244915Y171632*
X244823Y171758*
X244732Y172010*
X454516Y211626D02*
X454768Y211717D01*
X455020Y211900*
X455020D02*
X455146Y212084D01*
Y212450*
X455020Y212633*
X455020D02*
X454768Y212817D01*
X454516Y212908*
X454138Y213000*
X453508*
X453130Y212908*
X452878Y212817*
X452626Y212633*
X452626D02*
X452500Y212450D01*
Y212084*
X452626Y211900*
X452626D02*
X452878Y211717D01*
X453130Y211626*
X455146Y210160D02*
X452500D01*
X455146Y210801D02*
Y209518D01*
Y208510D02*
Y207503D01*
X454138Y208052*
Y207777*
X454012Y207594*
X453886Y207503*
X453508Y207411*
X453256*
X452878Y207503*
X452626Y207686*
X452500Y207961*
Y208236*
X452500D02*
X452626Y208510D01*
X452752Y208602*
X453004Y208694*
X463916Y226146D02*
Y224130D01*
X463825Y223752*
X463733Y223626*
X463550Y223500*
X463366*
X463366D02*
X463183Y223626D01*
X463092Y223752*
X463000Y224130*
Y224382*
X464741Y225642D02*
X464924Y225768D01*
X465199Y226146*
Y223500*
X208977Y190753D02*
Y188863D01*
X209069Y188485*
X209252Y188233*
X209527Y188107*
X209710*
X209985Y188233*
X210168Y188485*
X210260Y188863*
Y190753*
X211084Y190249D02*
X211268Y190375D01*
X211543Y190753*
Y188107*
X281916Y140646D02*
Y138630D01*
X281825Y138252*
X281733Y138126*
X281550Y138000*
X281366*
X281366D02*
X281183Y138126D01*
X281092Y138252*
X281000Y138630*
Y138882*
X282741Y140646D02*
Y138000D01*
Y140646D02*
X283565D01*
X283565D02*
X283840Y140520D01*
X283932Y140394*
X284024Y140142*
Y139764*
X283932Y139512*
X283840Y139386*
X283565Y139260*
X283565D02*
X282741D01*
X285764Y140646D02*
X284848Y138882D01*
X286223*
X285764Y140646D02*
Y138000D01*
X102000Y194146D02*
Y191500D01*
Y194146D02*
X102825D01*
X103099Y194020*
X103099D02*
X103191Y193894D01*
X103283Y193642*
Y193264*
X103191Y193012*
X103099Y192886*
X103099D02*
X102825Y192760D01*
X102000*
X104107Y194146D02*
Y191500D01*
Y194146D02*
X104932D01*
X105207Y194020*
X105298Y193894*
X105390Y193642*
Y193390*
X105298Y193138*
X105207Y193012*
X104932Y192886*
X104107*
X104749D02*
X105390Y191500D01*
X116500Y134146D02*
Y131500D01*
Y134146D02*
X117325D01*
X117599Y134020*
X117599D02*
X117691Y133894D01*
X117783Y133642*
Y133390*
X117691Y133138*
X117599Y133012*
X117599D02*
X117325Y132886D01*
X116500*
X117141D02*
X117783Y131500D01*
X118607Y133642D02*
X118791Y133768D01*
X119065Y134146*
X119065D02*
Y131500D01*
X101500Y207646D02*
Y205000D01*
Y207646D02*
X102325D01*
X102599Y207520*
X102599D02*
X102691Y207394D01*
X102783Y207142*
Y206890*
X102691Y206638*
X102599Y206512*
X102599D02*
X102325Y206386D01*
X101500*
X102141D02*
X102783Y205000D01*
X103607Y207142D02*
X103791Y207268D01*
X104065Y207646*
X104065D02*
Y205000D01*
X104890Y207142D02*
X105073Y207268D01*
X105348Y207646*
Y205000*
X243017Y150377D02*
Y147731D01*
Y150377D02*
X243842D01*
X244117Y150251*
X244208Y150125*
X244300Y149873*
Y149621*
X244208Y149369*
X244117Y149243*
X243842Y149117*
X243017*
X243658D02*
X244300Y147731D01*
X245216Y149747D02*
Y149873D01*
X245308Y150125*
X245399Y150251*
X245583Y150377*
X245949*
X246132Y150251*
X246224Y150125*
X246316Y149873*
Y149621*
X246224Y149369*
X246041Y148991*
X245124Y147731*
X246407*
X242689Y166068D02*
Y163422D01*
Y166068D02*
X243513D01*
X243788Y165942*
X243880Y165816*
X243972Y165564*
Y165312*
X243880Y165060*
X243788Y164934*
X243513Y164808*
X242689*
X243330D02*
X243972Y163422D01*
X245712Y166068D02*
X244796Y164304D01*
X246171*
X245712Y166068D02*
Y163422D01*
X376146Y203000D02*
X373500D01*
X376146D02*
Y202175D01*
X376020Y201901*
X376020D02*
X375894Y201809D01*
X375642Y201717*
X375390*
X375138Y201809*
X375012Y201901*
X375012D02*
X374886Y202175D01*
Y203000*
Y202359D02*
X373500Y201717D01*
X376146Y200893D02*
X373500D01*
X375516Y198694D02*
X375768Y198785D01*
X376020Y198969*
X376146Y199152*
Y199518*
X376020Y199702*
X375768Y199885*
X375516Y199976*
X375138Y200068*
X374508*
X374130Y199976*
X373878Y199885*
X373626Y199702*
X373500Y199518*
Y199152*
X373626Y198969*
X373878Y198785*
X374130Y198694*
X376146Y197869D02*
X373500D01*
X376146Y196586D02*
X374382Y197869D01*
X375012Y197411D02*
X373500Y196586D01*
X375642Y195762D02*
X375768Y195578D01*
X376146Y195304*
X373500*
X391146Y203000D02*
X388500D01*
X391146D02*
Y202175D01*
X391020Y201901*
X391020D02*
X390894Y201809D01*
X390642Y201717*
X390390*
X390138Y201809*
X390012Y201901*
X390012D02*
X389886Y202175D01*
Y203000*
Y202359D02*
X388500Y201717D01*
X391146Y200893D02*
X388500D01*
X391146D02*
Y200068D01*
X391020Y199793*
X390894Y199702*
X390642Y199610*
X390390*
X390138Y199702*
X390012Y199793*
X389886Y200068*
Y200893*
Y200251D02*
X388500Y199610D01*
X390768Y197503D02*
X391020Y197686D01*
X391146Y197961*
Y198327*
X391020Y198602*
X390768Y198785*
X390516*
X390264Y198694*
X390138Y198602*
X390012Y198419*
X389760Y197869*
X389634Y197686*
X389508Y197594*
X389256Y197503*
X388878*
X388626Y197686*
X388500Y197961*
Y198327*
X388626Y198602*
X388878Y198785*
X391146Y196678D02*
X388500D01*
X391146D02*
Y195487D01*
X389886Y196678D02*
Y195945D01*
X388500Y196678D02*
Y195487D01*
X391146Y194021D02*
X388500D01*
X391146Y194662D02*
Y193379D01*
X390642Y192555D02*
X390768Y192372D01*
X391146Y192097*
X388500*
X398646Y203000D02*
X396000D01*
X398646D02*
Y202175D01*
X398520Y201901*
X398520D02*
X398394Y201809D01*
X398142Y201717*
X397890*
X397638Y201809*
X397512Y201901*
X397512D02*
X397386Y202175D01*
Y203000*
Y202359D02*
X396000Y201717D01*
X398646Y200251D02*
X396000D01*
X398646Y200893D02*
Y199610D01*
X398016Y197411D02*
X398268Y197503D01*
X398520Y197686*
X398646Y197869*
Y198236*
X398520Y198419*
X398268Y198602*
X398016Y198694*
X397638Y198785*
X397008*
X396630Y198694*
X396378Y198602*
X396126Y198419*
X396000Y198236*
Y197869*
X396126Y197686*
X396378Y197503*
X396630Y197411*
X398646Y196586D02*
X396000D01*
X398646Y195304D02*
X396882Y196586D01*
X397512Y196128D02*
X396000Y195304D01*
X398142Y194479D02*
X398268Y194296D01*
X398646Y194021*
X396000*
X406146Y203000D02*
X403500D01*
X406146D02*
Y202175D01*
X406020Y201901*
X406020D02*
X405894Y201809D01*
X405642Y201717*
X405390*
X405138Y201809*
X405012Y201901*
X405012D02*
X404886Y202175D01*
Y203000*
Y202359D02*
X403500Y201717D01*
X406146Y200251D02*
X403500D01*
X406146Y200893D02*
Y199610D01*
Y198785D02*
X403500D01*
X406146D02*
Y198144D01*
X406020Y197869*
X405768Y197686*
X405516Y197594*
X405138Y197503*
X404508*
X404130Y197594*
X403878Y197686*
X403626Y197869*
X403500Y198144*
Y198785*
X406146Y195945D02*
X403500Y196678D01*
X406146Y195945D02*
X403500Y195212D01*
X404382Y196403D02*
Y195487D01*
X405642Y194387D02*
X405768Y194204D01*
X406146Y193929*
X403500*
X413646Y203000D02*
X411000D01*
X413646D02*
Y202175D01*
X413520Y201901*
X413520D02*
X413394Y201809D01*
X413142Y201717*
X412890*
X412638Y201809*
X412512Y201901*
X412512D02*
X412386Y202175D01*
Y203000*
Y202359D02*
X411000Y201717D01*
X413646Y200251D02*
X411000D01*
X413646Y200893D02*
Y199610D01*
Y198785D02*
X411000D01*
X413646D02*
Y198144D01*
X413520Y197869*
X413268Y197686*
X413016Y197594*
X412638Y197503*
X412008*
X411630Y197594*
X411378Y197686*
X411126Y197869*
X411000Y198144*
Y198785*
X413646Y195945D02*
X411000Y196678D01*
X413646Y195945D02*
X411000Y195212D01*
X411882Y196403D02*
Y195487D01*
X413016Y194296D02*
X413142D01*
X413394Y194204*
X413520Y194112*
X413646Y193929*
Y193563*
X413520Y193379*
X413394Y193288*
X413142Y193196*
X412890*
X412638Y193288*
X412260Y193471*
X411000Y194387*
Y193105*
X421146Y203000D02*
X418500D01*
X421146D02*
Y202175D01*
X421020Y201901*
X421020D02*
X420894Y201809D01*
X420642Y201717*
X420390*
X420138Y201809*
X420012Y201901*
X420012D02*
X419886Y202175D01*
Y203000*
Y202359D02*
X418500Y201717D01*
X421146Y200251D02*
X418500D01*
X421146Y200893D02*
Y199610D01*
Y198785D02*
X418500D01*
X421146D02*
Y198144D01*
X421020Y197869*
X420768Y197686*
X420516Y197594*
X420138Y197503*
X419508*
X419130Y197594*
X418878Y197686*
X418626Y197869*
X418500Y198144*
Y198785*
X421146Y195945D02*
X418500Y196678D01*
X421146Y195945D02*
X418500Y195212D01*
X419382Y196403D02*
Y195487D01*
X421146Y194204D02*
Y193196D01*
X420138Y193746*
Y193471*
X420012Y193288*
X419886Y193196*
X419508Y193105*
X419256*
X418878Y193196*
X418626Y193379*
X418500Y193654*
Y193929*
X418626Y194204*
X418752Y194296*
X419004Y194387*
X383646Y203000D02*
X381000D01*
X383646D02*
Y202175D01*
X383520Y201901*
X383520D02*
X383394Y201809D01*
X383142Y201717*
X382890*
X382638Y201809*
X382512Y201901*
X382512D02*
X382386Y202175D01*
Y203000*
Y202359D02*
X381000Y201717D01*
X383646Y200251D02*
X381000D01*
X383646Y200893D02*
Y199610D01*
Y198785D02*
X381000D01*
X383646Y197961D02*
X381000D01*
X383646D02*
Y197319D01*
X383520Y197044*
X383268Y196861*
X383016Y196770*
X382638Y196678*
X382008*
X381630Y196770*
X381378Y196861*
X381126Y197044*
X381000Y197319*
Y197961*
X383646Y195120D02*
X381000Y195853D01*
X383646Y195120D02*
X381000Y194387D01*
X381882Y195578D02*
Y194662D01*
X383142Y193563D02*
X383268Y193379D01*
X383646Y193105*
X381000*
X109283Y136268D02*
X109099Y136520D01*
X109099D02*
X108825Y136646D01*
X108458*
X108183Y136520*
X108000Y136268*
Y136016*
X108092Y135764*
X108183Y135638*
X108366Y135512*
X108366D02*
X108916Y135260D01*
X109099Y135134*
X109099D02*
X109191Y135008D01*
X109283Y134756*
Y134378*
X109099Y134126*
X109099D02*
X108825Y134000D01*
X108458*
X108183Y134126*
X108000Y134378*
X110107Y136646D02*
X110565Y134000D01*
X111024Y136646D02*
X110565Y134000D01*
X111024Y136646D02*
X111482Y134000D01*
X111940Y136646D02*
X111482Y134000D01*
X112764Y136142D02*
X112948Y136268D01*
X113223Y136646*
Y134000*
X176698Y150454D02*
Y147808D01*
X176057Y150454D02*
X177340D01*
X178164D02*
Y147808D01*
Y150454D02*
X178989D01*
X179264Y150328*
X179355Y150202*
X179447Y149950*
Y149572*
X179355Y149320*
X179264Y149194*
X178989Y149068*
X178164*
X180272Y149950D02*
X180455Y150076D01*
X180730Y150454*
Y147808*
X194762Y150835D02*
Y148190D01*
X194121Y150835D02*
X195404D01*
X196228D02*
Y148190D01*
Y150835D02*
X197053D01*
X197328Y150709*
X197419Y150583*
X197511Y150331*
Y149954*
X197419Y149702*
X197328Y149576*
X197053Y149450*
X196228*
X198427Y150205D02*
Y150331D01*
X198519Y150583*
X198611Y150709*
X198794Y150835*
X199160*
X199344Y150709*
X199435Y150583*
X199527Y150331*
Y150080*
X199527D02*
X199435Y149828D01*
X199252Y149450*
X198336Y148190*
X199618*
X157489Y150454D02*
Y147808D01*
X156848Y150454D02*
X158131D01*
X158955D02*
Y147808D01*
Y150454D02*
X159780D01*
X160055Y150328*
X160146Y150202*
X160238Y149950*
Y149572*
X160146Y149320*
X160055Y149194*
X159780Y149068*
X158955*
X161246Y150454D02*
X162254D01*
X161704Y149446*
X161979*
X162162Y149320*
X162254Y149194*
X162345Y148816*
Y148564*
X162254Y148186*
X162071Y147934*
X161796Y147808*
X161521*
X161246Y147934*
X161154Y148060*
X161063Y148312*
X474146Y129000D02*
X472256D01*
X471878Y128908*
X471626Y128725*
X471500Y128450*
Y128267*
X471626Y127992*
X471878Y127809*
X472256Y127717*
X474146*
Y126709D02*
Y125702D01*
X473138Y126251*
Y125976*
X473012Y125793*
X472886Y125702*
X472508Y125610*
X472256*
X471878Y125702*
X471626Y125885*
X471500Y126160*
Y126435*
X471500D02*
X471626Y126709D01*
X471752Y126801*
X472004Y126893*
X335000Y112646D02*
Y110000D01*
X337199Y112016D02*
X337107Y112268D01*
X336924Y112520*
X336741Y112646*
X336374*
X336191Y112520*
X336008Y112268*
X335916Y112016*
X335825Y111638*
Y111008*
X335916Y110630*
X336008Y110378*
X336191Y110126*
X336374Y110000*
X336741*
X336924Y110126*
X337107Y110378*
X337199Y110630*
X338024Y112646D02*
Y110000D01*
Y112646D02*
X339215D01*
X338024Y111386D02*
X338757D01*
X338024Y110000D02*
X339215D01*
X341414Y112016D02*
X341322Y112268D01*
X341139Y112520*
X340956Y112646*
X340589*
X340406Y112520*
X340223Y112268*
X340131Y112016*
X340039Y111638*
Y111008*
X340131Y110630*
X340223Y110378*
X340406Y110126*
X340589Y110000*
X340956*
X341139Y110126*
X341322Y110378*
X341414Y110630*
X343338Y112268D02*
X343246Y112520D01*
X342971Y112646*
X342788*
X342513Y112520*
X342330Y112142*
X342238Y111512*
Y110882*
X342330Y110378*
X342513Y110126*
X342788Y110000*
X342880*
X343155Y110126*
X343338Y110378*
X343429Y110756*
Y110882*
X343338Y111260*
X343155Y111512*
X342880Y111638*
X342788*
X342513Y111512*
X342330Y111260*
X342238Y110882*
X350000Y112646D02*
Y110000D01*
X352199Y112016D02*
X352107Y112268D01*
X351924Y112520*
X351741Y112646*
X351374*
X351191Y112520*
X351008Y112268*
X350916Y112016*
X350825Y111638*
Y111008*
X350916Y110630*
X351008Y110378*
X351191Y110126*
X351374Y110000*
X351741*
X351924Y110126*
X352107Y110378*
X352199Y110630*
X353024Y112646D02*
Y110000D01*
Y112646D02*
X354215D01*
X353024Y111386D02*
X353757D01*
X353024Y110000D02*
X354215D01*
X356414Y112016D02*
X356322Y112268D01*
X356139Y112520*
X355956Y112646*
X355589*
X355406Y112520*
X355223Y112268*
X355131Y112016*
X355039Y111638*
Y111008*
X355131Y110630*
X355223Y110378*
X355406Y110126*
X355589Y110000*
X355956*
X356139Y110126*
X356322Y110378*
X356414Y110630*
X358521Y112646D02*
X357605Y110000D01*
X357238Y112646D02*
X358521D01*
X429863Y164518D02*
Y161873D01*
X432062Y163888D02*
X431970Y164140D01*
X431787Y164392*
X431604Y164518*
X431237*
X431054Y164392*
X430871Y164140*
X430779Y163888*
X430687Y163510*
Y162880*
X430779Y162502*
X430871Y162250*
X431054Y161998*
X431237Y161873*
X431604*
X431787Y161998*
X431970Y162250*
X432062Y162502*
X432886Y164518D02*
Y161873D01*
Y164518D02*
X434078D01*
X432886Y163258D02*
X433619D01*
X432886Y161873D02*
X434078D01*
X436277Y163888D02*
X436185Y164140D01*
X436002Y164392*
X435818Y164518*
X435452*
X435269Y164392*
X435085Y164140*
X434994Y163888*
X434902Y163510*
Y162880*
X434994Y162502*
X435085Y162250*
X435269Y161998*
X435452Y161873*
X435818*
X436002Y161998*
X436185Y162250*
X436277Y162502*
X437559Y164518D02*
X437284Y164392D01*
X437193Y164140*
Y163888*
X437284Y163636*
X437468Y163510*
X437834Y163384*
X438109Y163258*
X438292Y163006*
X438384Y162754*
Y162376*
X438292Y162124*
X438201Y161998*
X437926Y161873*
X437559*
X437284Y161998*
X437193Y162124*
X437101Y162376*
Y162754*
X437193Y163006*
X437376Y163258*
X437651Y163384*
X438017Y163510*
X438201Y163636*
X438292Y163888*
Y164140*
X438201Y164392*
X437926Y164518*
X437559*
X341000Y175146D02*
Y172500D01*
X343199Y174516D02*
X343107Y174768D01*
X342924Y175020*
X342741Y175146*
X342374*
X342191Y175020*
X342008Y174768*
X341916Y174516*
X341825Y174138*
Y173508*
X341916Y173130*
X342008Y172878*
X342191Y172626*
X342374Y172500*
X342741*
X342924Y172626*
X343107Y172878*
X343199Y173130*
X344024Y175146D02*
Y172500D01*
Y175146D02*
X345215D01*
X344024Y173886D02*
X344757D01*
X344024Y172500D02*
X345215D01*
X347414Y174516D02*
X347322Y174768D01*
X347139Y175020*
X346956Y175146*
X346589*
X346406Y175020*
X346223Y174768*
X346131Y174516*
X346039Y174138*
Y173508*
X346131Y173130*
X346223Y172878*
X346406Y172626*
X346589Y172500*
X346956*
X347139Y172626*
X347322Y172878*
X347414Y173130*
X349429Y174264D02*
X349338Y173886D01*
X349155Y173634*
X348880Y173508*
X348788*
X348513Y173634*
X348330Y173886*
X348238Y174264*
Y174390*
X348330Y174768*
X348513Y175020*
X348788Y175146*
X348880*
X349155Y175020*
X349338Y174768*
X349429Y174264*
Y173634*
X349338Y173004*
X349155Y172626*
X348880Y172500*
X348696*
X348422Y172626*
X348330Y172878*
X348500Y149146D02*
Y146500D01*
X350699Y148516D02*
X350607Y148768D01*
X350424Y149020*
X350241Y149146*
X349874*
X349691Y149020*
X349508Y148768*
X349416Y148516*
X349325Y148138*
Y147508*
X349416Y147130*
X349508Y146878*
X349691Y146626*
X349874Y146500*
X350241*
X350424Y146626*
X350607Y146878*
X350699Y147130*
X351524Y149146D02*
Y146500D01*
Y149146D02*
X352715D01*
X351524Y147886D02*
X352257D01*
X351524Y146500D02*
X352715D01*
X354914Y148516D02*
X354822Y148768D01*
X354639Y149020*
X354456Y149146*
X354089*
X353906Y149020*
X353723Y148768*
X353631Y148516*
X353539Y148138*
Y147508*
X353631Y147130*
X353723Y146878*
X353906Y146626*
X354089Y146500*
X354456*
X354639Y146626*
X354822Y146878*
X354914Y147130*
X355738Y149146D02*
Y146500D01*
Y149146D02*
X356563D01*
X356838Y149020*
X356929Y148894*
X357021Y148642*
Y148390*
X356929Y148138*
X356838Y148012*
X356563Y147886*
X355738D02*
X356563D01*
X356838Y147760*
X356929Y147634*
X357021Y147382*
Y147004*
X356929Y146752*
X356838Y146626*
X356563Y146500*
X355738*
X358029Y149146D02*
X359037D01*
X358487Y148138*
X358762*
X358945Y148012*
X359037Y147886*
X359128Y147508*
Y147256*
X359037Y146878*
X358854Y146626*
X358579Y146500*
X358304*
X358029Y146626*
X357937Y146752*
X357846Y147004*
X429866Y168760D02*
Y166114D01*
X432065Y168130D02*
X431973Y168382D01*
X431790Y168634*
X431607Y168760*
X431240*
X431057Y168634*
X430874Y168382*
X430782Y168130*
X430691Y167752*
Y167122*
X430782Y166744*
X430874Y166492*
X431057Y166240*
X431240Y166114*
X431607*
X431790Y166240*
X431973Y166492*
X432065Y166744*
X432890Y168760D02*
Y166114D01*
Y168760D02*
X434081D01*
X432890Y167500D02*
X433623D01*
X432890Y166114D02*
X434081D01*
X436280Y168130D02*
X436188Y168382D01*
X436005Y168634*
X435822Y168760*
X435455*
X435272Y168634*
X435089Y168382*
X434997Y168130*
X434905Y167752*
Y167122*
X434997Y166744*
X435089Y166492*
X435272Y166240*
X435455Y166114*
X435822*
X436005Y166240*
X436188Y166492*
X436280Y166744*
X437104Y168760D02*
Y166114D01*
Y168760D02*
X437929D01*
X438204Y168634*
X438295Y168508*
X438387Y168256*
Y168004*
X438295Y167752*
X438204Y167626*
X437929Y167500*
X437104D02*
X437929D01*
X438204Y167374*
X438295Y167248*
X438387Y166996*
Y166618*
X438295Y166366*
X438204Y166240*
X437929Y166114*
X437104*
X440128Y168760D02*
X439212Y166996D01*
X440586*
X440128Y168760D02*
Y166114D01*
X437226Y127870D02*
X434581D01*
X436596Y125671D02*
X436848Y125762D01*
X437100Y125946*
X437226Y126129*
Y126495*
X437100Y126679*
X436848Y126862*
X436596Y126954*
X436218Y127045*
X435589*
X435211Y126954*
X434959Y126862*
X434707Y126679*
X434581Y126495*
Y126129*
X434707Y125946*
X434959Y125762*
X435211Y125671*
X437226Y124846D02*
X434581D01*
X437226D02*
Y123655D01*
X435967Y124846D02*
Y124113D01*
X434581Y124846D02*
Y123655D01*
X436596Y121456D02*
X436848Y121548D01*
X437100Y121731*
X437226Y121914*
Y122281*
X437100Y122464*
X436848Y122647*
X436596Y122739*
X436218Y122830*
X435589*
X435211Y122739*
X434959Y122647*
X434707Y122464*
X434581Y122281*
Y121914*
X434707Y121731*
X434959Y121548*
X435211Y121456*
X437226Y119990D02*
X434581D01*
X437226Y120631D02*
Y119349D01*
X436722Y118524D02*
X436848Y118341D01*
X437226Y118066*
X434581*
X316487Y205818D02*
Y203172D01*
X318686Y205188D02*
X318594Y205440D01*
X318411Y205692*
X318228Y205818*
X317861*
X317678Y205692*
X317495Y205440*
X317403Y205188*
X317312Y204810*
Y204180*
X317403Y203802*
X317495Y203550*
X317678Y203298*
X317861Y203172*
X318228*
X318411Y203298*
X318594Y203550*
X318686Y203802*
X319511Y205818D02*
Y203172D01*
Y205818D02*
X320702D01*
X319511Y204558D02*
X320244D01*
X319511Y203172D02*
X320702D01*
X321526Y205818D02*
Y203172D01*
Y205818D02*
X322168D01*
X322443Y205692*
X322626Y205440*
X322717Y205188*
X322809Y204810*
Y204180*
X322717Y203802*
X322626Y203550*
X322443Y203298*
X322168Y203172*
X321526*
X323725Y205188D02*
Y205314D01*
X323817Y205566*
X323909Y205692*
X324092Y205818*
X324458*
X324642Y205692*
X324733Y205566*
X324825Y205314*
Y205062*
X324733Y204810*
X324550Y204432*
X323634Y203172*
X324916*
X435854Y212000D02*
X438500D01*
X436484Y214199D02*
X436232Y214107D01*
X435980Y213924*
X435854Y213741*
Y213374*
X435980Y213191*
X436232Y213008*
X436484Y212916*
X436862Y212825*
X437492*
X437870Y212916*
X438122Y213008*
X438374Y213191*
X438500Y213374*
Y213741*
X438374Y213924*
X438122Y214107*
X437870Y214199*
X435854Y215024D02*
X438500D01*
X435854D02*
Y216215D01*
X437114Y215024D02*
Y215757D01*
X438500Y215024D02*
Y216215D01*
X435854Y217039D02*
X438500D01*
X435854D02*
Y217681D01*
X435980Y217956*
X436232Y218139*
X436484Y218230*
X436862Y218322*
X437492*
X437870Y218230*
X438122Y218139*
X438374Y217956*
X438500Y217681*
Y217039*
X435854Y219330D02*
Y220338D01*
X436862Y219788*
Y220063*
X436988Y220246*
X437114Y220338*
X437492Y220429*
X437744*
X438122Y220338*
X438374Y220155*
X438500Y219880*
Y219605*
X438374Y219330*
X438248Y219238*
X437996Y219147*
X426303Y115186D02*
Y112541D01*
X428502Y114556D02*
X428411Y114808D01*
X428227Y115060*
X428044Y115186*
X427678*
X427494Y115060*
X427311Y114808*
X427219Y114556*
X427128Y114178*
Y113548*
X427219Y113170*
X427311Y112919*
X427311D02*
X427494Y112667D01*
X427678Y112541*
X428044*
X428227Y112667*
X428411Y112919*
X428411D02*
X428502Y113170D01*
X429327Y115186D02*
Y112541D01*
Y115186D02*
X430518D01*
X429327Y113926D02*
X430060D01*
X429327Y112541D02*
X430518D01*
X431343Y115186D02*
Y112541D01*
Y115186D02*
X431984D01*
X432259Y115060*
X432442Y114808*
X432534Y114556*
X432625Y114178*
Y113548*
X432534Y113170*
X432442Y112919*
X432442D02*
X432259Y112667D01*
X431984Y112541*
X431343*
X434366Y115186D02*
X433450Y113422D01*
X434824*
X434366Y115186D02*
Y112541D01*
X467000Y181146D02*
Y178500D01*
X469199Y180516D02*
X469107Y180768D01*
X468924Y181020*
X468741Y181146*
X468374*
X468191Y181020*
X468008Y180768*
X467916Y180516*
X467825Y180138*
Y179508*
X467916Y179130*
X468008Y178878*
X468191Y178626*
X468374Y178500*
X468741*
X468924Y178626*
X469107Y178878*
X469199Y179130*
X470024Y181146D02*
Y178500D01*
Y181146D02*
X471215D01*
X470024Y179886D02*
X470757D01*
X470024Y178500D02*
X471215D01*
X472956Y181146D02*
Y179130D01*
X472864Y178752*
X472772Y178626*
X472589Y178500*
X472406*
X472223Y178626*
X472131Y178752*
X472039Y179130*
Y179382*
X473872Y180516D02*
Y180642D01*
X473963Y180894*
X474055Y181020*
X474238Y181146*
X474605*
X474788Y181020*
X474880Y180894*
X474971Y180642*
Y180390*
X474880Y180138*
X474696Y179760*
X473780Y178500*
X475063*
X310000Y140646D02*
Y138000D01*
X312199Y140016D02*
X312107Y140268D01*
X311924Y140520*
X311741Y140646*
X311374*
X311191Y140520*
X311008Y140268*
X310916Y140016*
X310825Y139638*
Y139008*
X310916Y138630*
X311008Y138378*
X311191Y138126*
X311374Y138000*
X311741*
X311924Y138126*
X312107Y138378*
X312199Y138630*
X313024Y140646D02*
Y138000D01*
Y140646D02*
X314215D01*
X313024Y139386D02*
X313757D01*
X313024Y138000D02*
X314215D01*
X315956Y140646D02*
Y138630D01*
X315864Y138252*
X315772Y138126*
X315589Y138000*
X315406*
X315223Y138126*
X315131Y138252*
X315039Y138630*
Y138882*
X316780Y140646D02*
Y138000D01*
Y140646D02*
X317605D01*
X317880Y140520*
X317971Y140394*
X318063Y140142*
Y139764*
X317971Y139512*
X317880Y139386*
X317605Y139260*
X316780*
X319346Y140646D02*
X319071Y140520D01*
X318979Y140268*
Y140016*
X319071Y139764*
X319254Y139638*
X319621Y139512*
X319895Y139386*
X320079Y139134*
X320170Y138882*
Y138504*
X320079Y138252*
X319987Y138126*
X319712Y138000*
X319346*
X319071Y138126*
X318979Y138252*
X318888Y138504*
Y138882*
X318979Y139134*
X319162Y139386*
X319437Y139512*
X319804Y139638*
X319987Y139764*
X320079Y140016*
Y140268*
X319987Y140520*
X319712Y140646*
X319346*
X393000Y234646D02*
Y232000D01*
X395199Y234016D02*
X395107Y234268D01*
X394924Y234520*
X394741Y234646*
X394374*
X394191Y234520*
X394008Y234268*
X393916Y234016*
X393825Y233638*
Y233008*
X393916Y232630*
X394008Y232378*
X394191Y232126*
X394374Y232000*
X394741*
X394924Y232126*
X395107Y232378*
X395199Y232630*
X396024Y234646D02*
Y232000D01*
Y234646D02*
X397215D01*
X396024Y233386D02*
X396757D01*
X396024Y232000D02*
X397215D01*
X398956Y234646D02*
Y232630D01*
X398864Y232252*
X398772Y232126*
X398589Y232000*
X398406*
X398223Y232126*
X398131Y232252*
X398039Y232630*
Y232882*
X399780Y234646D02*
Y232000D01*
Y234646D02*
X400605D01*
X400880Y234520*
X400971Y234394*
X401063Y234142*
Y233764*
X400971Y233512*
X400880Y233386*
X400605Y233260*
X399780*
X403079Y233764D02*
X402987Y233386D01*
X402804Y233134*
X402529Y233008*
X402437*
X402162Y233134*
X401979Y233386*
X401888Y233764*
Y233890*
X401979Y234268*
X402162Y234520*
X402437Y234646*
X402529*
X402804Y234520*
X402987Y234268*
X403079Y233764*
Y233134*
X402987Y232504*
X402804Y232126*
X402529Y232000*
X402346*
X402071Y232126*
X401979Y232378*
X356854Y171000D02*
X359500D01*
X357484Y173199D02*
X357232Y173107D01*
X356980Y172924*
X356854Y172741*
Y172374*
X356980Y172191*
X357232Y172008*
X357484Y171916*
X357862Y171825*
X358492*
X358870Y171916*
X359122Y172008*
X359374Y172191*
X359500Y172374*
Y172741*
X359374Y172924*
X359122Y173107*
X358870Y173199*
X356854Y174024D02*
X359500D01*
X356854D02*
Y175215D01*
X358114Y174024D02*
Y174757D01*
X359500Y174024D02*
Y175215D01*
X356854Y176039D02*
X359500D01*
Y177139*
X356854Y178880D02*
X358618Y177963D01*
Y179338*
X356854Y178880D02*
X359500D01*
X357354Y190000D02*
X360000D01*
X357984Y192199D02*
X357732Y192107D01*
X357480Y191924*
X357354Y191741*
Y191374*
X357480Y191191*
X357732Y191008*
X357984Y190916*
X358362Y190825*
X358992*
X359370Y190916*
X359622Y191008*
X359874Y191191*
X360000Y191374*
Y191741*
X359874Y191924*
X359622Y192107*
X359370Y192199*
X357354Y193024D02*
X360000D01*
X357354D02*
Y194215D01*
X358614Y193024D02*
Y193757D01*
X360000Y193024D02*
Y194215D01*
X357354Y195039D02*
X360000D01*
Y196139*
X357354Y198155D02*
Y197238D01*
X358488Y197147*
X358362Y197238*
X358236Y197513*
Y197788*
X358362Y198063*
X358614Y198246*
X358992Y198338*
X359244Y198246*
X359622Y198155*
X359874Y197971*
X360000Y197696*
Y197422*
X359874Y197147*
X359748Y197055*
X359496Y196963*
X443596Y131164D02*
Y128519D01*
X445795Y130534D02*
X445704Y130786D01*
X445520Y131038*
X445337Y131164*
X444971*
X444787Y131038*
X444604Y130786*
X444512Y130534*
X444421Y130156*
Y129527*
X444512Y129149*
X444604Y128897*
X444787Y128645*
X444971Y128519*
X445337*
X445520Y128645*
X445704Y128897*
X445795Y129149*
X446620Y131164D02*
Y128519D01*
Y131164D02*
X447811D01*
X446620Y129904D02*
X447353D01*
X446620Y128519D02*
X447811D01*
X448636Y131164D02*
Y128519D01*
X449735*
X451659Y130786D02*
X451568Y131038D01*
X451293Y131164*
X451109*
X450835Y131038*
X450651Y130660*
X450560Y130030*
Y129401*
X450651Y128897*
X450835Y128645*
X451109Y128519*
X451201*
X451476Y128645*
X451659Y128897*
X451751Y129275*
Y129401*
X451659Y129779*
X451476Y130030*
X451201Y130156*
X451109*
X450835Y130030*
X450651Y129779*
X450560Y129401*
X334000Y149146D02*
Y146500D01*
X336199Y148516D02*
X336107Y148768D01*
X335924Y149020*
X335741Y149146*
X335374*
X335191Y149020*
X335008Y148768*
X334916Y148516*
X334825Y148138*
Y147508*
X334916Y147130*
X335008Y146878*
X335191Y146626*
X335374Y146500*
X335741*
X335924Y146626*
X336107Y146878*
X336199Y147130*
X337024Y149146D02*
Y146500D01*
Y149146D02*
X338215D01*
X337024Y147886D02*
X337757D01*
X337024Y146500D02*
X338215D01*
X339039Y149146D02*
Y146500D01*
Y149146D02*
X339864D01*
X340139Y149020*
X340230Y148894*
X340322Y148642*
Y148390*
X340230Y148138*
X340139Y148012*
X339864Y147886*
X339039*
X339681D02*
X340322Y146500D01*
X341147Y148642D02*
X341330Y148768D01*
X341605Y149146*
Y146500*
X342521Y148516D02*
Y148642D01*
X342613Y148894*
X342704Y149020*
X342888Y149146*
X343254*
X343437Y149020*
X343529Y148894*
X343621Y148642*
Y148390*
X343529Y148138*
X343346Y147760*
X342429Y146500*
X343712*
X334500Y161146D02*
Y158500D01*
X336699Y160516D02*
X336607Y160768D01*
X336424Y161020*
X336241Y161146*
X335874*
X335691Y161020*
X335508Y160768*
X335416Y160516*
X335325Y160138*
Y159508*
X335416Y159130*
X335508Y158878*
X335691Y158626*
X335874Y158500*
X336241*
X336424Y158626*
X336607Y158878*
X336699Y159130*
X337524Y161146D02*
Y158500D01*
Y161146D02*
X338715D01*
X337524Y159886D02*
X338257D01*
X337524Y158500D02*
X338715D01*
X339539Y161146D02*
Y158500D01*
Y161146D02*
X340364D01*
X340639Y161020*
X340730Y160894*
X340822Y160642*
Y160390*
X340730Y160138*
X340639Y160012*
X340364Y159886*
X339539*
X340181D02*
X340822Y158500D01*
X341647Y160642D02*
X341830Y160768D01*
X342105Y161146*
Y158500*
X343113Y161146D02*
X344121D01*
X343571Y160138*
X343846*
X344029Y160012*
X344121Y159886*
X344212Y159508*
Y159256*
X344121Y158878*
X343937Y158626*
X343662Y158500*
X343388*
X343113Y158626*
X343021Y158752*
X342929Y159004*
X429866Y172940D02*
Y170295D01*
X432065Y172310D02*
X431973Y172562D01*
X431790Y172814*
X431607Y172940*
X431240*
X431057Y172814*
X430874Y172562*
X430782Y172310*
X430691Y171933*
Y171303*
X430782Y170925*
X430874Y170673*
X431057Y170421*
X431240Y170295*
X431607*
X431790Y170421*
X431973Y170673*
X432065Y170925*
X432890Y172940D02*
Y170295D01*
Y172940D02*
X434081D01*
X432890Y171681D02*
X433623D01*
X432890Y170295D02*
X434081D01*
X434905Y172940D02*
Y170295D01*
Y172940D02*
X435730D01*
X436005Y172814*
X436096Y172688*
X436188Y172436*
Y172185*
X436096Y171933*
X436005Y171807*
X435730Y171681*
X434905*
X435547D02*
X436188Y170295D01*
X437013Y172436D02*
X437196Y172562D01*
X437471Y172940*
Y170295*
X439212Y172940D02*
X438295Y171177D01*
X439670*
X439212Y172940D02*
Y170295D01*
X429866Y177224D02*
Y174578D01*
X432065Y176594D02*
X431973Y176846D01*
X431790Y177098*
X431607Y177224*
X431240*
X431057Y177098*
X430874Y176846*
X430782Y176594*
X430691Y176216*
Y175586*
X430782Y175208*
X430874Y174956*
X431057Y174704*
X431240Y174578*
X431607*
X431790Y174704*
X431973Y174956*
X432065Y175208*
X432890Y177224D02*
Y174578D01*
Y177224D02*
X434081D01*
X432890Y175964D02*
X433623D01*
X432890Y174578D02*
X434081D01*
X434905Y177224D02*
Y174578D01*
Y177224D02*
X435730D01*
X436005Y177098*
X436096Y176972*
X436188Y176720*
Y176468*
X436096Y176216*
X436005Y176090*
X435730Y175964*
X434905*
X435547D02*
X436188Y174578D01*
X437013Y176720D02*
X437196Y176846D01*
X437471Y177224*
Y174578*
X439395Y176846D02*
X439303Y177098D01*
X439028Y177224*
X438845*
X438570Y177098*
X438387Y176720*
X438295Y176090*
Y175460*
X438387Y174956*
X438570Y174704*
X438845Y174578*
X438937*
X439212Y174704*
X439395Y174956*
X439487Y175334*
Y175460*
X439395Y175838*
X439212Y176090*
X438937Y176216*
X438845*
X438570Y176090*
X438387Y175838*
X438295Y175460*
X349000Y160646D02*
Y158000D01*
X351199Y160016D02*
X351107Y160268D01*
X350924Y160520*
X350741Y160646*
X350374*
X350191Y160520*
X350008Y160268*
X349916Y160016*
X349825Y159638*
Y159008*
X349916Y158630*
X350008Y158378*
X350191Y158126*
X350374Y158000*
X350741*
X350924Y158126*
X351107Y158378*
X351199Y158630*
X352024Y160646D02*
Y158000D01*
Y160646D02*
X353215D01*
X352024Y159386D02*
X352757D01*
X352024Y158000D02*
X353215D01*
X354039Y160646D02*
Y158000D01*
Y160646D02*
X354864D01*
X355139Y160520*
X355230Y160394*
X355322Y160142*
Y159890*
X355230Y159638*
X355139Y159512*
X354864Y159386*
X354039*
X354681D02*
X355322Y158000D01*
X356147Y160142D02*
X356330Y160268D01*
X356605Y160646*
Y158000*
X358712Y160646D02*
X357796Y158000D01*
X357429Y160646D02*
X358712D01*
X377708Y110479D02*
Y107834D01*
X379907Y109849D02*
X379816Y110101D01*
X379632Y110353*
X379449Y110479*
X379083*
X378899Y110353*
X378716Y110101*
X378625Y109849*
X378533Y109472*
Y108842*
X378625Y108464*
X378716Y108212*
X378899Y107960*
X379083Y107834*
X379449*
X379632Y107960*
X379816Y108212*
X379907Y108464*
X380732Y110479D02*
Y107834D01*
Y110479D02*
X381923D01*
X380732Y109220D02*
X381465D01*
X380732Y107834D02*
X381923D01*
X382748Y110479D02*
Y107834D01*
Y110479D02*
X383572D01*
X383847Y110353*
X383939Y110227*
X384030Y109975*
Y109723*
X383939Y109472*
X383847Y109346*
X383572Y109220*
X382748*
X383389D02*
X384030Y107834D01*
X384855Y110479D02*
Y107834D01*
Y110479D02*
X385680D01*
X385955Y110353*
X386046Y110227*
X386138Y109975*
Y109597*
X386046Y109346*
X385955Y109220*
X385680Y109094*
X384855*
X386962Y109975D02*
X387146Y110101D01*
X387421Y110479*
Y107834*
X424000Y187646D02*
Y185000D01*
X426199Y187016D02*
X426107Y187268D01*
X425924Y187520*
X425741Y187646*
X425374*
X425191Y187520*
X425008Y187268*
X424916Y187016*
X424825Y186638*
Y186008*
X424916Y185630*
X425008Y185378*
X425191Y185126*
X425374Y185000*
X425741*
X425924Y185126*
X426107Y185378*
X426199Y185630*
X427024Y187646D02*
Y185000D01*
Y187646D02*
X428215D01*
X427024Y186386D02*
X427757D01*
X427024Y185000D02*
X428215D01*
X429039Y187646D02*
Y185756D01*
X429131Y185378*
X429314Y185126*
X429589Y185000*
X429772*
X430047Y185126*
X430230Y185378*
X430322Y185756*
Y187646*
X431238Y187016D02*
Y187142D01*
X431330Y187394*
X431422Y187520*
X431605Y187646*
X431971*
X432155Y187520*
X432246Y187394*
X432338Y187142*
Y186890*
X432246Y186638*
X432063Y186260*
X431147Y185000*
X432429*
X446416Y201146D02*
Y199130D01*
X446325Y198752*
X446233Y198626*
X446050Y198500*
X445866*
X445866D02*
X445683Y198626D01*
X445592Y198752*
X445500Y199130*
Y199382*
X447241Y201146D02*
Y198500D01*
Y201146D02*
X448065D01*
X448065D02*
X448340Y201020D01*
X448432Y200894*
X448524Y200642*
Y200264*
X448432Y200012*
X448340Y199886*
X448065Y199760*
X448065D02*
X447241D01*
X449806Y201146D02*
X449531Y201020D01*
X449440Y200768*
Y200516*
X449531Y200264*
X449715Y200138*
X450081Y200012*
X450356Y199886*
X450539Y199634*
X450631Y199382*
Y199004*
X450539Y198752*
X450448Y198626*
X450173Y198500*
X449806*
X449531Y198626*
X449440Y198752*
X449348Y199004*
Y199382*
X449440Y199634*
X449623Y199886*
X449898Y200012*
X450264Y200138*
X450448Y200264*
X450539Y200516*
Y200768*
X450448Y201020*
X450173Y201146*
X449806*
X268416Y230646D02*
Y228630D01*
X268325Y228252*
X268233Y228126*
X268050Y228000*
X267866*
X267866D02*
X267683Y228126D01*
X267592Y228252*
X267500Y228630*
Y228882*
X269241Y230646D02*
Y228000D01*
Y230646D02*
X270065D01*
X270065D02*
X270340Y230520D01*
X270432Y230394*
X270524Y230142*
Y229764*
X270432Y229512*
X270340Y229386*
X270065Y229260*
X270065D02*
X269241D01*
X272539Y230646D02*
X271623D01*
X271531Y229512*
X271623Y229638*
X271898Y229764*
X272173*
X272448Y229638*
X272631Y229386*
X272723Y229008*
X272631Y228756*
X272539Y228378*
X272356Y228126*
X272081Y228000*
X271806*
X271531Y228126*
X271440Y228252*
X271348Y228504*
X268916Y110146D02*
Y108130D01*
X268825Y107752*
X268733Y107626*
X268550Y107500*
X268366*
X268366D02*
X268183Y107626D01*
X268092Y107752*
X268000Y108130*
Y108382*
X269741Y110146D02*
Y107500D01*
Y110146D02*
X270565D01*
X270565D02*
X270840Y110020D01*
X270932Y109894*
X271024Y109642*
Y109264*
X270932Y109012*
X270840Y108886*
X270565Y108760*
X270565D02*
X269741D01*
X272948Y109768D02*
X272856Y110020D01*
X272581Y110146*
X272398*
X272123Y110020*
X271940Y109642*
X271848Y109012*
Y108382*
X271940Y107878*
X272123Y107626*
X272398Y107500*
X272490*
X272764Y107626*
X272948Y107878*
X273039Y108256*
Y108382*
X272948Y108760*
X272764Y109012*
X272490Y109138*
X272398*
X272123Y109012*
X271940Y108760*
X271848Y108382*
X110916Y222646D02*
Y220630D01*
X110825Y220252*
X110733Y220126*
X110550Y220000*
X110366*
X110366D02*
X110183Y220126D01*
X110092Y220252*
X110000Y220630*
Y220882*
X111741Y222646D02*
Y220000D01*
Y222646D02*
X112565D01*
X112565D02*
X112840Y222520D01*
X112932Y222394*
X113024Y222142*
Y221764*
X112932Y221512*
X112840Y221386*
X112565Y221260*
X112565D02*
X111741D01*
X113848Y222142D02*
X114031Y222268D01*
X114306Y222646*
Y220000*
X157192Y109154D02*
Y107138D01*
X157101Y106760*
X157009Y106634*
X156826Y106508*
X156643*
X156459Y106634*
X156368Y106760*
X156276Y107138*
Y107390*
X158017Y109154D02*
Y106508D01*
Y109154D02*
X158842D01*
X159116Y109028*
X159208Y108902*
X159300Y108650*
Y108272*
X159208Y108020*
X159116Y107894*
X158842Y107768*
X158017*
X160308Y109154D02*
X161315D01*
X160766Y108146*
X161041*
X161224Y108020*
X161315Y107894*
X161407Y107516*
Y107264*
X161315Y106886*
X161132Y106634*
X160857Y106508*
X160582*
X160308Y106634*
X160216Y106760*
X160124Y107012*
X265253Y150375D02*
X266536Y147729D01*
Y150375D02*
X265253Y147729D01*
X267452Y149745D02*
Y149871D01*
X267544Y150123*
X267636Y150249*
X267819Y150375*
X268185*
X268369Y150249*
X268460Y150123*
X268552Y149871*
Y149619*
X268460Y149367*
X268277Y148989*
X267361Y147729*
X268643*
X312555Y115666D02*
Y113020D01*
X314754Y115036D02*
X314662Y115288D01*
X314479Y115540*
X314296Y115666*
X313929*
X313746Y115540*
X313563Y115288*
X313471Y115036*
X313380Y114658*
Y114028*
X313471Y113650*
X313563Y113398*
X313746Y113146*
X313929Y113020*
X314296*
X314479Y113146*
X314662Y113398*
X314754Y113650*
X315579Y115666D02*
Y113020D01*
Y115666D02*
X316770D01*
X315579Y114406D02*
X316312D01*
X315579Y113020D02*
X316770D01*
X317594Y115666D02*
X318877Y113020D01*
Y115666D02*
X317594Y113020D01*
X319885Y115666D02*
X320893D01*
X320343Y114658*
X320618*
X320801Y114532*
X320893Y114406*
X320984Y114028*
X320984D02*
Y113776D01*
X320984D02*
X320893Y113398D01*
X320710Y113146*
X320435Y113020*
X320160*
X319885Y113146*
X319793Y113272*
X319702Y113524*
X434046Y127615D02*
X431400D01*
X434046D02*
Y126791D01*
X433920Y126516*
X433794Y126424*
X433542Y126333*
X433290*
X433038Y126424*
X432912Y126516*
X432786Y126791*
Y127615D02*
Y126791D01*
X432660Y126516*
X432534Y126424*
X432282Y126333*
X431904*
X431652Y126424*
X431526Y126516*
X431400Y126791*
Y127615*
X434046Y125508D02*
X432156D01*
X431778Y125416*
X431526Y125233*
X431400Y124958*
Y124775*
X431526Y124500*
X431778Y124317*
X432156Y124225*
X434046*
X433668Y122118D02*
X433920Y122301D01*
X434046Y122576*
Y122943*
X433920Y123217*
X433668Y123401*
X433416*
X433164Y123309*
X433038Y123217*
X432912Y123034*
X432660Y122484*
X432534Y122301*
X432408Y122210*
X432156Y122118*
X431778*
X431526Y122301*
X431400Y122576*
Y122943*
X431526Y123217*
X431778Y123401*
X434046Y121293D02*
X432786Y120560D01*
X431400*
X434046Y119827D02*
X432786Y120560D01*
X423615Y127615D02*
X420969D01*
X422985Y125416D02*
X423237Y125508D01*
X423489Y125691*
X423615Y125875*
Y126241*
X423489Y126424*
X423237Y126608*
X422985Y126699*
X422607Y126791*
X421977*
X421599Y126699*
X421347Y126608*
X421095Y126424*
X420969Y126241*
Y125875*
X421095Y125691*
X421347Y125508*
X421599Y125416*
X423615Y124592D02*
X420969D01*
X423615D02*
Y123401D01*
X422355Y124592D02*
Y123859D01*
X420969Y124592D02*
Y123401D01*
X427177Y127615D02*
X424531D01*
X426547Y125416D02*
X426799Y125508D01*
X427051Y125691*
X427177Y125875*
Y126241*
X427051Y126424*
X426799Y126608*
X426547Y126699*
X426169Y126791*
X425539*
X425161Y126699*
X424909Y126608*
X424657Y126424*
X424531Y126241*
Y125875*
X424657Y125691*
X424909Y125508*
X425161Y125416*
X427177Y124592D02*
X424531D01*
X427177D02*
Y123767D01*
X427051Y123492*
X426925Y123401*
X426673Y123309*
X426295*
X426043Y123401*
X425917Y123492*
X425791Y123767*
Y124592*
X430357Y127743D02*
X427711D01*
X430357Y126918D02*
X427711D01*
X430357D02*
Y126277D01*
X430231Y126002*
X429979Y125819*
X429727Y125727*
X429349Y125635*
X428719*
X428341Y125727*
X428089Y125819*
X427837Y126002*
X427711Y126277*
Y126918*
X430357Y124811D02*
X427711D01*
Y123711*
X430357Y122887D02*
X427711D01*
X430357D02*
Y121695D01*
X429097Y122887D02*
Y122154D01*
X427711Y122887D02*
Y121695D01*
X142820Y208313D02*
Y205667D01*
X144195Y208313D02*
X144011Y208187D01*
X143828Y207935*
X143736Y207683*
X143645Y207305*
Y206675*
X143736Y206297*
X143828Y206045*
X144011Y205793*
X144195Y205667*
X144561*
X144744Y205793*
X144928Y206045*
X145019Y206297*
X145111Y206675*
Y207305*
X145019Y207683*
X144928Y207935*
X144744Y208187*
X144561Y208313*
X144195*
X141023Y194332D02*
Y191687D01*
Y194332D02*
X141847D01*
X142122Y194206*
X142214Y194080*
X142305Y193828*
Y193451*
X142214Y193199*
X142122Y193073*
X141847Y192947*
X141023*
X143680Y194332D02*
X143497Y194206D01*
X143313Y193954*
X143222Y193702*
X143130Y193325*
Y192695*
X143222Y192317*
X143313Y192065*
X143497Y191813*
X143680Y191687*
X144046*
X144230Y191813*
X144413Y192065*
X144504Y192317*
X144596Y192695*
Y193325*
X144504Y193702*
X144413Y193954*
X144230Y194206*
X144046Y194332*
X143680*
X145421D02*
X145879Y191687D01*
X146337Y194332D02*
X145879Y191687D01*
X146337Y194332D02*
X146795Y191687D01*
X147253Y194332D02*
X146795Y191687D01*
X148078Y194332D02*
Y191687D01*
Y194332D02*
X149269D01*
X148078Y193073D02*
X148811D01*
X148078Y191687D02*
X149269D01*
X150093Y194332D02*
Y191687D01*
Y194332D02*
X150918D01*
X151193Y194206*
X151285Y194080*
X151376Y193828*
Y193577*
X151376D02*
X151285Y193325D01*
X151193Y193199*
X150918Y193073*
X150093*
X150735D02*
X151376Y191687D01*
X447184Y189729D02*
X443903Y188820D01*
X447184Y187911D02*
X443903Y188820D01*
X446403Y185184D02*
X446715Y185297D01*
X447028Y185524*
X447184Y185752*
Y186206*
X447028Y186434*
X446715Y186661*
X446403Y186774*
X445934Y186888*
X445153*
X444684Y186774*
X444371Y186661*
X444059Y186434*
X443903Y186206*
Y185752*
X444059Y185524*
X444371Y185297*
X444684Y185184*
X446403Y182456D02*
X446715Y182570D01*
X447028Y182797*
X447184Y183024*
Y183479*
X447028Y183706*
X446715Y183934*
X446403Y184047*
X445934Y184161*
X445153*
X444684Y184047*
X444371Y183934*
X444059Y183706*
X443903Y183479*
Y183024*
X444059Y182797*
X444371Y182570*
X444684Y182456*
X447184Y179956D02*
Y181093D01*
X445778Y181206*
X445934Y181093*
X446090Y180752*
Y180411*
X445934Y180070*
X445621Y179843*
X445153Y179729*
X444840Y179843*
X444371Y179956*
X444059Y180184*
X443903Y180524*
Y180865*
X444059Y181206*
X444215Y181320*
X444528Y181434*
X455756Y189729D02*
X452475D01*
X454975Y187002D02*
X455287Y187115D01*
X455600Y187343*
X455756Y187570*
Y188024*
X455600Y188252*
X455287Y188479*
X454975Y188593*
X454506Y188706*
X453725*
X453256Y188593*
X452944Y188479*
X452631Y188252*
X452475Y188024*
Y187570*
X452631Y187343*
X452944Y187115*
X453256Y187002*
X455756Y185979D02*
X452475D01*
X455756D02*
Y184502D01*
X454194Y185979D02*
Y185070D01*
X452475Y185979D02*
Y184502D01*
X455756Y183479D02*
X452475Y182570D01*
X455756Y181661D02*
X452475Y182570D01*
X454975Y178934D02*
X455287Y179047D01*
X455600Y179274*
X455756Y179502*
Y179956*
X455600Y180184*
X455287Y180411*
X454975Y180524*
X454506Y180638*
X453725*
X453256Y180524*
X452944Y180411*
X452631Y180184*
X452475Y179956*
Y179502*
X452631Y179274*
X452944Y179047*
X453256Y178934*
X454975Y176206D02*
X455287Y176320D01*
X455600Y176547*
X455756Y176774*
Y177229*
X455600Y177456*
X455287Y177684*
X454975Y177797*
X454506Y177911*
X453725*
X453256Y177797*
X452944Y177684*
X452631Y177456*
X452475Y177229*
Y176774*
X452631Y176547*
X452944Y176320*
X453256Y176206*
X463994Y190022D02*
X460713Y189113D01*
X463994Y188204D02*
X460713Y189113D01*
X463213Y185476D02*
X463525Y185590D01*
X463838Y185817*
X463994Y186044*
Y186499*
X463838Y186726*
X463525Y186954*
X463213Y187067*
X462744Y187181*
X461963*
X461494Y187067*
X461181Y186954*
X460869Y186726*
X460713Y186499*
Y186044*
X460869Y185817*
X461181Y185590*
X461494Y185476*
X463213Y182749D02*
X463525Y182863D01*
X463838Y183090*
X463994Y183317*
Y183772*
X463838Y183999*
X463525Y184226*
X463213Y184340*
X462744Y184454*
X461963*
X461494Y184340*
X461181Y184226*
X460869Y183999*
X460713Y183772*
Y183317*
X460869Y183090*
X461181Y182863*
X461494Y182749*
X463994Y181499D02*
Y180249D01*
X462744Y180931*
Y180590*
X462588Y180363*
X462431Y180249*
X461963Y180135*
X461650*
X461181Y180249*
X460869Y180476*
X460713Y180817*
Y181158*
X460869Y181499*
X461025Y181613*
X461338Y181726*
X463994Y178885D02*
Y177635D01*
X462744Y178317*
Y177976*
X462588Y177749*
X462431Y177635*
X461963Y177522*
X461650*
X461181Y177635*
X460869Y177863*
X460713Y178204*
Y178544*
X460869Y178885*
X461025Y178999*
X461338Y179113*
X168844Y118000D02*
X168687Y118227D01*
X168687D02*
X168219Y118568D01*
X171500*
X171344Y119818D02*
X171500Y119705D01*
X171344Y119591*
X171187Y119705*
X171187D02*
X171344Y119818D01*
X171656*
X171969Y119705*
X172125Y119591*
X168219Y120841D02*
X171500D01*
X168219D02*
Y121864D01*
X168375Y122205*
X168531Y122318*
X168844Y122432*
X169312*
X169312D02*
X169625Y122318D01*
X169781Y122205*
X169937Y121864*
X169937D02*
Y120841D01*
X168844Y123455D02*
X168687Y123682D01*
X168687D02*
X168219Y124023D01*
X171500*
X171187Y125159D02*
X171344Y125045D01*
X171500Y125159*
X171344Y125273*
X171187Y125159*
X169000Y126409D02*
X168844D01*
X168531Y126523*
X168375Y126636*
X168219Y126864*
Y127318*
X168375Y127545*
X168531Y127659*
X168844Y127773*
X169156*
X169469Y127659*
X169937Y127432*
X169937D02*
X171500Y126295D01*
Y127886*
X171344Y129136D02*
X171500Y129023D01*
X171344Y128909*
X171187Y129023*
X171187D02*
X171344Y129136D01*
X171656*
X171969Y129023*
X172125Y128909*
X168219Y131068D02*
X171500Y130159D01*
X168219Y131068D02*
X171500Y131977D01*
X170406Y130500D02*
Y131636D01*
X168219Y133000D02*
X171500D01*
X168219Y134023D02*
X171500D01*
X168219D02*
X171500Y135614D01*
X168219D02*
X171500D01*
X169000Y136750D02*
X168844D01*
X168531Y136864*
X168375Y136977*
X168219Y137205*
Y137659*
X168375Y137886*
X168531Y138000*
X168844Y138114*
X169156*
X169469Y138000*
X169937Y137773*
X169937D02*
X171500Y136636D01*
Y138227*
X171344Y139477D02*
X171500Y139364D01*
X171344Y139250*
X171187Y139364*
X171187D02*
X171344Y139477D01*
X171656*
X171969Y139364*
X172125Y139250*
X168219Y140500D02*
X171500D01*
X168219D02*
Y141523D01*
X168375Y141864*
X168531Y141977*
X168844Y142091*
X169156*
X169469Y141977*
X169625Y141864*
X169781Y141523*
Y140500*
Y141295D02*
X171500Y142091D01*
X168219Y143114D02*
X171500Y144705D01*
X168219D02*
X171500Y143114D01*
X179000Y117614D02*
X178844D01*
X178531Y117727*
X178375Y117841*
X178219Y118068*
Y118523*
X178375Y118750*
X178531Y118864*
X178844Y118977*
X179156*
X179469Y118864*
X179937Y118636*
X179937D02*
X181500Y117500D01*
Y119091*
X181344Y120341D02*
X181500Y120227D01*
X181344Y120114*
X181187Y120227*
X181187D02*
X181344Y120341D01*
X181656*
X181969Y120227*
X182125Y120114*
X178219Y121364D02*
X181500D01*
X178219D02*
Y122386D01*
X178375Y122727*
X178531Y122841*
X178844Y122955*
X179312*
X179312D02*
X179625Y122841D01*
X179781Y122727*
X179937Y122386*
X179937D02*
Y121364D01*
X178844Y123977D02*
X178687Y124205D01*
X178687D02*
X178219Y124545D01*
X181500*
X181187Y125682D02*
X181344Y125568D01*
X181500Y125682*
X181344Y125795*
X181187Y125682*
X178219Y127045D02*
Y128295D01*
X179469Y127614*
Y127955*
X179625Y128182*
X179781Y128295*
X180250Y128409*
X180562*
X180562D02*
X181031Y128295D01*
X181344Y128068*
X181500Y127727*
Y127386*
X181344Y127045*
X181187Y126932*
X181187D02*
X180875Y126818D01*
X181344Y129659D02*
X181500Y129545D01*
X181344Y129432*
X181187Y129545*
X181187D02*
X181344Y129659D01*
X181656*
X181969Y129545*
X182125Y129432*
X178219Y131591D02*
X181500Y130682D01*
X178219Y131591D02*
X181500Y132500D01*
X180406Y131023D02*
Y132159D01*
X178219Y133523D02*
X181500D01*
X178219Y134545D02*
X181500D01*
X178219D02*
X181500Y136136D01*
X178219D02*
X181500D01*
X178219Y137386D02*
Y138636D01*
X179469Y137955*
Y138295*
X179625Y138523*
X179781Y138636*
X180250Y138750*
X180562*
X180562D02*
X181031Y138636D01*
X181344Y138409*
X181500Y138068*
Y137727*
X181344Y137386*
X181187Y137273*
X181187D02*
X180875Y137159D01*
X181344Y140000D02*
X181500Y139886D01*
X181344Y139773*
X181187Y139886*
X181187D02*
X181344Y140000D01*
X181656*
X181969Y139886*
X182125Y139773*
X178219Y141818D02*
X181500D01*
X178219Y141023D02*
Y142614D01*
Y143636D02*
X181500Y145227D01*
X178219D02*
X181500Y143636D01*
X187719Y117727D02*
Y118977D01*
X188969Y118295*
Y118636*
X189125Y118864*
X189281Y118977*
X189750Y119091*
X190062*
X190062D02*
X190531Y118977D01*
X190844Y118750*
X191000Y118409*
Y118068*
X190844Y117727*
X190687Y117614*
X190687D02*
X190375Y117500D01*
X190844Y120341D02*
X191000Y120227D01*
X190844Y120114*
X190687Y120227*
X190687D02*
X190844Y120341D01*
X191156*
X191469Y120227*
X191625Y120114*
X187719Y121364D02*
X191000D01*
X187719D02*
Y122386D01*
X187875Y122727*
X188031Y122841*
X188344Y122955*
X188812*
X188812D02*
X189125Y122841D01*
X189281Y122727*
X189437Y122386*
X189437D02*
Y121364D01*
X188344Y123977D02*
X188187Y124205D01*
X188187D02*
X187719Y124545D01*
X191000*
X190687Y125682D02*
X190844Y125568D01*
X191000Y125682*
X190844Y125795*
X190687Y125682*
X187719Y127955D02*
X189906Y126818D01*
Y128523*
X187719Y127955D02*
X191000D01*
X190844Y129773D02*
X191000Y129659D01*
X190844Y129545*
X190687Y129659*
X190687D02*
X190844Y129773D01*
X191156*
X191469Y129659*
X191625Y129545*
X187719Y131705D02*
X191000Y130795D01*
X187719Y131705D02*
X191000Y132614D01*
X189906Y131136D02*
Y132273D01*
X187719Y133636D02*
X191000D01*
X187719Y134659D02*
X191000D01*
X187719D02*
X191000Y136250D01*
X187719D02*
X191000D01*
X187719Y138409D02*
X189906Y137273D01*
Y138977*
X187719Y138409D02*
X191000D01*
X197719Y118636D02*
X199906Y117500D01*
Y119205*
X197719Y118636D02*
X201000D01*
X200844Y120455D02*
X201000Y120341D01*
X200844Y120227*
X200687Y120341*
X200687D02*
X200844Y120455D01*
X201156*
X201469Y120341*
X201625Y120227*
X197719Y121477D02*
X201000D01*
X197719D02*
Y122500D01*
X197875Y122841*
X198031Y122955*
X198344Y123068*
X198812*
X198812D02*
X199125Y122955D01*
X199281Y122841*
X199437Y122500*
X199437D02*
Y121477D01*
X198344Y124091D02*
X198187Y124318D01*
X198187D02*
X197719Y124659D01*
X201000*
X200687Y125795D02*
X200844Y125682D01*
X201000Y125795*
X200844Y125909*
X200687Y125795*
X197719Y128409D02*
Y127273D01*
X199125Y127159*
X198969Y127273*
X198812Y127614*
X198812D02*
Y127955D01*
X198812D02*
X198969Y128295D01*
X199281Y128523*
X199750Y128636*
X200062Y128523*
X200062D02*
X200531Y128409D01*
X200844Y128182*
X201000Y127841*
Y127500*
X200844Y127159*
X200687Y127045*
X200687D02*
X200375Y126932D01*
X200844Y129886D02*
X201000Y129773D01*
X200844Y129659*
X200687Y129773*
X200687D02*
X200844Y129886D01*
X201156*
X201469Y129773*
X201625Y129659*
X197719Y131818D02*
X201000Y130909D01*
X197719Y131818D02*
X201000Y132727D01*
X199906Y131250D02*
Y132386D01*
X197719Y133750D02*
X201000D01*
X197719Y134773D02*
X201000D01*
X197719D02*
X201000Y136364D01*
X197719D02*
X201000D01*
X197719Y138864D02*
Y137727D01*
X199125Y137614*
X198969Y137727*
X198812Y138068*
X198812D02*
Y138409D01*
X198812D02*
X198969Y138750D01*
X199281Y138977*
X199750Y139091*
X200062Y138977*
X200062D02*
X200531Y138864D01*
X200844Y138636*
X201000Y138295*
Y137955*
X200844Y137614*
X200687Y137500*
X200687D02*
X200375Y137386D01*
X208219Y118977D02*
Y117841D01*
X209625Y117727*
X209469Y117841*
X209312Y118182*
X209312D02*
Y118523D01*
X209312D02*
X209469Y118864D01*
X209781Y119091*
X210250Y119205*
X210562Y119091*
X210562D02*
X211031Y118977D01*
X211344Y118750*
X211500Y118409*
Y118068*
X211344Y117727*
X211187Y117614*
X211187D02*
X210875Y117500D01*
X211344Y120455D02*
X211500Y120341D01*
X211344Y120227*
X211187Y120341*
X211187D02*
X211344Y120455D01*
X211656*
X211969Y120341*
X212125Y120227*
X207594Y123523D02*
X212594Y121477D01*
X208219Y124545D02*
X211500D01*
X208219D02*
Y125568D01*
X208375Y125909*
X208531Y126023*
X208844Y126136*
X209156*
X209469Y126023*
X209625Y125909*
X209781Y125568*
Y124545*
Y125341D02*
X211500Y126136D01*
X208219Y127159D02*
X211500D01*
X208219D02*
Y128636D01*
X209781Y127159D02*
Y128068D01*
X211500Y127159D02*
Y128636D01*
X208687Y131250D02*
X208375Y131023D01*
X208219Y130682*
Y130227*
X208375Y129886*
X208687Y129659*
X208687D02*
X209000D01*
X209312Y129773*
X209312D02*
X209469Y129886D01*
X209625Y130114*
X209937Y130795*
X209937D02*
X210094Y131023D01*
X210250Y131136*
X210562Y131250*
X210562D02*
X211031D01*
X211344Y131023*
X211500Y130682*
Y130227*
X211344Y129886*
X211031Y129659*
X208219Y132273D02*
X211500D01*
X208219D02*
Y133750D01*
X209781Y132273D02*
Y133182D01*
X211500Y132273D02*
Y133750D01*
X208219Y135568D02*
X211500D01*
X208219Y134773D02*
Y136364D01*
X218687Y119364D02*
X218375Y119250D01*
X218219Y118909*
Y118682*
X218375Y118341*
X218844Y118114*
X219625Y118000*
X220406*
X221031Y118114*
X221344Y118341*
X221500Y118682*
Y118795*
X221344Y119136*
X221031Y119364*
X220562Y119477*
X220562D02*
X220406D01*
X219937Y119364*
X219937D02*
X219625Y119136D01*
X219469Y118795*
Y118682*
X219625Y118341*
X219937Y118114*
X219937D02*
X220406Y118000D01*
X221344Y120727D02*
X221500Y120614D01*
X221344Y120500*
X221187Y120614*
X221187D02*
X221344Y120727D01*
X221656*
X221969Y120614*
X222125Y120500*
X218219Y121750D02*
X221500D01*
X218219D02*
Y122773D01*
X218375Y123114*
X218531Y123227*
X218844Y123341*
X219312*
X219312D02*
X219625Y123227D01*
X219781Y123114*
X219937Y122773*
X219937D02*
Y121750D01*
X218219Y124591D02*
Y125841D01*
X219469Y125159*
Y125500*
X219625Y125727*
X219781Y125841*
X220250Y125955*
X220562*
X220562D02*
X221031Y125841D01*
X221344Y125614*
X221500Y125273*
Y124932*
X221344Y124591*
X221187Y124477*
X221187D02*
X220875Y124364D01*
X221187Y127091D02*
X221344Y126977D01*
X221500Y127091*
X221344Y127205*
X221187Y127091*
X219000Y128341D02*
X218844D01*
X218531Y128455*
X218375Y128568*
X218219Y128795*
Y129250*
X218375Y129477*
X218531Y129591*
X218844Y129705*
X219156*
X219469Y129591*
X219937Y129364*
X219937D02*
X221500Y128227D01*
Y129818*
X221344Y131068D02*
X221500Y130955D01*
X221344Y130841*
X221187Y130955*
X221187D02*
X221344Y131068D01*
X221656*
X221969Y130955*
X222125Y130841*
X218219Y132886D02*
X221500D01*
X218219Y132091D02*
Y133682D01*
Y135386D02*
X218375Y135045D01*
X218844Y134818*
X219625Y134705*
X220094*
X220875Y134818*
X221344Y135045*
X221500Y135386*
Y135614*
X221344Y135955*
X220875Y136182*
X220094Y136295*
X219625*
X218844Y136182*
X218375Y135955*
X218219Y135614*
Y135386*
Y137318D02*
X221500D01*
X218219D02*
Y138795D01*
X219781Y137318D02*
Y138227D01*
X221500Y137318D02*
Y138795D01*
X218219Y139818D02*
X221500Y141409D01*
X218219D02*
X221500Y139818D01*
X221344Y142659D02*
X221500Y142545D01*
X221344Y142432*
X221187Y142545*
X221187D02*
X221344Y142659D01*
X221656*
X221969Y142545*
X222125Y142432*
X218219Y143682D02*
X221500D01*
X218219Y144705D02*
X221500D01*
X218219D02*
X221500Y146295D01*
X218219D02*
X221500D01*
X218219Y148114D02*
X221500D01*
X218219Y147318D02*
Y148909D01*
Y150614D02*
X218375Y150273D01*
X218844Y150045*
X219625Y149932*
X220094*
X220875Y150045*
X221344Y150273*
X221500Y150614*
Y150841*
X221344Y151182*
X220875Y151409*
X220094Y151523*
X219625*
X218844Y151409*
X218375Y151182*
X218219Y150841*
Y150614*
X227719Y119091D02*
X231000Y117955D01*
X227719Y117500D02*
Y119091D01*
X230844Y120341D02*
X231000Y120227D01*
X230844Y120114*
X230687Y120227*
X230687D02*
X230844Y120341D01*
X231156*
X231469Y120227*
X231625Y120114*
X227719Y121364D02*
X231000D01*
X227719D02*
Y122386D01*
X227875Y122727*
X228031Y122841*
X228344Y122955*
X228812*
X228812D02*
X229125Y122841D01*
X229281Y122727*
X229437Y122386*
X229437D02*
Y121364D01*
X227719Y124205D02*
Y125455D01*
X228969Y124773*
Y125114*
X229125Y125341*
X229281Y125455*
X229750Y125568*
X230062*
X230062D02*
X230531Y125455D01*
X230844Y125227*
X231000Y124886*
Y124545*
X230844Y124205*
X230687Y124091*
X230687D02*
X230375Y123977D01*
X230687Y126705D02*
X230844Y126591D01*
X231000Y126705*
X230844Y126818*
X230687Y126705*
X227719Y128977D02*
X229906Y127841D01*
Y129545*
X227719Y128977D02*
X231000D01*
X230844Y130795D02*
X231000Y130682D01*
X230844Y130568*
X230687Y130682*
X230687D02*
X230844Y130795D01*
X231156*
X231469Y130682*
X231625Y130568*
X228187Y133409D02*
X227875Y133182D01*
X227719Y132841*
Y132386*
X227875Y132045*
X228187Y131818*
X228187D02*
X228500D01*
X228812Y131932*
X228812D02*
X228969Y132045D01*
X229125Y132273*
X229437Y132955*
X229437D02*
X229594Y133182D01*
X229750Y133295*
X230062Y133409*
X230062D02*
X230531D01*
X230844Y133182*
X231000Y132841*
Y132386*
X230844Y132045*
X230531Y131818*
X227719Y134432D02*
X231000D01*
X227719D02*
Y135227D01*
X227875Y135568*
X228187Y135795*
X228187D02*
X228500Y135909D01*
X228969Y136023*
X229750*
X230219Y135909*
X230531Y135795*
X230844Y135568*
X231000Y135227*
Y134432*
X227719Y137955D02*
X231000Y137045D01*
X227719Y137955D02*
X231000Y138864D01*
X229906Y137386D02*
Y138523D01*
X230844Y140114D02*
X231000Y140000D01*
X230844Y139886*
X230687Y140000*
X230687D02*
X230844Y140114D01*
X231156*
X231469Y140000*
X231625Y139886*
X227719Y141932D02*
X231000D01*
X227719Y141136D02*
Y142727D01*
Y144432D02*
X227875Y144091D01*
X228344Y143864*
X229125Y143750*
X229594*
X230375Y143864*
X230844Y144091*
X231000Y144432*
Y144659*
X230844Y145000*
X230375Y145227*
X229594Y145341*
X229125*
X228344Y145227*
X227875Y145000*
X227719Y144659*
Y144432*
X238219Y118068D02*
X238375Y117727D01*
X238687Y117614*
X238687D02*
X239000D01*
X239312Y117727*
X239312D02*
X239469Y117955D01*
X239625Y118409*
X239781Y118750*
X240094Y118977*
X240406Y119091*
X240875*
X241187Y118977*
X241187D02*
X241344Y118864D01*
X241500Y118523*
Y118068*
X241344Y117727*
X241187Y117614*
X241187D02*
X240875Y117500D01*
X240406*
X240094Y117614*
X239781Y117841*
X239625Y118182*
X239469Y118636*
X239312Y118864*
X239312D02*
X239000Y118977D01*
X238687*
X238687D02*
X238375Y118864D01*
X238219Y118523*
Y118068*
X241344Y120341D02*
X241500Y120227D01*
X241344Y120114*
X241187Y120227*
X241187D02*
X241344Y120341D01*
X241656*
X241969Y120227*
X242125Y120114*
X238219Y121364D02*
X241500D01*
X238219D02*
Y122386D01*
X238375Y122727*
X238531Y122841*
X238844Y122955*
X239312*
X239312D02*
X239625Y122841D01*
X239781Y122727*
X239937Y122386*
X239937D02*
Y121364D01*
X238219Y124205D02*
Y125455D01*
X239469Y124773*
Y125114*
X239625Y125341*
X239781Y125455*
X240250Y125568*
X240562*
X240562D02*
X241031Y125455D01*
X241344Y125227*
X241500Y124886*
Y124545*
X241344Y124205*
X241187Y124091*
X241187D02*
X240875Y123977D01*
X241187Y126705D02*
X241344Y126591D01*
X241500Y126705*
X241344Y126818*
X241187Y126705*
X238219Y129318D02*
Y128182D01*
X239625Y128068*
X239469Y128182*
X239312Y128523*
X239312D02*
Y128864D01*
X239312D02*
X239469Y129205D01*
X239781Y129432*
X240250Y129545*
X240562Y129432*
X240562D02*
X241031Y129318D01*
X241344Y129091*
X241500Y128750*
Y128409*
X241344Y128068*
X241187Y127955*
X241187D02*
X240875Y127841D01*
X241344Y130795D02*
X241500Y130682D01*
X241344Y130568*
X241187Y130682*
X241187D02*
X241344Y130795D01*
X241656*
X241969Y130682*
X242125Y130568*
X238687Y133409D02*
X238375Y133182D01*
X238219Y132841*
Y132386*
X238375Y132045*
X238687Y131818*
X238687D02*
X239000D01*
X239312Y131932*
X239312D02*
X239469Y132045D01*
X239625Y132273*
X239937Y132955*
X239937D02*
X240094Y133182D01*
X240250Y133295*
X240562Y133409*
X240562D02*
X241031D01*
X241344Y133182*
X241500Y132841*
Y132386*
X241344Y132045*
X241031Y131818*
X239000Y136136D02*
X238687Y136023D01*
X238687D02*
X238375Y135795D01*
X238219Y135568*
Y135114*
X238375Y134886*
X238687Y134659*
X238687D02*
X239000Y134545D01*
X239469Y134432*
X240250*
X240719Y134545*
X241031Y134659*
X241344Y134886*
X241500Y135114*
Y135568*
X241344Y135795*
X241031Y136023*
X240719Y136136*
X238219Y137159D02*
X241500D01*
Y138523*
X241344Y139773D02*
X241500Y139659D01*
X241344Y139545*
X241187Y139659*
X241187D02*
X241344Y139773D01*
X241656*
X241969Y139659*
X242125Y139545*
X238219Y141591D02*
X241500D01*
X238219Y140795D02*
Y142386D01*
X238844Y143409D02*
X238687Y143636D01*
X238687D02*
X238219Y143977D01*
X241500*
X248812Y119477D02*
X249281Y119364D01*
X249594Y119136*
X249750Y118795*
Y118682*
X249594Y118341*
X249281Y118114*
X248812Y118000*
X248812D02*
X248656D01*
X248187Y118114*
X248187D02*
X247875Y118341D01*
X247719Y118682*
Y118795*
X247875Y119136*
X248187Y119364*
X248187D02*
X248812Y119477D01*
X248812D02*
X249594D01*
X250375Y119364*
X250844Y119136*
X251000Y118795*
Y118568*
X250844Y118227*
X250531Y118114*
X250844Y120727D02*
X251000Y120614D01*
X250844Y120500*
X250687Y120614*
X250687D02*
X250844Y120727D01*
X251156*
X251469Y120614*
X251625Y120500*
X247719Y121750D02*
X251000D01*
X247719D02*
Y122773D01*
X247875Y123114*
X248031Y123227*
X248344Y123341*
X248812*
X248812D02*
X249125Y123227D01*
X249281Y123114*
X249437Y122773*
X249437D02*
Y121750D01*
X247719Y125841D02*
Y124705D01*
X249125Y124591*
X248969Y124705*
X248812Y125045*
X248812D02*
Y125386D01*
X248812D02*
X248969Y125727D01*
X249281Y125955*
X249750Y126068*
X250062Y125955*
X250062D02*
X250531Y125841D01*
X250844Y125614*
X251000Y125273*
Y124932*
X250844Y124591*
X250687Y124477*
X250687D02*
X250375Y124364D01*
X250687Y127205D02*
X250844Y127091D01*
X251000Y127205*
X250844Y127318*
X250687Y127205*
X248344Y128341D02*
X248187Y128568D01*
X248187D02*
X247719Y128909D01*
X251000*
X250844Y130159D02*
X251000Y130045D01*
X250844Y129932*
X250687Y130045*
X250687D02*
X250844Y130159D01*
X251156*
X251469Y130045*
X251625Y129932*
X247719Y131182D02*
X251000Y132773D01*
X247719D02*
X251000Y131182D01*
X247719Y134591D02*
X251000D01*
X247719Y133795D02*
Y135386D01*
Y137318D02*
X251000Y136409D01*
X247719Y137318D02*
X251000Y138227D01*
X249906Y136750D02*
Y137886D01*
X247719Y139250D02*
X251000D01*
Y140614*
X248500Y141750D02*
X248344D01*
X248031Y141864*
X247875Y141977*
X247719Y142205*
Y142659*
X247875Y142886*
X248031Y143000*
X248344Y143114*
X248656*
X248969Y143000*
X249437Y142773*
X249437D02*
X251000Y141636D01*
Y143227*
X258844Y117000D02*
X258687Y117227D01*
X258687D02*
X258219Y117568D01*
X261500*
X258219Y119273D02*
X258375Y118932D01*
X258844Y118705*
X259625Y118591*
X260094*
X260875Y118705*
X261344Y118932*
X261500Y119273*
Y119500*
X261344Y119841*
X260875Y120068*
X260094Y120182*
X259625*
X258844Y120068*
X258375Y119841*
X258219Y119500*
Y119273*
X261344Y121432D02*
X261500Y121318D01*
X261344Y121205*
X261187Y121318*
X261187D02*
X261344Y121432D01*
X261656*
X261969Y121318*
X262125Y121205*
X258219Y122455D02*
X261500D01*
X258219D02*
Y123477D01*
X258375Y123818*
X258531Y123932*
X258844Y124045*
X259312*
X259312D02*
X259625Y123932D01*
X259781Y123818*
X259937Y123477*
X259937D02*
Y122455D01*
X258219Y126545D02*
Y125409D01*
X259625Y125295*
X259469Y125409*
X259312Y125750*
X259312D02*
Y126091D01*
X259312D02*
X259469Y126432D01*
X259781Y126659*
X260250Y126773*
X260562Y126659*
X260562D02*
X261031Y126545D01*
X261344Y126318*
X261500Y125977*
Y125636*
X261344Y125295*
X261187Y125182*
X261187D02*
X260875Y125068D01*
X261187Y127909D02*
X261344Y127795D01*
X261500Y127909*
X261344Y128023*
X261187Y127909*
X258219Y129727D02*
X258375Y129386D01*
X258844Y129159*
X259625Y129045*
X260094*
X260875Y129159*
X261344Y129386*
X261500Y129727*
Y129955*
X261344Y130295*
X260875Y130523*
X260094Y130636*
X259625*
X258844Y130523*
X258375Y130295*
X258219Y129955*
Y129727*
X261344Y131886D02*
X261500Y131773D01*
X261344Y131659*
X261187Y131773*
X261187D02*
X261344Y131886D01*
X261656*
X261969Y131773*
X262125Y131659*
X258219Y132909D02*
X261500Y134500D01*
X258219D02*
X261500Y132909D01*
X258219Y136318D02*
X261500D01*
X258219Y135523D02*
Y137114D01*
Y139045D02*
X261500Y138136D01*
X258219Y139045D02*
X261500Y139955D01*
X260406Y138477D02*
Y139614D01*
X258219Y140977D02*
X261500D01*
Y142341*
X258844Y143364D02*
X258687Y143591D01*
X258687D02*
X258219Y143932D01*
X261500*
X168200Y209159D02*
X171482Y210068D01*
X168200Y210977D02*
X171482Y210068D01*
X168982Y213704D02*
X168669Y213591D01*
X168357Y213363*
X168200Y213136*
Y212682*
X168357Y212454*
X168669Y212227*
X168982Y212113*
X169450Y212000*
X170232*
X170700Y212113*
X171013Y212227*
X171325Y212454*
X171482Y212682*
Y213136*
X171325Y213363*
X171013Y213591*
X170700Y213704*
X168982Y216432D02*
X168669Y216318D01*
X168357Y216091*
X168200Y215863*
Y215409*
X168357Y215182*
X168669Y214954*
X168982Y214841*
X169450Y214727*
X170232*
X170700Y214841*
X171013Y214954*
X171325Y215182*
X171482Y215409*
Y215863*
X171325Y216091*
X171013Y216318*
X170700Y216432*
X171325Y217682D02*
X171482Y217568D01*
X171325Y217454*
X171169Y217568*
X171325Y217682*
X171638*
X171950Y217568*
X172107Y217454*
X168982Y218818D02*
X168825D01*
X168513Y218932*
X168357Y219045*
X168200Y219272*
Y219727*
X168357Y219954*
X168513Y220068*
X168825Y220182*
X169138*
X169450Y220068*
X169919Y219841*
X171482Y218704*
Y220295*
X168200Y222000D02*
X168357Y221659D01*
X168825Y221432*
X169607Y221318*
X170075*
X170857Y221432*
X171325Y221659*
X171482Y222000*
Y222227*
X171325Y222568*
X170857Y222795*
X170075Y222909*
X169607*
X168825Y222795*
X168357Y222568*
X168200Y222227*
Y222000*
X178219Y183500D02*
X181500D01*
X178219D02*
Y184523D01*
X178375Y184864*
X178531Y184977*
X178844Y185091*
X179312*
X179312D02*
X179625Y184977D01*
X179781Y184864*
X179937Y184523*
X179937D02*
Y183500D01*
X178219Y186114D02*
X181500Y186682D01*
X178219Y187250D02*
X181500Y186682D01*
X178219Y187250D02*
X181500Y187818D01*
X178219Y188386D02*
X181500Y187818D01*
X178219Y189409D02*
X181500D01*
X178219D02*
X181500Y190318D01*
X178219Y191227D02*
X181500Y190318D01*
X178219Y191227D02*
X181500D01*
X178219Y193727D02*
Y192591D01*
X179625Y192477*
X179469Y192591*
X179312Y192932*
X179312D02*
Y193273D01*
X179312D02*
X179469Y193614D01*
X179781Y193841*
X180250Y193955*
X180562Y193841*
X180562D02*
X181031Y193727D01*
X181344Y193500*
X181500Y193159*
Y192818*
X181344Y192477*
X181187Y192364*
X181187D02*
X180875Y192250D01*
X181344Y195205D02*
X181500Y195091D01*
X181344Y194977*
X181187Y195091*
X181187D02*
X181344Y195205D01*
X181656*
X181969Y195091*
X182125Y194977*
X178687Y197818D02*
X178375Y197591D01*
X178219Y197250*
Y196795*
X178375Y196455*
X178687Y196227*
X178687D02*
X179000D01*
X179312Y196341*
X179312D02*
X179469Y196455D01*
X179625Y196682*
X179937Y197364*
X179937D02*
X180094Y197591D01*
X180250Y197705*
X180562Y197818*
X180562D02*
X181031D01*
X181344Y197591*
X181500Y197250*
Y196795*
X181344Y196455*
X181031Y196227*
X178219Y198841D02*
X181500D01*
X178219D02*
Y199864D01*
X178375Y200205*
X178531Y200318*
X178844Y200432*
X179312*
X179312D02*
X179625Y200318D01*
X179781Y200205*
X179937Y199864*
X179937D02*
Y198841D01*
X178219Y201455D02*
X181500D01*
X178687Y204068D02*
X178375Y203841D01*
X178219Y203500*
Y203045*
X178375Y202705*
X178687Y202477*
X178687D02*
X179000D01*
X179312Y202591*
X179312D02*
X179469Y202705D01*
X179625Y202932*
X179937Y203614*
X179937D02*
X180094Y203841D01*
X180250Y203955*
X180562Y204068*
X180562D02*
X181031D01*
X181344Y203841*
X181500Y203500*
Y203045*
X181344Y202705*
X181031Y202477*
X178687Y206682D02*
X178375Y206455D01*
X178219Y206114*
Y205659*
X178375Y205318*
X178687Y205091*
X178687D02*
X179000D01*
X179312Y205205*
X179312D02*
X179469Y205318D01*
X179625Y205545*
X179937Y206227*
X179937D02*
X180094Y206455D01*
X180250Y206568*
X180562Y206682*
X180562D02*
X181031D01*
X181344Y206455*
X181500Y206114*
Y205659*
X181344Y205318*
X181031Y205091*
X181344Y207932D02*
X181500Y207818D01*
X181344Y207705*
X181187Y207818*
X181187D02*
X181344Y207932D01*
X181656*
X181969Y207818*
X182125Y207705*
X178219Y208955D02*
X181500D01*
X178219D02*
Y209977D01*
X178375Y210318*
X178531Y210432*
X178844Y210545*
X179312*
X179312D02*
X179625Y210432D01*
X179781Y210318*
X179937Y209977*
X179937D02*
Y208955D01*
X178219Y212250D02*
X178375Y211909D01*
X178844Y211682*
X179625Y211568*
X180094*
X180875Y211682*
X181344Y211909*
X181500Y212250*
Y212477*
X181344Y212818*
X180875Y213045*
X180094Y213159*
X179625*
X178844Y213045*
X178375Y212818*
X178219Y212477*
Y212250*
X181187Y214295D02*
X181344Y214182D01*
X181500Y214295*
X181344Y214409*
X181187Y214295*
X178219Y216568D02*
X180406Y215432D01*
Y217136*
X178219Y216568D02*
X181500D01*
X181344Y218386D02*
X181500Y218273D01*
X181344Y218159*
X181187Y218273*
X181187D02*
X181344Y218386D01*
X181656*
X181969Y218273*
X182125Y218159*
X178844Y219409D02*
X178687Y219636D01*
X178687D02*
X178219Y219977D01*
X181500*
X179312Y222477D02*
X179781Y222364D01*
X180094Y222136*
X180250Y221795*
Y221682*
X180094Y221341*
X179781Y221114*
X179312Y221000*
X179312D02*
X179156D01*
X178687Y221114*
X178687D02*
X178375Y221341D01*
X178219Y221682*
Y221795*
X178375Y222136*
X178687Y222364*
X178687D02*
X179312Y222477D01*
X179312D02*
X180094D01*
X180875Y222364*
X181344Y222136*
X181500Y221795*
Y221568*
X181344Y221227*
X181031Y221114*
X188219Y198500D02*
X191500D01*
X188219D02*
X191500Y199409D01*
X188219Y200318D02*
X191500Y199409D01*
X188219Y200318D02*
X191500D01*
X188219Y202023D02*
X188375Y201795D01*
X188687Y201568*
X188687D02*
X189000Y201455D01*
X189469Y201341*
X190250*
X190719Y201455*
X191031Y201568*
X191344Y201795*
X191500Y202023*
Y202477*
X191344Y202705*
X191031Y202932*
X190719Y203045*
X190250Y203159*
X189469*
X189000Y203045*
X188687Y202932*
X188687D02*
X188375Y202705D01*
X188219Y202477*
Y202023*
X188687Y205773D02*
X188375Y205545D01*
X188219Y205205*
Y204750*
X188375Y204409*
X188687Y204182*
X188687D02*
X189000D01*
X189312Y204295*
X189312D02*
X189469Y204409D01*
X189625Y204636*
X189937Y205318*
X189937D02*
X190094Y205545D01*
X190250Y205659*
X190562Y205773*
X190562D02*
X191031D01*
X191344Y205545*
X191500Y205205*
Y204750*
X191344Y204409*
X191031Y204182*
X188219Y206795D02*
X191500D01*
X191344Y208045D02*
X191500Y207932D01*
X191344Y207818*
X191187Y207932*
X191187D02*
X191344Y208045D01*
X191656*
X191969Y207932*
X192125Y207818*
X188219Y209068D02*
X191500D01*
X188219D02*
Y210091D01*
X188375Y210432*
X188531Y210545*
X188844Y210659*
X189312*
X189312D02*
X189625Y210545D01*
X189781Y210432*
X189937Y210091*
X189937D02*
Y209068D01*
X188219Y212364D02*
X188375Y212023D01*
X188844Y211795*
X189625Y211682*
X190094*
X190875Y211795*
X191344Y212023*
X191500Y212364*
Y212591*
X191344Y212932*
X190875Y213159*
X190094Y213273*
X189625*
X188844Y213159*
X188375Y212932*
X188219Y212591*
Y212364*
X191187Y214409D02*
X191344Y214295D01*
X191500Y214409*
X191344Y214523*
X191187Y214409*
X188219Y217023D02*
Y215886D01*
X189625Y215773*
X189469Y215886*
X189312Y216227*
X189312D02*
Y216568D01*
X189312D02*
X189469Y216909D01*
X189781Y217136*
X190250Y217250*
X190562Y217136*
X190562D02*
X191031Y217023D01*
X191344Y216795*
X191500Y216455*
Y216114*
X191344Y215773*
X191187Y215659*
X191187D02*
X190875Y215545D01*
X191344Y218500D02*
X191500Y218386D01*
X191344Y218273*
X191187Y218386*
X191187D02*
X191344Y218500D01*
X191656*
X191969Y218386*
X192125Y218273*
X188844Y219523D02*
X188687Y219750D01*
X188687D02*
X188219Y220091D01*
X191500*
X188219Y221682D02*
X188375Y221341D01*
X188687Y221227*
X188687D02*
X189000D01*
X189312Y221341*
X189312D02*
X189469Y221568D01*
X189625Y222023*
X189781Y222364*
X190094Y222591*
X190406Y222705*
X190875*
X191187Y222591*
X191187D02*
X191344Y222477D01*
X191500Y222136*
Y221682*
X191344Y221341*
X191187Y221227*
X191187D02*
X190875Y221114D01*
X190406*
X190094Y221227*
X189781Y221455*
X189625Y221795*
X189469Y222250*
X189312Y222477*
X189312D02*
X189000Y222591D01*
X188687*
X188687D02*
X188375Y222477D01*
X188219Y222136*
Y221682*
X199219Y198500D02*
X202500D01*
X199219D02*
X202500Y199409D01*
X199219Y200318D02*
X202500Y199409D01*
X199219Y200318D02*
X202500D01*
X199219Y201341D02*
X202500D01*
X199687Y203955D02*
X199375Y203727D01*
X199219Y203386*
Y202932*
X199375Y202591*
X199687Y202364*
X199687D02*
X200000D01*
X200312Y202477*
X200312D02*
X200469Y202591D01*
X200625Y202818*
X200937Y203500*
X200937D02*
X201094Y203727D01*
X201250Y203841*
X201562Y203955*
X201562D02*
X202031D01*
X202344Y203727*
X202500Y203386*
Y202932*
X202344Y202591*
X202031Y202364*
X199219Y205659D02*
X199375Y205432D01*
X199687Y205205*
X199687D02*
X200000Y205091D01*
X200469Y204977*
X201250*
X201719Y205091*
X202031Y205205*
X202344Y205432*
X202500Y205659*
Y206114*
X202344Y206341*
X202031Y206568*
X201719Y206682*
X201250Y206795*
X200469*
X200000Y206682*
X199687Y206568*
X199687D02*
X199375Y206341D01*
X199219Y206114*
Y205659*
X202344Y208045D02*
X202500Y207932D01*
X202344Y207818*
X202187Y207932*
X202187D02*
X202344Y208045D01*
X202656*
X202969Y207932*
X203125Y207818*
X199219Y209068D02*
X202500D01*
X199219D02*
Y210091D01*
X199375Y210432*
X199531Y210545*
X199844Y210659*
X200312*
X200312D02*
X200625Y210545D01*
X200781Y210432*
X200937Y210091*
X200937D02*
Y209068D01*
X199219Y212364D02*
X199375Y212023D01*
X199844Y211795*
X200625Y211682*
X201094*
X201875Y211795*
X202344Y212023*
X202500Y212364*
Y212591*
X202344Y212932*
X201875Y213159*
X201094Y213273*
X200625*
X199844Y213159*
X199375Y212932*
X199219Y212591*
Y212364*
X202187Y214409D02*
X202344Y214295D01*
X202500Y214409*
X202344Y214523*
X202187Y214409*
X199687Y216909D02*
X199375Y216795D01*
X199219Y216455*
Y216227*
X199375Y215886*
X199844Y215659*
X200625Y215545*
X201406*
X202031Y215659*
X202344Y215886*
X202500Y216227*
Y216341*
X202344Y216682*
X202031Y216909*
X201562Y217023*
X201562D02*
X201406D01*
X200937Y216909*
X200937D02*
X200625Y216682D01*
X200469Y216341*
Y216227*
X200625Y215886*
X200937Y215659*
X200937D02*
X201406Y215545D01*
X202344Y218273D02*
X202500Y218159D01*
X202344Y218045*
X202187Y218159*
X202187D02*
X202344Y218273D01*
X202656*
X202969Y218159*
X203125Y218045*
X199844Y219295D02*
X199687Y219523D01*
X199687D02*
X199219Y219864D01*
X202500*
X199219Y222477D02*
X202500Y221341D01*
X199219Y220886D02*
Y222477D01*
X209187Y195091D02*
X208875Y194864D01*
X208719Y194523*
Y194068*
X208875Y193727*
X209187Y193500*
X209187D02*
X209500D01*
X209812Y193614*
X209812D02*
X209969Y193727D01*
X210125Y193955*
X210437Y194636*
X210437D02*
X210594Y194864D01*
X210750Y194977*
X211062Y195091*
X211062D02*
X211531D01*
X211844Y194864*
X212000Y194523*
Y194068*
X211844Y193727*
X211531Y193500*
X208719Y196114D02*
X212000D01*
X208719D02*
Y197136D01*
X208875Y197477*
X209031Y197591*
X209344Y197705*
X209812*
X209812D02*
X210125Y197591D01*
X210281Y197477*
X210437Y197136*
X210437D02*
Y196114D01*
X208719Y198727D02*
X212000D01*
X209500Y201455D02*
X209187Y201341D01*
X209187D02*
X208875Y201114D01*
X208719Y200886*
Y200432*
X208875Y200205*
X209187Y199977*
X209187D02*
X209500Y199864D01*
X209969Y199750*
X210750*
X211219Y199864*
X211531Y199977*
X211844Y200205*
X212000Y200432*
Y200886*
X211844Y201114*
X211531Y201341*
X211219Y201455*
X208719Y202477D02*
X212000D01*
Y203841*
X208719Y204864D02*
X212000D01*
X208719Y206455D02*
X210906Y204864D01*
X210125Y205432D02*
X212000Y206455D01*
X211844Y207705D02*
X212000Y207591D01*
X211844Y207477*
X211687Y207591*
X211687D02*
X211844Y207705D01*
X212156*
X212469Y207591*
X212625Y207477*
X208719Y208727D02*
X212000D01*
X208719D02*
Y209750D01*
X208875Y210091*
X209031Y210205*
X209344Y210318*
X209812*
X209812D02*
X210125Y210205D01*
X210281Y210091*
X210437Y209750*
X210437D02*
Y208727D01*
X208719Y212023D02*
X208875Y211682D01*
X209344Y211455*
X210125Y211341*
X210594*
X211375Y211455*
X211844Y211682*
X212000Y212023*
Y212250*
X211844Y212591*
X211375Y212818*
X210594Y212932*
X210125*
X209344Y212818*
X208875Y212591*
X208719Y212250*
Y212023*
X211687Y214068D02*
X211844Y213955D01*
X212000Y214068*
X211844Y214182*
X211687Y214068*
X208719Y216795D02*
X212000Y215659D01*
X208719Y215205D02*
Y216795D01*
X211844Y218045D02*
X212000Y217932D01*
X211844Y217818*
X211687Y217932*
X211687D02*
X211844Y218045D01*
X212156*
X212469Y217932*
X212625Y217818*
X209344Y219068D02*
X209187Y219295D01*
X209187D02*
X208719Y219636D01*
X212000*
X209187Y222023D02*
X208875Y221909D01*
X208719Y221568*
Y221341*
X208875Y221000*
X209344Y220773*
X210125Y220659*
X210906*
X211531Y220773*
X211844Y221000*
X212000Y221341*
Y221455*
X211844Y221795*
X211531Y222023*
X211062Y222136*
X211062D02*
X210906D01*
X210437Y222023*
X210437D02*
X210125Y221795D01*
X209969Y221455*
Y221341*
X210125Y221000*
X210437Y220773*
X210437D02*
X210906Y220659D01*
X218719Y190000D02*
X222000D01*
X219500Y192727D02*
X219187Y192614D01*
X219187D02*
X218875Y192386D01*
X218719Y192159*
Y191705*
X218875Y191477*
X219187Y191250*
X219187D02*
X219500Y191136D01*
X219969Y191023*
X220750*
X221219Y191136*
X221531Y191250*
X221844Y191477*
X222000Y191705*
Y192159*
X221844Y192386*
X221531Y192614*
X221219Y192727*
X218719Y193750D02*
X222000D01*
X218719D02*
Y195227D01*
X220281Y193750D02*
Y194659D01*
X222000Y193750D02*
Y195227D01*
X222625Y196250D02*
Y198636D01*
X218719Y199318D02*
X222000D01*
X218719D02*
Y200114D01*
X218875Y200455*
X219187Y200682*
X219187D02*
X219500Y200795D01*
X219969Y200909*
X220750*
X221219Y200795*
X221531Y200682*
X221844Y200455*
X222000Y200114*
Y199318*
X218719Y202841D02*
X222000Y201932D01*
X218719Y202841D02*
X222000Y203750D01*
X220906Y202273D02*
Y203409D01*
X218719Y205568D02*
X222000D01*
X218719Y204773D02*
Y206364D01*
X221844Y207614D02*
X222000Y207500D01*
X221844Y207386*
X221687Y207500*
X221687D02*
X221844Y207614D01*
X222156*
X222469Y207500*
X222625Y207386*
X218719Y208636D02*
X222000D01*
X218719D02*
Y209659D01*
X218875Y210000*
X219031Y210114*
X219344Y210227*
X219812*
X219812D02*
X220125Y210114D01*
X220281Y210000*
X220437Y209659*
X220437D02*
Y208636D01*
X218719Y212386D02*
X220906Y211250D01*
Y212955*
X218719Y212386D02*
X222000D01*
X221687Y214091D02*
X221844Y213977D01*
X222000Y214091*
X221844Y214205*
X221687Y214091*
X218719Y216818D02*
X222000Y215682D01*
X218719Y215227D02*
Y216818D01*
X221844Y218068D02*
X222000Y217955D01*
X221844Y217841*
X221687Y217955*
X221687D02*
X221844Y218068D01*
X222156*
X222469Y217955*
X222625Y217841*
X219344Y219091D02*
X219187Y219318D01*
X219187D02*
X218719Y219659D01*
X222000*
X218719Y222159D02*
Y221023D01*
X220125Y220909*
X219969Y221023*
X219812Y221364*
X219812D02*
Y221705D01*
X219812D02*
X219969Y222045D01*
X220281Y222273*
X220750Y222386*
X221062Y222273*
X221062D02*
X221531Y222159D01*
X221844Y221932*
X222000Y221591*
Y221250*
X221844Y220909*
X221687Y220795*
X221687D02*
X221375Y220682D01*
X228719Y190500D02*
X232000D01*
X229500Y193227D02*
X229187Y193114D01*
X229187D02*
X228875Y192886D01*
X228719Y192659*
Y192205*
X228875Y191977*
X229187Y191750*
X229187D02*
X229500Y191636D01*
X229969Y191523*
X230750*
X231219Y191636*
X231531Y191750*
X231844Y191977*
X232000Y192205*
Y192659*
X231844Y192886*
X231531Y193114*
X231219Y193227*
X228719Y194250D02*
X232000D01*
X228719D02*
Y195727D01*
X230281Y194250D02*
Y195159D01*
X232000Y194250D02*
Y195727D01*
X232625Y196750D02*
Y199136D01*
X229500Y201523D02*
X229187Y201409D01*
X229187D02*
X228875Y201182D01*
X228719Y200955*
Y200500*
X228875Y200273*
X229187Y200045*
X229187D02*
X229500Y199932D01*
X229969Y199818*
X230750*
X231219Y199932*
X231531Y200045*
X231844Y200273*
X232000Y200500*
Y200955*
X231844Y201182*
X231531Y201409*
X231219Y201523*
X228719Y202545D02*
X232000D01*
Y203909*
X228719Y204932D02*
X232000D01*
X228719Y206523D02*
X230906Y204932D01*
X230125Y205500D02*
X232000Y206523D01*
X231844Y207773D02*
X232000Y207659D01*
X231844Y207545*
X231687Y207659*
X231687D02*
X231844Y207773D01*
X232156*
X232469Y207659*
X232625Y207545*
X228719Y208795D02*
X232000D01*
X228719D02*
Y209818D01*
X228875Y210159*
X229031Y210273*
X229344Y210386*
X229812*
X229812D02*
X230125Y210273D01*
X230281Y210159*
X230437Y209818*
X230437D02*
Y208795D01*
X228719Y212545D02*
X230906Y211409D01*
Y213114*
X228719Y212545D02*
X232000D01*
X231687Y214250D02*
X231844Y214136D01*
X232000Y214250*
X231844Y214364*
X231687Y214250*
X229187Y216750D02*
X228875Y216636D01*
X228719Y216295*
Y216068*
X228875Y215727*
X229344Y215500*
X230125Y215386*
X230906*
X231531Y215500*
X231844Y215727*
X232000Y216068*
Y216182*
X231844Y216523*
X231531Y216750*
X231062Y216864*
X231062D02*
X230906D01*
X230437Y216750*
X230437D02*
X230125Y216523D01*
X229969Y216182*
Y216068*
X230125Y215727*
X230437Y215500*
X230437D02*
X230906Y215386D01*
X231844Y218114D02*
X232000Y218000D01*
X231844Y217886*
X231687Y218000*
X231687D02*
X231844Y218114D01*
X232156*
X232469Y218000*
X232625Y217886*
X229344Y219136D02*
X229187Y219364D01*
X229187D02*
X228719Y219705D01*
X232000*
X228719Y221864D02*
X230906Y220727D01*
Y222432*
X228719Y221864D02*
X232000D01*
X238719Y195500D02*
X242000D01*
X238719D02*
Y196523D01*
X238875Y196864*
X239031Y196977*
X239344Y197091*
X239812*
X239812D02*
X240125Y196977D01*
X240281Y196864*
X240437Y196523*
X240437D02*
Y195500D01*
X238719Y198114D02*
X242000Y198682D01*
X238719Y199250D02*
X242000Y198682D01*
X238719Y199250D02*
X242000Y199818D01*
X238719Y200386D02*
X242000Y199818D01*
X238719Y201409D02*
X242000D01*
X238719D02*
X242000Y202318D01*
X238719Y203227D02*
X242000Y202318D01*
X238719Y203227D02*
X242000D01*
X238719Y204477D02*
Y205727D01*
X239969Y205045*
Y205386*
X240125Y205614*
X240281Y205727*
X240750Y205841*
X241062*
X241062D02*
X241531Y205727D01*
X241844Y205500*
X242000Y205159*
Y204818*
X241844Y204477*
X241687Y204364*
X241687D02*
X241375Y204250D01*
X241844Y207091D02*
X242000Y206977D01*
X241844Y206864*
X241687Y206977*
X241687D02*
X241844Y207091D01*
X242156*
X242469Y206977*
X242625Y206864*
X238719Y208114D02*
X242000D01*
X238719D02*
Y209136D01*
X238875Y209477*
X239031Y209591*
X239344Y209705*
X239812*
X239812D02*
X240125Y209591D01*
X240281Y209477*
X240437Y209136*
X240437D02*
Y208114D01*
X239500Y210841D02*
X239344D01*
X239031Y210955*
X238875Y211068*
X238719Y211295*
Y211750*
X238875Y211977*
X239031Y212091*
X239344Y212205*
X239656*
X239969Y212091*
X240437Y211864*
X240437D02*
X242000Y210727D01*
Y212318*
X241687Y213455D02*
X241844Y213341D01*
X242000Y213455*
X241844Y213568*
X241687Y213455*
X238719Y216068D02*
Y214932D01*
X240125Y214818*
X239969Y214932*
X239812Y215273*
X239812D02*
Y215614D01*
X239812D02*
X239969Y215955D01*
X240281Y216182*
X240750Y216295*
X241062Y216182*
X241062D02*
X241531Y216068D01*
X241844Y215841*
X242000Y215500*
Y215159*
X241844Y214818*
X241687Y214705*
X241687D02*
X241375Y214591D01*
X241844Y217545D02*
X242000Y217432D01*
X241844Y217318*
X241687Y217432*
X241687D02*
X241844Y217545D01*
X242156*
X242469Y217432*
X242625Y217318*
X239344Y218568D02*
X239187Y218795D01*
X239187D02*
X238719Y219136D01*
X242000*
X238719Y220386D02*
Y221636D01*
X239969Y220955*
Y221295*
X240125Y221523*
X240281Y221636*
X240750Y221750*
X241062*
X241062D02*
X241531Y221636D01*
X241844Y221409*
X242000Y221068*
Y220727*
X241844Y220386*
X241687Y220273*
X241687D02*
X241375Y220159D01*
X248219Y195500D02*
X251500D01*
X248219D02*
Y196523D01*
X248375Y196864*
X248531Y196977*
X248844Y197091*
X249312*
X249312D02*
X249625Y196977D01*
X249781Y196864*
X249937Y196523*
X249937D02*
Y195500D01*
X248219Y198114D02*
X251500Y198682D01*
X248219Y199250D02*
X251500Y198682D01*
X248219Y199250D02*
X251500Y199818D01*
X248219Y200386D02*
X251500Y199818D01*
X248219Y201409D02*
X251500D01*
X248219D02*
X251500Y202318D01*
X248219Y203227D02*
X251500Y202318D01*
X248219Y203227D02*
X251500D01*
X249000Y204364D02*
X248844D01*
X248531Y204477*
X248375Y204591*
X248219Y204818*
Y205273*
X248375Y205500*
X248531Y205614*
X248844Y205727*
X249156*
X249469Y205614*
X249937Y205386*
X249937D02*
X251500Y204250D01*
Y205841*
X251344Y207091D02*
X251500Y206977D01*
X251344Y206864*
X251187Y206977*
X251187D02*
X251344Y207091D01*
X251656*
X251969Y206977*
X252125Y206864*
X248219Y208114D02*
X251500D01*
X248219D02*
Y209136D01*
X248375Y209477*
X248531Y209591*
X248844Y209705*
X249312*
X249312D02*
X249625Y209591D01*
X249781Y209477*
X249937Y209136*
X249937D02*
Y208114D01*
X249000Y210841D02*
X248844D01*
X248531Y210955*
X248375Y211068*
X248219Y211295*
Y211750*
X248375Y211977*
X248531Y212091*
X248844Y212205*
X249156*
X249469Y212091*
X249937Y211864*
X249937D02*
X251500Y210727D01*
Y212318*
X251187Y213455D02*
X251344Y213341D01*
X251500Y213455*
X251344Y213568*
X251187Y213455*
X248219Y215727D02*
X250406Y214591D01*
Y216295*
X248219Y215727D02*
X251500D01*
X251344Y217545D02*
X251500Y217432D01*
X251344Y217318*
X251187Y217432*
X251187D02*
X251344Y217545D01*
X251656*
X251969Y217432*
X252125Y217318*
X248844Y218568D02*
X248687Y218795D01*
X248687D02*
X248219Y219136D01*
X251500*
X249000Y220273D02*
X248844D01*
X248531Y220386*
X248375Y220500*
X248219Y220727*
Y221182*
X248375Y221409*
X248531Y221523*
X248844Y221636*
X249156*
X249469Y221523*
X249937Y221295*
X249937D02*
X251500Y220159D01*
Y221750*
X259000Y211705D02*
X258687Y211591D01*
X258687D02*
X258375Y211364D01*
X258219Y211136*
Y210682*
X258375Y210455*
X258687Y210227*
X258687D02*
X259000Y210114D01*
X259469Y210000*
X260250*
X260719Y210114*
X261031Y210227*
X261344Y210455*
X261500Y210682*
Y211136*
X261344Y211364*
X261031Y211591*
X260719Y211705*
X260250*
Y211136D02*
Y211705D01*
X258219Y212727D02*
X261500D01*
X258219D02*
X261500Y214318D01*
X258219D02*
X261500D01*
X258219Y215341D02*
X261500D01*
X258219D02*
Y216136D01*
X258375Y216477*
X258687Y216705*
X258687D02*
X259000Y216818D01*
X259469Y216932*
X260250*
X260719Y216818*
X261031Y216705*
X261344Y216477*
X261500Y216136*
Y215341*
X261344Y218182D02*
X261500Y218068D01*
X261344Y217955*
X261187Y218068*
X261187D02*
X261344Y218182D01*
X261656*
X261969Y218068*
X262125Y217955*
X258844Y219205D02*
X258687Y219432D01*
X258687D02*
X258219Y219773D01*
X261500*
X258844Y220795D02*
X258687Y221023D01*
X258687D02*
X258219Y221364D01*
X261500*
G54D21*
X241495Y155950D02*
X240495Y154950D01*
X231495*
X230495Y155950*
Y159950*
X231495Y160950*
X240495*
X241495Y159950*
Y155950*
X236995Y157950D02*
G75*
G03X236995I-1000J0D01*
G01X241533Y171006D02*
X240533Y170006D01*
X231533*
X230533Y171006*
Y175006*
X231533Y176006*
X240533*
X241533Y175006*
Y171006*
X237033Y173006D02*
G03X237033I-1000J0D01*
G01X197500Y161831D02*
X225591D01*
Y177185*
X197500*
Y170886*
X200000*
Y167736*
X197500*
Y161831*
X196500Y157500D02*
G03X196500I-1500J0D01*
G01X165000Y105000D02*
Y115000D01*
X265000*
Y105000*
X165000*
X265000Y235000D02*
Y225000D01*
X165000*
Y235000*
X265000*
X107500Y196500D02*
X118500D01*
Y190500*
X107500*
Y196500*
X121000Y137000D02*
X132000D01*
Y131000*
X121000*
Y137000*
X107500Y210000D02*
X118500D01*
Y204000*
X107500*
Y210000*
X241500Y146500D02*
X230500D01*
Y152500*
X241500*
Y146500*
X241498Y162027D02*
X230498D01*
Y168027*
X241498*
Y162027*
X378000Y215000D02*
Y204000D01*
X372000*
Y215000*
X378000*
X393000D02*
Y204000D01*
X387000*
Y215000*
X393000*
X400500D02*
Y204000D01*
X394500*
Y215000*
X400500*
X408000D02*
Y204000D01*
X402000*
Y215000*
X408000*
X409500Y204000D02*
Y215000D01*
X415500*
Y204000*
X409500*
X417000D02*
Y215000D01*
X423000*
Y204000*
X417000*
X385500Y215000D02*
Y204000D01*
X379500*
Y215000*
X385500*
X106720Y169748D02*
Y138252D01*
X134280*
Y169748*
X106720*
X126406Y154000D02*
G03X126406I-5906J0D01*
G01X124994D02*
G03X124994I-4494J0D01*
G01X346000Y103500D02*
X345000Y102500D01*
X336000*
X335000Y103500*
Y107500*
X336000Y108500*
X345000*
X346000Y107500*
Y103500*
X341500Y105500D02*
G03X341500I-1000J0D01*
G01X349000Y107500D02*
X350000Y108500D01*
X359000*
X360000Y107500*
Y103500*
X359000Y102500*
X350000*
X349000Y103500*
Y107500*
X355500Y105500D02*
G03X355500I-1000J0D01*
G01X440386Y134704D02*
X439386Y133704D01*
X430386*
X429386Y134704*
Y138704*
X430386Y139704*
X439386*
X440386Y138704*
Y134704*
X435886Y136704D02*
G03X435886I-1000J0D01*
G01X360000Y140500D02*
X359000Y139500D01*
X350000*
X349000Y140500*
Y144500*
X350000Y145500*
X359000*
X360000Y144500*
Y140500*
X355500Y142500D02*
G03X355500I-1000J0D01*
G01X429402Y145046D02*
X430402Y146046D01*
X439402*
X440402Y145046*
Y141046*
X439402Y140046*
X430402*
X429402Y141046*
Y145046*
X435902Y143046D02*
G03X435902I-1000J0D01*
G01X346000Y139500D02*
X335000D01*
Y145500*
X346000*
Y139500*
X335000Y157500D02*
X346000D01*
Y151500*
X335000*
Y157500*
X440500Y146500D02*
X429500D01*
Y152500*
X440500*
Y146500*
Y154000D02*
X429500D01*
Y160000*
X440500*
Y154000*
X349000Y157000D02*
X360000D01*
Y151000*
X349000*
Y157000*
X443000Y197500D02*
X465000D01*
Y190500*
X443000*
Y197500*
G54D22*
X134500Y122000D02*
Y130000D01*
X113500*
Y122000*
X134500*
X132500D02*
Y130000D01*
X133500Y122000D02*
Y130000D01*
X458000Y199000D02*
X466000D01*
Y220000*
X458000*
Y199000*
Y201000D02*
X466000D01*
X458000Y200000D02*
X466000D01*
X356000Y163500D02*
Y171500D01*
X335000*
Y163500*
X356000*
X354000D02*
Y171500D01*
X355000Y163500D02*
Y171500D01*
X419023Y132882D02*
X411023D01*
Y111882*
X419023*
Y132882*
Y130882D02*
X411023D01*
X419023Y131882D02*
X411023D01*
X484276Y143209D02*
X445181D01*
Y166831*
X484276*
Y143209*
X443843Y149020D02*
X441843Y150020D01*
Y148020*
X443843Y149020*
X360500Y169500D02*
Y181500D01*
X365500*
Y169500*
X360500*
X362739Y175500D02*
G03X362739I-539J0D01*
G01X364339D02*
G03X364339I-539J0D01*
G01X363539D02*
G03X363539I-539J0D01*
G01X360500Y188500D02*
Y200500D01*
X365500*
Y188500*
X360500*
X362739Y194500D02*
G03X362739I-539J0D01*
G01X364339D02*
G03X364339I-539J0D01*
G01X363539D02*
G03X363539I-539J0D01*
G01X466505Y127556D02*
X454505D01*
Y132556*
X466505*
Y127556*
X461044Y129256D02*
G03X461044I-539J0D01*
G01Y130856D02*
G03X461044I-539J0D01*
G01Y130056D02*
G03X461044I-539J0D01*
G01X388895Y108496D02*
Y110496D01*
X401495*
Y108496*
X388895*
X378547Y181307D02*
Y148943D01*
X381673Y145874*
X413980*
Y181307*
X378547*
X383981Y149500D02*
G03X383981I-1581J0D01*
G01X389400Y136450D02*
Y134400D01*
X399200Y136550D02*
Y133500D01*
X409000Y136450D02*
Y134400D01*
X423400Y154700D02*
X426450D01*
X423450Y164600D02*
X425500D01*
X423500Y174417D02*
X426550D01*
X407091Y192550D02*
Y190500D01*
X387406Y192750D02*
Y190700D01*
X397248Y193350D02*
Y190300D01*
X366300Y176386D02*
X369350D01*
X366350Y156701D02*
X369400D01*
X367200Y166600D02*
X369250D01*
X381500Y136500D02*
X379000Y134000D01*
X384000*
X381500Y136500*
X248142Y162863D02*
G03X267827I9843J1966D01*
G01X248142D02*
Y190422D01*
X267827D02*
G03X248142I-9842J-1967D01*
G01X267827D02*
Y162863D01*
X252079D02*
Y190422D01*
X263890D02*
G03X252079I-5905J-1965D01*
G01X263890D02*
Y162863D01*
X252079D02*
G03X263890I5906J1964D01*
G01X256016Y172705D02*
X259953D01*
X256016Y180579D02*
X259953D01*
X256016Y174674D02*
X259953D01*
Y178611*
X256016*
Y174674*
X328679Y133904D02*
G03Y114219I1967J-9843D01*
G01Y133904D02*
X356239D01*
Y114219D02*
G03Y133904I-1967J9842D01*
G01Y114219D02*
X328679D01*
Y129967D02*
X356239D01*
Y118156D02*
G03Y129967I-1965J5905D01*
G01Y118156D02*
X328679D01*
Y129967D02*
G03Y118156I1965J-5906D01*
G01X338522Y126030D02*
Y122093D01*
X346396Y126030D02*
Y122093D01*
X340491Y126030D02*
Y122093D01*
X340491D02*
X344428D01*
Y126030*
X340491*
X407875Y125580D02*
X405875D01*
X406875Y125080D02*
X407875Y123580D01*
X405875*
X406875Y125080*
X408875Y125580D02*
X409875Y124580D01*
X409375*
X408875Y124080D02*
X409875Y123080D01*
X409375*
X409875Y124580D02*
Y125080D01*
Y123080D02*
Y123580D01*
X410875Y132080D02*
Y117080D01*
X402875*
Y132080*
X410875*
X383726Y125580D02*
X381726D01*
X382726Y125080D02*
X383726Y123580D01*
X381726*
X382726Y125080*
X384726Y125580D02*
X385726Y124580D01*
X385226*
X384726Y124080D02*
X385726Y123080D01*
X385226*
X385726Y124580D02*
Y125080D01*
Y123080D02*
Y123580D01*
X386726Y132080D02*
Y117080D01*
X378726*
Y132080*
X386726*
X391727Y125580D02*
X389727D01*
X390727Y125080D02*
X391727Y123580D01*
X389727*
X390727Y125080*
X392727Y125580D02*
X393727Y124580D01*
X393227*
X392727Y124080D02*
X393727Y123080D01*
X393227*
X393727Y124580D02*
Y125080D01*
Y123080D02*
Y123580D01*
X394727Y132080D02*
Y117080D01*
X386727*
Y132080*
X394727*
X399777Y125580D02*
X397777D01*
X398777Y125080D02*
X399777Y123580D01*
X397777*
X398777Y125080*
X400777Y125580D02*
X401777Y124580D01*
X401277*
X400777Y124080D02*
X401777Y123080D01*
X401277*
X401777Y124580D02*
Y125080D01*
Y123080D02*
Y123580D01*
X402777Y132080D02*
Y117080D01*
X394777*
Y132080*
X402777*
X132482Y206000D02*
Y208000D01*
X131982Y207000D02*
X130482Y206000D01*
Y208000*
X131982Y207000*
X132482Y205000D02*
X131482Y204000D01*
Y204500*
X130982Y205000D02*
X129982Y204000D01*
Y204500*
X131482Y204000D02*
X131982D01*
X129982D02*
X130482D01*
X138982Y203000D02*
X123982D01*
Y211000*
X138982*
Y203000*
X132667Y192520D02*
Y194520D01*
X132167Y193520D02*
X130667Y192520D01*
Y194520*
X132167Y193520*
X132667Y191520D02*
X131667Y190520D01*
Y191020*
X131167Y191520D02*
X130167Y190520D01*
Y191020*
X131667Y190520D02*
X132167D01*
X130167D02*
X130667D01*
X139167Y189520D02*
X124167D01*
Y197520*
X139167*
Y189520*
X307333Y222350D02*
X308424Y218412D01*
X309514Y222350D02*
X308424Y218412D01*
X312787Y221412D02*
X312651Y221787D01*
X312378Y222162*
X312105Y222350*
X311560*
X311287Y222162*
X311014Y221787*
X310878Y221412*
X310742Y220850*
Y219912*
X310878Y219350*
X311014Y218975*
X311287Y218600*
X311560Y218412*
X312105*
X312378Y218600*
X312651Y218975*
X312787Y219350*
X316060Y221412D02*
X315924Y221787D01*
X315651Y222162*
X315378Y222350*
X314833*
X314560Y222162*
X314287Y221787*
X314151Y221412*
X314014Y220850*
Y219912*
X314151Y219350*
X314287Y218975*
X314560Y218600*
X314833Y218412*
X315378*
X315651Y218600*
X315924Y218975*
X316060Y219350*
X323820Y222506D02*
Y218569D01*
X327093Y221569D02*
X326956Y221944D01*
X326683Y222319*
X326411Y222506*
X325865*
X325593Y222319*
X325320Y221944*
X325183Y221569*
X325047Y221006*
Y220069*
X325183Y219506*
X325320Y219131*
X325593Y218756*
X325865Y218569*
X326411*
X326683Y218756*
X326956Y219131*
X327093Y219506*
X328320Y222506D02*
Y218569D01*
Y222506D02*
X330093D01*
X328320Y220631D02*
X329411D01*
X328320Y218569D02*
X330093D01*
X331320Y222506D02*
X332411Y218569D01*
X333502Y222506D02*
X332411Y218569D01*
X336774Y221569D02*
X336638Y221944D01*
X336365Y222319*
X336093Y222506*
X335547*
X335274Y222319*
X335002Y221944*
X334865Y221569*
X334729Y221006*
Y220069*
X334865Y219506*
X335002Y219131*
X335274Y218756*
X335547Y218569*
X336093*
X336365Y218756*
X336638Y219131*
X336774Y219506*
X340047Y221569D02*
X339911Y221944D01*
X339638Y222319*
X339365Y222506*
X338820*
X338547Y222319*
X338274Y221944*
X338138Y221569*
X338002Y221006*
Y220069*
X338138Y219506*
X338274Y219131*
X338547Y218756*
X338820Y218569*
X339365*
X339638Y218756*
X339911Y219131*
X340047Y219506*
X147200Y163357D02*
Y159419D01*
Y163357D02*
X148427D01*
X148836Y163169*
X148972Y162982*
X149109Y162607*
Y162232*
X148972Y161857*
X148836Y161669*
X148427Y161482*
X147200*
X148154D02*
X149109Y159419D01*
X152245Y162794D02*
X151972Y163169D01*
X151563Y163357*
X151018*
X150609Y163169*
X150336Y162794*
Y162419*
X150472Y162044*
X150609Y161857*
X150882Y161669*
X151700Y161294*
X151972Y161107*
X152109Y160919*
X152245Y160544*
Y159982*
X151972Y159607*
X151563Y159419*
X151018*
X150609Y159607*
X150336Y159982*
X154427Y163357D02*
Y159419D01*
X153472Y163357D02*
X155382D01*
X167798Y162419D02*
X167662Y162794D01*
X167389Y163169*
X167117Y163357*
X166571*
X166298Y163169*
X166026Y162794*
X165889Y162419*
X165753Y161857*
Y160919*
X165889Y160357*
X166026Y159982*
X166298Y159607*
X166571Y159419*
X167117*
X167389Y159607*
X167662Y159982*
X167798Y160357*
Y160919*
X167117D02*
X167798D01*
X169026Y163357D02*
Y159419D01*
Y163357D02*
X170935Y159419D01*
Y163357D02*
Y159419D01*
X172162Y163357D02*
Y159419D01*
Y163357D02*
X173117D01*
X173526Y163169*
X173798Y162794*
X173935Y162419*
X174071Y161857*
Y160919*
X173935Y160357*
X173798Y159982*
X173526Y159607*
X173117Y159419*
X172162*
X183717Y163423D02*
Y159485D01*
X184945Y163423D02*
Y159485D01*
Y163423D02*
X186854Y159485D01*
Y163423D02*
Y159485D01*
X189036Y163423D02*
Y159485D01*
X188081Y163423D02*
X189990D01*
X192036D02*
X191627Y163235D01*
X191354Y162673*
X191217Y161735*
Y161173*
X191354Y160235*
X191627Y159673*
X192036Y159485*
X192308*
X192717Y159673*
X192990Y160235*
X193127Y161173*
Y161735*
X192990Y162673*
X192717Y163235*
X192308Y163423*
X192036*
G54D36*
X425735Y237359D02*
Y228828D01*
Y237359D02*
X429872Y228828D01*
Y237359D02*
Y228828D01*
X432531Y234515D02*
Y230453D01*
X432826Y229234*
X433417Y228828*
X434303*
X434894Y229234*
X435781Y230453*
Y234515D02*
Y228828D01*
X438440Y234515D02*
X440212Y228828D01*
X441985Y234515D02*
X440212Y228828D01*
X446122Y234515D02*
X445531Y234109D01*
X444940Y233297*
X444644Y232078*
Y231265*
X444940Y230047*
X445531Y229234*
X446122Y228828*
X447008*
X447599Y229234*
X448190Y230047*
X448485Y231265*
Y232078*
X448190Y233297*
X447599Y234109*
X447008Y234515*
X446122*
X452031Y237359D02*
Y230453D01*
X452326Y229234*
X452917Y228828*
X453508*
X451144Y234515D02*
X453212D01*
X457644D02*
X457053Y234109D01*
X456462Y233297*
X456167Y232078*
Y231265*
X456462Y230047*
X457053Y229234*
X457644Y228828*
X458531*
X459122Y229234*
X459712Y230047*
X460008Y231265*
Y232078*
X459712Y233297*
X459122Y234109*
X458531Y234515*
X457644*
X462667D02*
Y228828D01*
Y232890D02*
X463553Y234109D01*
X464144Y234515*
X465031*
X465622Y234109*
X465917Y232890*
Y228828*
G54D49*
G74*
X0Y0D02*
M02*
