*
*
G04 PADS 9.5 Build Number: 522968 generated Gerber (RS-274-X) file*
G04 PC Version=2.1*
*
%IN "NUTINY-SDK-NUC029FAE_05"*%
*
%MOIN*%
*
%FSLAX35Y35*%
*
*
*
*
G04 PC Standard Apertures*
*
*
G04 Thermal Relief Aperture macro.*
%AMTER*
1,1,$1,0,0*
1,0,$1-$2,0,0*
21,0,$3,$4,0,0,45*
21,0,$3,$4,0,0,135*
%
*
*
G04 Annular Aperture macro.*
%AMANN*
1,1,$1,0,0*
1,0,$2,0,0*
%
*
*
G04 Odd Aperture macro.*
%AMODD*
1,1,$1,0,0*
1,0,$1-0.005,0,0*
%
*
*
G04 PC Custom Aperture Macros*
*
*
*
*
*
*
G04 PC Aperture Table*
*
%ADD040C,0.07*%
%ADD041R,0.07X0.07*%
%ADD049C,0.001*%
%ADD078C,0.042*%
%ADD101C,0.038*%
*
*
*
*
G04 PC Circuitry*
G04 Layer Name NUTINY-SDK-NUC029FAE_05 - circuitry*
%LPD*%
*
*
G04 PC Custom Flashes*
G04 Layer Name NUTINY-SDK-NUC029FAE_05 - flashes*
%LPD*%
*
*
G04 PC Circuitry*
G04 Layer Name NUTINY-SDK-NUC029FAE_05 - circuitry*
%LPD*%
*
G54D40*
G01X472900Y213000D03*
Y223000D03*
Y233000D03*
X180000Y110000D03*
X190000D03*
X200000D03*
X210000D03*
X220000D03*
X230000D03*
X240000D03*
X250000D03*
X260000D03*
X250000Y230000D03*
X240000D03*
X230000D03*
X220000D03*
X210000D03*
X200000D03*
X190000D03*
X180000D03*
X170000D03*
X290000Y190000D03*
X280000Y180000D03*
X290000D03*
X280000Y170000D03*
X290000D03*
X280000Y160000D03*
X290000D03*
X280000Y150000D03*
X290000D03*
X322000Y190000D03*
X312000Y180000D03*
X322000D03*
X312000Y170000D03*
X322000D03*
X312000Y160000D03*
X322000D03*
X312000Y150000D03*
X322000D03*
X407000Y225000D03*
X397000D03*
X387000D03*
X377000D03*
X290000Y230000D03*
Y110000D03*
X120000Y230000D03*
X130000D03*
X140000D03*
X150000D03*
X120000Y110000D03*
X130000D03*
X140000D03*
X150000D03*
X111642Y142189D03*
X129358D03*
X111642Y165811D03*
X129358D03*
G54D41*
X472900Y203000D03*
X170000Y110000D03*
X260000Y230000D03*
X280000Y190000D03*
X312000D03*
X417000Y225000D03*
X280000Y230000D03*
Y110000D03*
X110000Y230000D03*
Y110000D03*
X170000Y152500D03*
X188000D03*
X150900Y152339D03*
G54D49*
G54D78*
X463016Y163681D03*
Y146358D03*
G54D101*
X228787Y157954D03*
Y173006D03*
X0Y0D02*
M02*
