*
*
G04 PADS 9.5 Build Number: 522968 generated Gerber (RS-274-X) file*
G04 PC Version=2.1*
*
%IN "NUTINY-SDK-NUC029FAE_05"*%
*
%MOIN*%
*
%FSLAX35Y35*%
*
*
*
*
G04 PC Standard Apertures*
*
*
G04 Thermal Relief Aperture macro.*
%AMTER*
1,1,$1,0,0*
1,0,$1-$2,0,0*
21,0,$3,$4,0,0,45*
21,0,$3,$4,0,0,135*
%
*
*
G04 Annular Aperture macro.*
%AMANN*
1,1,$1,0,0*
1,0,$2,0,0*
%
*
*
G04 Odd Aperture macro.*
%AMODD*
1,1,$1,0,0*
1,0,$1-0.005,0,0*
%
*
*
G04 PC Custom Aperture Macros*
*
*
*
*
*
*
G04 PC Aperture Table*
*
%ADD016C,0.01*%
%ADD034C,0.05*%
%ADD040C,0.07*%
%ADD041R,0.07X0.07*%
%ADD049C,0.001*%
%ADD073R,0.04X0.05*%
%ADD075R,0.02299X0.08*%
%ADD076R,0.05X0.04*%
%ADD078C,0.042*%
%ADD079O,0.022X0.07*%
%ADD080O,0.07X0.022*%
%ADD081R,0.05X0.06*%
%ADD083R,0.06X0.073*%
%ADD084R,0.073X0.06*%
%ADD086R,0.10449X0.06906*%
%ADD087R,0.10449X0.15961*%
%ADD088R,0.09268X0.08874*%
%ADD089R,0.08874X0.09268*%
%ADD090R,0.13205X0.02969*%
%ADD091R,0.10843X0.08874*%
%ADD092O,0.03X0.065*%
%ADD097R,0.065X0.053*%
%ADD098R,0.053X0.065*%
%ADD099R,0.08874X0.22654*%
%ADD100R,0.22654X0.08874*%
*
*
*
*
G04 PC Circuitry*
G04 Layer Name NUTINY-SDK-NUC029FAE_05 - circuitry*
%LPD*%
*
*
G04 PC Custom Flashes*
G04 Layer Name NUTINY-SDK-NUC029FAE_05 - flashes*
%LPD*%
*
*
G04 PC Circuitry*
G04 Layer Name NUTINY-SDK-NUC029FAE_05 - circuitry*
%LPD*%
*
G54D16*
G01X100000Y239016D02*
Y100984D01*
X480000*
Y239016*
X100000*
X301575Y237491D02*
Y194200D01*
X304724*
Y237491*
X301575*
Y145700D02*
Y102357D01*
X304724*
Y145700*
X301575*
Y187000D02*
Y182400D01*
X304724*
Y187000*
X301575*
Y177000D02*
Y172200D01*
X304724*
Y177000*
X301575*
Y167400D02*
Y162300D01*
X304724*
Y167400*
X301575*
Y157700D02*
Y154200D01*
X304724*
Y157700*
X301575*
G54D34*
X374000Y141000D03*
X419000D03*
Y186000D03*
X374000D03*
G54D40*
X472900Y213000D03*
Y223000D03*
Y233000D03*
X180000Y110000D03*
X190000D03*
X200000D03*
X210000D03*
X220000D03*
X230000D03*
X240000D03*
X250000D03*
X260000D03*
X250000Y230000D03*
X240000D03*
X230000D03*
X220000D03*
X210000D03*
X200000D03*
X190000D03*
X180000D03*
X170000D03*
X290000Y190000D03*
X280000Y180000D03*
X290000D03*
X280000Y170000D03*
X290000D03*
X280000Y160000D03*
X290000D03*
X280000Y150000D03*
X290000D03*
X322000Y190000D03*
X312000Y180000D03*
X322000D03*
X312000Y170000D03*
X322000D03*
X312000Y160000D03*
X322000D03*
X312000Y150000D03*
X322000D03*
X407000Y225000D03*
X397000D03*
X387000D03*
X377000D03*
X290000Y230000D03*
Y110000D03*
X120000Y230000D03*
X130000D03*
X140000D03*
X150000D03*
X120000Y110000D03*
X130000D03*
X140000D03*
X150000D03*
X111642Y142189D03*
X129358D03*
X111642Y165811D03*
X129358D03*
G54D41*
X472900Y203000D03*
X170000Y110000D03*
X260000Y230000D03*
X280000Y190000D03*
X312000D03*
X417000Y225000D03*
X280000Y230000D03*
Y110000D03*
X110000Y230000D03*
Y110000D03*
X170000Y152500D03*
X188000D03*
X150900Y152339D03*
G54D49*
G54D73*
X116000Y193500D03*
X110000D03*
X129500Y134000D03*
X123500D03*
X116000Y207000D03*
X110000D03*
X233000Y149500D03*
X239000D03*
X232998Y165027D03*
X238998D03*
X337500Y142500D03*
X343500D03*
Y154500D03*
X337500D03*
X432000Y149500D03*
X438000D03*
X432000Y157000D03*
X438000D03*
X357500Y154000D03*
X351500D03*
X232995Y157950D03*
X238995D03*
X233033Y173006D03*
X239033D03*
X337500Y105500D03*
X343500D03*
X357500D03*
X351500D03*
X431886Y136704D03*
X437886D03*
X351500Y142500D03*
X357500D03*
X437902Y143046D03*
X431902D03*
X363000Y172500D03*
Y178500D03*
Y191500D03*
Y197500D03*
G54D75*
X200000Y157500D03*
X202559D03*
X205118D03*
X207677D03*
X210236D03*
X212795D03*
X215354D03*
X217913D03*
X220472D03*
X223031D03*
Y181909D03*
X220472D03*
X217913D03*
X215354D03*
X212795D03*
X210236D03*
X207677D03*
X205118D03*
X202559D03*
X200000D03*
G54D76*
X375000Y206500D03*
Y212500D03*
X390000Y206500D03*
Y212500D03*
X397500Y206500D03*
Y212500D03*
X405000Y206500D03*
Y212500D03*
X412500D03*
Y206500D03*
X420000Y212500D03*
Y206500D03*
X382500D03*
Y212500D03*
X463505Y130056D03*
X457505D03*
G54D78*
X463016Y163681D03*
Y146358D03*
G54D79*
X381500Y141000D03*
X383469D03*
X385437D03*
X387406D03*
X389374D03*
X391343D03*
X393311D03*
X395280D03*
X397248D03*
X399217D03*
X401185D03*
X403154D03*
X405122D03*
X407091D03*
X409059D03*
X411028D03*
Y186181D03*
X409059D03*
X407091D03*
X405122D03*
X403154D03*
X401185D03*
X399217D03*
X397248D03*
X395280D03*
X393311D03*
X391343D03*
X389374D03*
X387406D03*
X385437D03*
X383469D03*
X381500D03*
G54D80*
X418854Y148827D03*
Y150795D03*
Y152764D03*
Y154732D03*
Y156701D03*
Y158669D03*
Y160638D03*
Y162606D03*
Y164575D03*
Y166543D03*
Y168512D03*
Y170480D03*
Y172449D03*
Y174417D03*
Y176386D03*
Y178354D03*
X373673D03*
Y176386D03*
Y174417D03*
Y172449D03*
Y170480D03*
Y168512D03*
Y166543D03*
Y164575D03*
Y162606D03*
Y160638D03*
Y158669D03*
Y156701D03*
Y154732D03*
Y152764D03*
Y150795D03*
Y148827D03*
G54D81*
X446000Y194000D03*
X454000D03*
X462000D03*
G54D83*
X129300Y126000D03*
X116700D03*
X350800Y167500D03*
X338200D03*
G54D84*
X462000Y204200D03*
Y216800D03*
X415023Y127682D03*
Y115082D03*
G54D86*
X448500Y124555D03*
Y115500D03*
Y106445D03*
G54D87*
X472555Y115500D03*
G54D88*
X328500Y213000D03*
X311965D03*
X438000Y106500D03*
X421465D03*
G54D89*
X428500Y225000D03*
Y208465D03*
G54D90*
X452780Y148720D03*
Y151870D03*
Y155020D03*
Y158169D03*
Y161319D03*
G54D91*
X472583Y172539D03*
X453961Y172500D03*
X472661Y137500D03*
X454000D03*
G54D92*
X390395Y105396D03*
Y113596D03*
X393595Y105396D03*
Y113596D03*
X396795Y105396D03*
Y113596D03*
X399995Y105396D03*
Y113596D03*
G54D97*
X406875Y120580D03*
Y128580D03*
X382726Y120580D03*
Y128580D03*
X390727Y120580D03*
Y128580D03*
X398777Y120580D03*
Y128580D03*
G54D98*
X127482Y207000D03*
X135482D03*
X127667Y193520D03*
X135667D03*
G54D99*
X257985Y157941D03*
Y195343D03*
G54D100*
X323758Y124061D03*
X361160D03*
X0Y0D02*
M02*
