%
T1C.012F095S3
X100544Y101884
X100602Y100603
X101958Y10047
X10246Y101085
X103372Y101884
X104689Y102017
X104787Y10047
X10498Y101439
X10576Y10276
X105941Y100606
X1066Y10201
X106716Y101228
X115088Y10276
X11625Y10145
X1186Y10222
X1192Y102
X12005Y1027
X121804Y100784
X122012Y10203
X137016Y102346
X1391Y10155
X13955Y10075
X14185Y102
X1429Y1006
X1464Y1016
X14695Y10205
X1483Y10115
X1489Y1009
X1489Y1014
X14995Y10135
X150116Y100301
X1503Y1022
X15045Y10031
X151315Y104477
X1504Y104
X1486Y10456
X145536Y104045
X14515Y1045
X14448Y10411
X14388Y10412
X1437Y10375
X14205Y1044
X1419Y10315
X1408Y10305
X1402Y1045
X14Y10311
X13875Y10415
X13718Y103357
X13531Y10372
X13315Y10462
X13228Y10318
X131657Y103298
X13132Y10366
X130348Y10318
X12802Y10306
X126309Y102855
X125177Y102855
X124994Y104144
X12352Y104055
X12346Y103063
X12322Y10396
X12225Y10405
X1219Y10486
X12184Y10318
X12129Y10486
X12127Y10414
X1201Y1033
X11974Y105249
X119662Y1045
X119375Y104133
X117875Y105
X11782Y103
X11746Y10498
X116649Y1043
X1159Y10444
X11554Y10444
X11167Y104113
X111625Y103513
X11134Y10306
X11128Y103973
X11125Y103438
X109563Y104438
X10948Y10495
X10888Y10408
X108688Y103655
X108322Y104098
X10828Y10348
X108111Y104668
X107535Y102815
X106779Y104653
X10654Y10432
X10654Y10522
X10648Y10325
X10624Y103683
X10522Y104116
X10516Y104549
X104472Y102972
X103372Y104713
X101958Y103298
X101724Y105227
X100544Y104713
X100544Y107541
X100688Y106229
X102506Y106215
X103372Y107541
X103927Y106174
X104907Y106653
X10516Y105415
X10522Y106281
X10672Y10575
X107675Y10768
X1081Y10606
X1085Y10606
X10888Y105675
X109002Y106149
X10906Y10654
X10918Y10684
X110138Y1065
X110813Y10582
X11125Y105938
X11195Y10756
X11236Y105553
X11236Y10756
X1137Y1076
X11698Y1075
X118Y10747
X1186Y10636
X11905Y10606
X11926Y10762
X11956Y10726
X12004Y10546
X12016Y10618
X12049Y1066
X12058Y10618
X120813Y107438
X12085Y10681
X12106Y10708
X12151Y10777
X121613Y10696
X12649Y10573
X128563Y10636
X12919Y10546
X129313Y10636
X130625Y10612
X13168Y10552
X13168Y10648
X132938Y106185
X13848Y10625
X1401Y1061
X140625Y106582
X1408Y10703
X1412Y10773
X14153Y10742
X1427Y1068
X1437Y1064
X14693Y10593
X14923Y106071
X150596Y107416
X150623Y10629
X151712Y106228
X15175Y11005
X15035Y10955
X148575Y10966
X148121Y108027
X14676Y10789
X14675Y10852
X14635Y1097
X1457Y10915
X1454Y10835
X14355Y10785
X142837Y109014
X1418Y1085
X141734Y1096
X141341Y10958
X14104Y10828
X14061Y108801
X13965Y1098
X13897Y1097
X13897Y10914
X13535Y109599
X133593Y109895
X13126Y10912
X12952Y1084
X1291Y10925
X12652Y10792
X12604Y10792
X125575Y10792
X1252Y10834
X12475Y108908
X123813Y10925
X122825Y109
X12199Y10867
X1213Y10996
X12082Y10828
X12055Y10858
X11986Y109155
X11962Y10948
X11932Y10888
X11923Y11023
X118813Y108438
X11824Y10786
X11767Y10945
X11494Y10924
X11428Y10924
X11188Y110063
X10936Y10828
X10936Y10798
X10847Y10898
X10624Y110155
X10624Y10981
X10504Y10822
X102408Y109687
X1018Y109375
X1018Y109875
X1018Y108875
X101566Y108315
X100993Y111102
X1018Y110375
X10242Y11074
X10282Y11068
X10665Y112516
X10972Y11128
X11116Y11116
X11185Y110813
X111875Y112688
X11188Y1115
X112988Y11221
X11365Y11085
X1141Y11085
X11445Y11085
X1162Y110813
X1162Y1115
X1162Y11038
X11626Y11205
X11692Y110905
X11788Y11086
X11945Y1105
X11959Y11233
X120895Y1105
X121195Y1105
X12175Y1105
X122153Y112387
X122875Y11134
X123425Y11134
X12382Y11104
X124Y11038
X124867Y111321
X127063Y112688
X1285Y1107
X128563Y1113
X128625Y1125
X12916Y11194
X129625Y1113
X129688Y1107
X13126Y1108
X13126Y11212
X132034Y111295
X13705Y1108
X13705Y11205
X1379Y112
X138728Y111784
X14035Y1108
X14135Y111358
X14175Y11236
X14211Y11164
X1425Y11242
X1429Y11171
X14325Y11242
X1438Y11272
X144071Y11056
X14515Y11255
X1455Y11085
X1468Y1121
X14698Y11075
X14698Y11116
X14975Y11235
X15039Y11075
X15071Y11116
X1507Y11295
X1379Y1132
X1371Y1132
X130825Y113161
X12664Y11326
X12226Y11311
X11968Y11311
X11587Y11317
X11494Y11326
X111688Y11313
T2C.0315F197S55
X1065Y10825
X1075Y10825
X125125Y110625
X126125Y110625
X134Y110625
X135Y110625
T3C.032F197S55
X118166Y102098
X119898Y102098
X150152Y106261
X150152Y107993
T4C.032F197S55
X1205Y112875
X1215Y112875
T5C.035F197S55
X123Y101
X123Y102
X124Y101
X124Y102
X125Y101
X125Y102
X126Y101
X126Y102
X127Y101
X127Y102
X128Y101
X128Y102
X129Y101
X129Y102
X13Y101
X13Y102
X131Y101
X131Y102
X132Y101
X132Y102
X133Y101
X133Y102
X134Y101
X134Y102
X135Y101
X135Y102
X1475Y105438
X1475Y106438
X1475Y107438
X1475Y108438
X142875Y113
X141875Y113
X140875Y113
X139875Y113
X138875Y113
T6C.037F197S55
X101Y112
X102Y112
X103Y112
X104Y112
X105Y112
X106Y112
X107Y112
X108Y112
X109Y112
X11Y112
X111Y112
X117Y112
X118Y112
X119Y112
X119Y113
X118Y113
X117Y113
X111Y113
X11Y113
X109Y113
X108Y113
X107Y113
X106Y113
X105Y113
X104Y113
X103Y113
X102Y113
X101Y113
T7C.03937F197S55
X101577Y102935
X101577Y106085
T8C.04F139S55
X1075Y101
X1075Y102
X1085Y101
X1085Y102
X1095Y101
X1095Y102
X1105Y101
X1105Y102
X1115Y101
X1115Y102
X1125Y101
X1125Y102
X1135Y101
X1135Y102
X1145Y101
X1145Y102
X1155Y101
X1155Y102
X1342Y104947
X1352Y104947
X137Y104947
X138Y104947
X138Y106947
X138Y105947
X138Y108947
X138Y107947
X137Y106947
X137Y105947
X137Y108947
X137Y107947
X1352Y108947
X1352Y107947
X1352Y106947
X1352Y105947
X1342Y106947
X1342Y105947
X1342Y107947
X1342Y108947
X123Y112
X123Y113
X124Y112
X124Y113
X125Y113
X125Y112
X126Y112
X126Y113
X132Y113
X132Y112
X133Y112
X133Y113
X134Y112
X134Y113
X135Y113
X135Y112
T9C.05118F107S55
X114Y110241
X114Y112997
X129125Y112997
X129125Y110241
M30
